<svg width="672" height="672" viewBox="0 0 672 672" fill="none" xmlns="http://www.w3.org/2000/svg">
<path d="M221.702 425.271C206.812 411.071 195.678 394.75 186.601 376.636C171.094 345.69 167.228 313.016 170.315 279.181C172.451 255.774 179.907 233.905 191.462 213.437C192.581 211.454 193.592 209.409 194.726 207.256C190.314 205.421 187.1 205.291 182.914 208.645C168.207 220.432 151.327 220.571 134.134 215.4C118.902 210.819 107.743 200.896 100 187.165C89.7397 168.97 84.8674 149.274 84.3272 128.463C84.2758 126.485 84.5349 124.465 84.9156 122.517C86.6391 113.695 94.5872 110.799 101.22 116.794C111.469 126.058 124.306 127.677 137.096 130.162C146.963 132.079 157.28 134.07 166.083 138.589C186.249 148.939 198.427 164.943 195.16 189.474C198.733 190.161 202.292 190.845 205.807 191.522C274.729 106.33 429.991 96.6203 504.914 209.544C486.22 225.246 467.46 241.003 448.346 257.057C444.144 251.172 440.355 245.427 436.129 240.024C419.069 218.216 397.285 204.117 369.661 199.531C347.386 195.833 326.039 197.667 305.859 208.722C290.492 217.141 278.724 229.114 270.133 244.169C254.596 271.392 251.622 300.755 259.42 330.481C269.06 367.233 291.749 392.358 330.551 399.402C358.098 404.403 384.061 400.339 406.165 381.544C416.401 372.84 421.916 361.245 424.853 348.332C425.168 346.946 425.02 345.456 425.111 343.493C396.336 343.493 367.93 343.493 339.22 343.493C339.22 319.554 339.22 296.121 339.22 272.299C396.831 272.299 454.507 272.299 512.678 272.299C512.678 275.161 512.729 277.788 512.669 280.414C512.228 299.886 512.312 319.391 511.181 338.824C509.417 369.124 497.833 395.729 478.278 418.781C459.089 441.402 434.467 455.737 406.337 464.251C379.389 472.408 351.867 474.804 323.882 471.465C289.548 467.369 258.624 454.939 231.418 433.496C228.179 430.944 225.112 428.174 221.702 425.271ZM169.256 182.28C172.14 183.32 175.024 184.36 178.386 185.573C179.928 176.362 176.823 169.47 171.458 163.409C163.88 154.848 154.083 150.183 143.014 148.121C129.257 145.559 115.098 144.77 101.694 137.743C104.427 155.57 108.609 171.892 119.392 185.67C130.084 199.333 150.499 205.318 165.203 199.202C163.793 198.512 162.681 197.876 161.502 197.404C146.874 191.547 133.689 183.284 121.606 173.253C119.773 171.732 117.959 169.655 117.222 167.469C116.008 163.87 117.244 160.536 120.622 158.39C124.356 156.018 127.925 156.643 131.193 159.365C142.509 168.787 154.833 176.538 169.256 182.28Z" fill="#222B24"/>
<path d="M311.984 556.029C316.056 562.721 315.695 564.964 311.05 570.772C310.222 571.808 310.575 574.387 311.225 575.888C312.751 579.415 314.786 582.722 316.761 586.386C311.629 587.972 308.82 586.826 307.188 582.607C306.297 580.303 305.058 578.069 303.606 576.072C302.835 575.011 301.275 574.523 300.07 573.777C299.438 574.993 298.44 576.157 298.254 577.439C297.947 579.56 298.575 581.873 298.011 583.881C297.648 585.173 295.871 586.88 294.703 586.9C293.578 586.919 291.466 585.041 291.428 583.939C291.111 574.79 291.116 565.628 291.202 556.471C291.212 555.397 292.328 553.395 292.891 553.409C299.219 553.567 305.923 551.213 311.984 556.029ZM305.234 567.937C308.346 566.049 308.689 562.702 306.69 560.755C304.887 558.998 301.4 558.97 298.497 558.133C297.182 568.768 297.798 569.64 305.234 567.937Z" fill="#3C443F"/>
<path d="M243.04 552.783C251.786 553.327 252.121 553.587 251.464 559.37C249.703 559.147 247.947 558.869 246.181 558.711C235.914 557.79 229.879 565.927 233.948 575.652C234.921 577.977 237.172 580.474 239.446 581.412C245.288 583.824 247.564 581.498 246.298 574.936C244.74 574.691 243.128 574.437 241.086 574.116C241.025 572.748 240.963 571.388 240.89 569.772C245.114 569.772 248.877 569.772 253.225 569.772C253.225 574.352 253.291 578.787 253.164 583.217C253.141 584.031 252.526 585.088 251.853 585.586C245.233 590.485 230.807 586.644 227.469 579.161C221.527 565.843 228.36 553.951 243.04 552.783Z" fill="#343C37"/>
<path d="M372.219 560.346C372.273 558.402 371.932 556.731 372.504 555.475C372.978 554.435 374.543 553.269 375.598 553.293C376.615 553.316 378.453 554.783 378.463 555.633C378.55 563.269 378.869 570.972 378.004 578.527C377.249 585.116 371.826 587.954 363.638 587.388C356.884 586.921 353.253 583.642 352.779 576.876C352.35 570.755 352.62 564.588 352.253 558.46C351.962 553.603 353.819 552.064 359.122 553.817C359.122 560.651 359.151 567.743 359.109 574.835C359.088 578.349 360.316 581.035 363.936 581.901C368.543 583.002 371.469 581.076 371.882 576.24C372.318 571.121 372.133 565.948 372.219 560.346Z" fill="#343C37"/>
<path d="M424.466 570C424.468 574.826 424.742 579.182 424.308 583.466C424.175 584.781 422.103 585.9 420.919 587.108C419.777 585.857 417.686 584.637 417.645 583.351C417.357 574.371 417.377 565.374 417.639 556.393C417.672 555.268 419.54 553.602 420.848 553.242C423.14 552.61 424.562 553.837 424.497 556.517C424.392 560.843 424.467 565.173 424.466 570Z" fill="#37403C"/>
<path d="M469.743 584.107C469.72 575.708 469.72 567.726 469.72 558.902C467.448 558.902 465.432 559.264 463.647 558.778C462.403 558.439 461.476 556.938 460.407 555.956C461.443 554.954 462.446 553.128 463.521 553.084C470.173 552.815 476.846 552.814 483.499 553.074C484.625 553.118 485.685 554.863 486.775 555.821C485.596 556.849 484.566 558.344 483.198 558.783C481.586 559.301 479.68 558.905 477.42 558.905C477.42 567.382 477.534 575.18 477.319 582.969C477.278 584.444 476.236 586.755 475.117 587.149C473.004 587.893 470.326 587.859 469.743 584.107ZM471.865 573.487C471.865 576.153 471.682 578.837 471.947 581.476C472.069 582.703 473.061 583.843 473.66 585.022C474.387 583.811 475.699 582.62 475.743 581.384C475.954 575.411 476.061 569.413 475.738 563.449C475.483 558.727 477.019 556.513 481.949 557.096C482.822 557.2 483.782 556.562 484.703 556.266C484.63 555.798 484.557 555.33 484.484 554.861C477.122 554.969 469.732 554.071 462.397 556.062C463.485 556.833 464.621 557.27 465.673 557.12C470.761 556.394 472.195 558.955 471.906 563.505C471.717 566.492 471.863 569.501 471.865 573.487Z" fill="#1E2923"/>
<path d="M471.862 572.993C471.863 569.501 471.717 566.492 471.906 563.505C472.195 558.955 470.761 556.394 465.673 557.12C464.621 557.27 463.485 556.833 462.397 556.062C469.731 554.071 477.122 554.969 484.484 554.861C484.557 555.33 484.63 555.798 484.703 556.266C483.782 556.562 482.822 557.2 481.948 557.096C477.019 556.513 475.483 558.727 475.738 563.449C476.061 569.413 475.954 575.411 475.743 581.384C475.699 582.62 474.387 583.811 473.659 585.022C473.061 583.843 472.069 582.703 471.947 581.476C471.682 578.837 471.865 576.153 471.862 572.993Z" fill="#1E2923"/>
</svg>
