<svg version="1.1" id="Layer_1" xmlns="http://www.w3.org/2000/svg" xmlns:xlink="http://www.w3.org/1999/xlink" x="0px" y="0px"
	 width="100%" viewBox="0 0 512 512" enable-background="new 0 0 512 512" xml:space="preserve">
<path fill="#000000" opacity="1.000000" stroke="none" 
	d="
M226.000000,513.000000 
	C151.031662,513.000000 76.063309,513.000000 1.047482,513.000000 
	C1.047482,342.437042 1.047482,171.874039 1.047482,1.000000 
	C98.021790,1.000000 195.043915,1.000000 292.713623,1.349758 
	C292.314575,2.432638 291.364838,3.424294 290.206146,3.858610 
	C279.455414,7.888425 270.537384,14.509615 262.400269,22.953499 
	C252.955185,23.045429 243.968384,23.109581 234.673187,23.009508 
	C232.275970,20.570650 230.458725,17.944254 228.049652,16.084494 
	C219.317200,9.343270 209.046112,8.854867 199.231735,11.764490 
	C188.700165,14.886741 178.681900,19.802582 168.565750,24.224274 
	C165.708054,25.473351 163.292435,27.733879 160.615555,29.570650 
	C163.091644,33.143982 165.129776,36.085278 166.972626,39.348564 
	C164.535187,40.603729 162.296066,41.544285 160.050369,42.468925 
	C133.944901,53.217659 110.886589,68.795601 90.028091,87.589447 
	C75.799019,100.410072 63.672886,115.202087 53.009151,131.118881 
	C42.825859,146.318588 34.356518,162.459702 27.844732,179.565781 
	C18.498075,204.118896 12.628799,229.439117 12.035345,255.807495 
	C11.814235,265.631866 11.966187,275.465637 12.033908,285.294495 
	C12.044673,286.856720 12.510303,288.415802 12.867405,290.429443 
	C14.631311,301.628143 15.915912,312.448669 18.029661,323.104736 
	C23.378744,350.071045 34.181065,374.867523 49.010376,398.357086 
	C58.363823,410.873352 66.885887,423.663147 76.939163,435.107910 
	C89.627266,449.552216 104.677017,461.560913 120.684151,472.309113 
	C137.037216,483.289490 154.430939,492.347656 172.974655,498.765259 
	C185.424088,503.073792 198.507660,505.549896 211.690674,508.939697 
	C215.685379,509.689301 219.321869,510.237213 222.893753,511.064209 
	C224.018280,511.324585 224.969482,512.333618 226.000000,513.000000 
z"/>
<path fill="#000000" opacity="1.000000" stroke="none" 
	d="
M306.000000,0.999998 
	C374.968109,1.000000 443.936249,1.000000 512.952148,1.000000 
	C512.952148,171.555939 512.952148,342.111877 512.952148,513.000000 
	C438.312225,513.000000 363.623962,513.000000 288.234924,512.616577 
	C288.845215,511.822174 290.134430,511.311157 291.471497,511.019318 
	C295.030792,510.242493 298.610687,509.560059 302.588196,508.906860 
	C310.395111,507.316101 317.908173,506.042206 325.174011,503.921204 
	C340.377228,499.483154 355.321167,494.282349 369.403748,486.063599 
	C378.855255,480.377289 387.939728,474.749146 397.385468,469.065857 
	C405.847198,462.379608 413.947632,455.748474 422.364990,448.976959 
	C423.741730,448.101685 424.975128,447.528595 425.834351,446.606689 
	C433.751099,438.112762 442.192688,430.022034 449.347931,420.922607 
	C463.107147,403.424866 474.490143,384.420197 483.090729,363.770081 
	C492.952789,340.091187 499.429260,315.648163 501.513123,289.763428 
	C501.907410,284.523651 501.876129,279.528503 502.014099,274.538025 
	C502.480194,257.677277 502.076233,240.816589 498.863586,224.252960 
	C495.309631,205.929794 489.897461,188.130096 482.536804,170.867065 
	C471.463684,144.897110 456.064148,121.788322 437.280365,100.958817 
	C424.479736,86.764076 410.010193,74.135803 393.710632,64.135025 
	C379.597809,55.475937 364.979004,47.388081 349.844177,40.728863 
	C337.914520,35.479889 324.937286,32.501808 312.276184,29.064400 
	C303.989197,26.814531 295.436096,25.544987 287.189453,23.546843 
	C292.259827,21.001945 297.061981,18.544943 302.047577,16.545183 
	C307.559387,14.334359 309.540802,9.998574 307.154144,4.466657 
	C306.673462,3.352502 306.379852,2.157647 306.000000,0.999998 
z"/>
<path fill="#FD4443" opacity="1.000000" stroke="none" 
	d="
M302.182373,508.840027 
	C298.610687,509.560059 295.030792,510.242493 291.471497,511.019318 
	C290.134430,511.311157 288.845215,511.822174 287.767090,512.616577 
	C267.645782,513.000000 247.291550,513.000000 226.468658,513.000000 
	C224.969482,512.333618 224.018280,511.324585 222.893753,511.064209 
	C219.321869,510.237213 215.685379,509.689301 211.891174,508.708588 
	C229.472183,497.602753 244.406158,483.710175 257.180298,467.461456 
	C261.562653,472.635101 265.225739,478.148651 270.023224,482.374268 
	C280.435516,491.545258 291.427429,500.058105 302.182373,508.840027 
z"/>
<path fill="#04978B" opacity="1.000000" stroke="none" 
	d="
M305.536804,0.999998 
	C306.379852,2.157647 306.673462,3.352502 307.154144,4.466657 
	C309.540802,9.998574 307.559387,14.334359 302.047577,16.545183 
	C297.061981,18.544943 292.259827,21.001945 286.840485,23.632212 
	C284.627625,25.019566 282.788391,25.836498 281.299866,27.074989 
	C267.538513,38.524765 261.645508,53.551506 261.375488,71.565292 
	C261.658722,77.049706 262.051666,82.106689 262.446350,87.582199 
	C263.008453,90.760155 263.649597,93.506134 264.111176,96.281975 
	C264.896149,101.003090 262.873322,104.503532 258.839630,105.631317 
	C254.970596,106.713066 251.283142,104.438667 249.749619,99.997131 
	C249.266296,98.597343 248.847794,97.175179 248.383438,95.344971 
	C247.570175,87.231590 246.773087,79.536484 246.081604,71.424515 
	C247.103134,64.062386 248.019043,57.117123 249.094284,49.831741 
	C251.810394,43.158119 254.367188,36.824612 257.129761,30.255306 
	C259.176544,27.654907 261.017517,25.290310 262.858521,22.925714 
	C270.537384,14.509615 279.455414,7.888425 290.206146,3.858610 
	C291.364838,3.424294 292.314575,2.432638 293.180603,1.349758 
	C297.024536,1.000000 301.049103,1.000000 305.536804,0.999998 
z"/>
<path fill="#FDBF43" opacity="1.000000" stroke="none" 
	d="
M256.975433,467.217377 
	C244.406158,483.710175 229.472183,497.602753 211.507965,508.614777 
	C198.507660,505.549896 185.424088,503.073792 172.974655,498.765259 
	C154.430939,492.347656 137.037216,483.289490 120.684151,472.309113 
	C104.677017,461.560913 89.627266,449.552216 76.939163,435.107910 
	C66.885887,423.663147 58.363823,410.873352 49.040100,397.892761 
	C50.161079,385.908417 50.284096,374.447083 52.859688,363.566345 
	C60.138649,332.815918 77.414650,308.229187 102.244225,288.944122 
	C107.569969,284.807648 113.585220,281.558899 119.260040,278.351044 
	C118.467056,285.300171 120.246277,288.708740 124.900208,289.649780 
	C129.346512,290.548828 132.701645,287.688568 134.087952,281.511078 
	C135.095245,277.022461 135.824585,272.471527 137.035675,267.831390 
	C146.263840,264.713074 155.134171,261.711731 164.421814,258.743530 
	C166.468536,259.083344 168.133636,259.264313 169.722153,259.715179 
	C204.884201,269.695129 234.148178,288.430725 256.253967,318.289612 
	C258.703827,322.037628 261.226532,325.363861 263.261230,328.965729 
	C281.475677,361.209412 286.798065,395.195374 274.694397,430.595215 
	C270.339172,443.332947 262.969452,455.039978 256.975433,467.217377 
M149.590195,429.843384 
	C154.289658,419.296021 146.477631,407.476837 137.437454,404.371490 
	C127.118881,400.827026 115.941948,406.033325 112.137390,416.114624 
	C108.274506,426.350494 113.349861,437.526672 123.858307,441.924713 
	C133.484634,445.953552 144.596466,441.000397 149.590195,429.843384 
M248.018661,379.135101 
	C238.621719,376.355103 230.863373,380.285980 228.488815,389.030121 
	C226.188034,397.502594 231.112030,405.718597 239.656906,407.664764 
	C246.339676,409.186829 253.922760,405.088226 256.658875,398.475281 
	C259.759888,390.980469 256.978943,384.274567 248.018661,379.135101 
M105.235176,354.162109 
	C103.780846,353.379272 102.395363,352.408234 100.860100,351.846588 
	C94.624458,349.565338 87.207680,351.911896 83.569664,357.192017 
	C79.781921,362.689453 80.228706,370.935242 84.574997,375.746307 
	C88.956718,380.596588 96.566040,382.113983 102.324493,379.285797 
	C111.923630,374.571228 113.527969,363.310303 105.235176,354.162109 
z"/>
<path fill="#FD4343" opacity="1.000000" stroke="none" 
	d="
M248.934967,50.171860 
	C248.019043,57.117123 247.103134,64.062386 245.627563,71.456635 
	C239.942490,72.328476 234.755554,72.384567 229.701370,73.232162 
	C188.968399,80.063179 153.871231,97.420258 127.088165,129.543640 
	C112.246490,147.344635 102.277481,167.622421 98.398193,190.692749 
	C94.591454,189.128220 91.143318,187.509354 87.593460,186.157654 
	C81.793823,183.949326 77.623878,185.295532 75.912956,189.722870 
	C74.149956,194.284973 76.429749,197.667465 82.191437,200.188751 
	C87.299286,202.423920 92.162369,205.218414 97.091782,208.246674 
	C96.389343,223.975189 98.792686,238.732162 103.824188,253.272781 
	C97.930283,254.366638 92.313538,254.984970 86.791161,256.079437 
	C59.439072,261.500183 34.439678,272.124176 12.765638,289.976349 
	C12.510303,288.415802 12.044673,286.856720 12.033908,285.294495 
	C11.966187,275.465637 11.814235,265.631866 12.035345,255.807495 
	C12.628799,229.439117 18.498075,204.118896 27.844732,179.565781 
	C34.356518,162.459702 42.825859,146.318588 53.009151,131.118881 
	C63.672886,115.202087 75.799019,100.410072 90.028091,87.589447 
	C110.886589,68.795601 133.944901,53.217659 160.050369,42.468925 
	C162.296066,41.544285 164.535187,40.603729 167.277740,39.468201 
	C174.171951,45.999897 180.255966,53.068165 187.052109,59.368229 
	C193.102097,64.976593 200.441040,68.708115 208.963867,69.029823 
	C221.927628,69.519165 230.715057,62.285938 238.515381,52.659473 
	C242.204636,51.742809 245.569794,50.957336 248.934967,50.171860 
z"/>
<path fill="#FCB30C" opacity="1.000000" stroke="none" 
	d="
M12.867405,290.429443 
	C34.439678,272.124176 59.439072,261.500183 86.791161,256.079437 
	C92.313538,254.984970 97.930283,254.366638 104.279388,253.272156 
	C110.609756,253.009293 116.164268,253.003067 121.805870,253.451279 
	C121.022926,261.904236 120.152893,269.902740 119.282852,277.901245 
	C113.585220,281.558899 107.569969,284.807648 102.244225,288.944122 
	C77.414650,308.229187 60.138649,332.815918 52.859688,363.566345 
	C50.284096,374.447083 50.161079,385.908417 48.888641,397.569031 
	C34.181065,374.867523 23.378744,350.071045 18.029661,323.104736 
	C15.915912,312.448669 14.631311,301.628143 12.867405,290.429443 
z"/>
<path fill="#0BB49D" opacity="1.000000" stroke="none" 
	d="
M238.191299,52.790665 
	C230.715057,62.285938 221.927628,69.519165 208.963867,69.029823 
	C200.441040,68.708115 193.102097,64.976593 187.052109,59.368229 
	C180.255966,53.068165 174.171951,45.999897 167.473007,39.146202 
	C165.129776,36.085278 163.091644,33.143982 160.615555,29.570650 
	C163.292435,27.733879 165.708054,25.473351 168.565750,24.224274 
	C178.681900,19.802582 188.700165,14.886741 199.231735,11.764490 
	C209.046112,8.854867 219.317200,9.343270 228.049652,16.084494 
	C230.458725,17.944254 232.275970,20.570650 234.655090,23.377455 
	C236.712601,28.189743 238.479782,32.469860 239.813019,36.830894 
	C228.512604,39.003284 217.975189,37.832176 207.680618,33.852921 
	C203.340515,32.175293 199.401733,33.728977 197.692902,37.560337 
	C195.998978,41.358276 197.556580,45.235744 201.789703,47.416405 
	C203.401520,48.246723 205.136978,48.854649 206.851044,49.465916 
	C217.027176,53.094887 227.585434,53.179310 238.191299,52.790665 
z"/>
<path fill="#F84444" opacity="1.000000" stroke="none" 
	d="
M240.246979,36.749977 
	C238.479782,32.469860 236.712601,28.189743 234.963501,23.541679 
	C243.968384,23.109581 252.955185,23.045429 262.400269,22.953495 
	C261.017517,25.290310 259.176544,27.654907 256.787476,30.413410 
	C250.908569,32.788204 245.577774,34.769093 240.246979,36.749977 
z"/>
<path fill="#FDBF43" opacity="1.000000" stroke="none" 
	d="
M397.024200,469.121002 
	C387.939728,474.749146 378.855255,480.377289 369.244843,485.762573 
	C363.310608,479.015656 357.369781,472.878845 352.586212,465.943787 
	C331.991272,436.085846 324.294464,403.295929 331.714447,367.476654 
	C336.438568,344.671265 346.953094,324.627747 362.407532,307.326447 
	C371.708618,296.913849 381.945343,287.405792 394.675598,280.852539 
	C401.307953,285.715210 406.081635,284.150085 408.325012,276.678955 
	C408.893219,274.786743 409.484924,272.901520 410.415771,270.938354 
	C420.504639,266.984467 430.243530,263.105347 440.344971,259.299835 
	C462.930969,265.499023 483.227997,275.426056 501.165070,290.010162 
	C499.429260,315.648163 492.952789,340.091187 483.090729,363.770081 
	C474.490143,384.420197 463.107147,403.424866 449.347931,420.922607 
	C442.192688,430.022034 433.751099,438.112762 425.834351,446.606689 
	C424.975128,447.528595 423.741730,448.101685 422.145020,448.671509 
	C421.302979,447.219635 421.028778,445.924652 420.687836,444.647461 
	C418.254333,435.531464 408.893951,429.107513 399.452271,430.059509 
	C390.553284,430.956787 382.563171,438.806122 381.981018,447.222931 
	C381.178497,458.825836 386.651123,466.792236 397.024200,469.121002 
M365.066895,400.223114 
	C369.784119,408.021820 377.564850,410.109436 385.606720,405.734161 
	C392.720459,401.863770 394.971008,393.574615 390.992401,385.897369 
	C387.289124,378.751434 379.177979,376.053314 371.849884,379.529816 
	C363.724457,383.384583 361.027405,390.958008 365.066895,400.223114 
M479.055389,322.219391 
	C481.026520,314.751770 478.468445,308.076477 472.325989,304.659058 
	C466.285156,301.298157 458.819611,302.439636 454.000305,307.461060 
	C449.261383,312.398773 448.665985,319.574371 452.180542,325.382416 
	C458.443237,335.731873 474.897156,333.964478 479.055389,322.219391 
z"/>
<path fill="#FD4343" opacity="1.000000" stroke="none" 
	d="
M501.513123,289.763428 
	C483.227997,275.426056 462.930969,265.499023 439.977966,259.156799 
	C430.205933,257.290009 421.163483,255.639908 412.051086,253.557251 
	C411.980896,250.527435 411.980621,247.930191 412.220215,245.015564 
	C413.661713,237.808029 414.863373,230.917877 416.154602,223.619598 
	C418.019135,211.021561 416.897949,198.936615 414.460266,186.989975 
	C408.600525,158.272385 394.124817,134.478775 372.589539,114.808998 
	C350.404602,94.545853 324.440308,81.768257 294.789062,75.441338 
	C283.464966,73.896111 272.475067,72.516975 261.485168,71.137848 
	C261.645508,53.551506 267.538513,38.524765 281.299866,27.074989 
	C282.788391,25.836498 284.627625,25.019566 286.653198,23.921726 
	C295.436096,25.544987 303.989197,26.814531 312.276184,29.064400 
	C324.937286,32.501808 337.914520,35.479889 349.844177,40.728863 
	C364.979004,47.388081 379.597809,55.475937 393.710632,64.135025 
	C410.010193,74.135803 424.479736,86.764076 437.280365,100.958817 
	C456.064148,121.788322 471.463684,144.897110 482.536804,170.867065 
	C489.897461,188.130096 495.309631,205.929794 498.863586,224.252960 
	C502.076233,240.816589 502.480194,257.677277 502.014099,274.538025 
	C501.876129,279.528503 501.907410,284.523651 501.513123,289.763428 
z"/>
<path fill="#FCB30B" opacity="1.000000" stroke="none" 
	d="
M394.385773,280.651947 
	C381.945343,287.405792 371.708618,296.913849 362.407532,307.326447 
	C346.953094,324.627747 336.438568,344.671265 331.714447,367.476654 
	C324.294464,403.295929 331.991272,436.085846 352.586212,465.943787 
	C357.369781,472.878845 363.310608,479.015656 368.877838,485.820801 
	C355.321167,494.282349 340.377228,499.483154 325.174011,503.921204 
	C317.908173,506.042206 310.395111,507.316101 302.588196,508.906860 
	C291.427429,500.058105 280.435516,491.545258 270.023224,482.374268 
	C265.225739,478.148651 261.562653,472.635101 257.180298,467.461456 
	C262.969452,455.039978 270.339172,443.332947 274.694397,430.595215 
	C286.798065,395.195374 281.475677,361.209412 263.261230,328.965729 
	C261.226532,325.363861 258.703827,322.037628 256.579285,318.219177 
	C257.591858,317.094971 258.555054,316.433472 259.255432,315.561005 
	C273.716370,297.545990 290.841370,282.769775 311.511017,272.230316 
	C338.303467,258.568817 366.663300,251.939346 396.835205,253.417450 
	C395.955750,259.886353 394.838257,265.913422 394.134735,271.988434 
	C393.805817,274.828491 394.277130,277.761230 394.385773,280.651947 
z"/>
<path fill="#FCB30C" opacity="1.000000" stroke="none" 
	d="
M397.385468,469.065857 
	C386.651123,466.792236 381.178497,458.825836 381.981018,447.222931 
	C382.563171,438.806122 390.553284,430.956787 399.452271,430.059509 
	C408.893951,429.107513 418.254333,435.531464 420.687836,444.647461 
	C421.028778,445.924652 421.302979,447.219635 421.828064,448.811890 
	C413.947632,455.748474 405.847198,462.379608 397.385468,469.065857 
z"/>
<path fill="#FCB30B" opacity="1.000000" stroke="none" 
	d="
M295.123291,75.607422 
	C324.440308,81.768257 350.404602,94.545853 372.589539,114.808998 
	C394.124817,134.478775 408.600525,158.272385 414.460266,186.989975 
	C416.897949,198.936615 418.019135,211.021561 415.707092,223.612762 
	C412.526123,223.998108 409.882263,223.982178 407.073517,223.635986 
	C401.991608,210.714508 394.820648,199.621750 384.910797,190.372803 
	C380.409729,186.171860 375.866486,185.767120 372.628967,189.162521 
	C369.363434,192.587265 370.561646,196.603210 374.455963,201.346878 
	C380.089813,208.209427 384.932526,215.721466 389.645782,222.967087 
	C377.777557,224.070419 366.231323,224.364731 355.001770,226.403305 
	C319.217773,232.899414 287.216156,247.730072 259.752075,271.826904 
	C257.713135,273.615845 256.458405,273.794830 254.334427,271.917145 
	C233.047302,253.098190 208.591568,239.971069 181.706940,231.468994 
	C185.595795,229.197281 187.029892,226.043442 185.877167,222.156311 
	C184.612289,217.891006 181.123917,216.702087 177.006577,216.429626 
	C176.409668,201.212204 178.710052,186.867249 183.206451,172.847946 
	C191.357040,147.435318 206.556702,126.800079 226.899536,109.954926 
	C233.474823,104.510170 241.200287,100.454399 248.399628,95.763245 
	C248.847794,97.175179 249.266296,98.597343 249.749619,99.997131 
	C251.283142,104.438667 254.970596,106.713066 258.839630,105.631317 
	C262.873322,104.503532 264.896149,101.003090 264.111176,96.281975 
	C263.649597,93.506134 263.008453,90.760155 262.844788,87.502617 
	C268.461060,85.008980 273.648224,82.922867 278.909180,81.043182 
	C284.276154,79.125626 289.715576,77.410927 295.123291,75.607422 
M248.527435,186.940445 
	C255.549866,176.725220 254.302094,166.560394 245.042938,158.554489 
	C238.155945,152.599686 227.160110,152.839417 220.394699,159.091858 
	C211.308411,167.489212 210.449783,179.632950 218.360947,187.856125 
	C226.725220,196.550278 238.864670,196.391907 248.527435,186.940445 
M248.425903,226.574020 
	C248.615540,227.034302 248.777527,227.508362 248.998947,227.952805 
	C252.546051,235.072937 258.411621,238.136887 266.114166,236.902496 
	C271.999817,235.959244 276.768921,230.543289 277.828613,223.599152 
	C278.678650,218.028793 274.879395,211.633163 268.992554,208.724686 
	C262.824188,205.677124 257.229065,207.117950 251.574982,212.836380 
	C247.868546,216.584976 247.719162,221.053879 248.425903,226.574020 
M345.256378,145.445343 
	C340.196442,148.231293 336.505035,152.094070 336.049805,158.132614 
	C335.527771,165.056808 339.457916,171.001816 345.805603,173.329971 
	C351.224060,175.317322 358.916168,173.348328 362.205658,169.131927 
	C366.697418,163.374481 367.144440,156.502060 363.378937,151.095428 
	C359.213501,145.114563 353.148315,143.047668 345.256378,145.445343 
z"/>
<path fill="#FC9302" opacity="1.000000" stroke="none" 
	d="
M248.383438,95.344971 
	C241.200287,100.454399 233.474823,104.510170 226.899536,109.954926 
	C206.556702,126.800079 191.357040,147.435318 183.206451,172.847946 
	C178.710052,186.867249 176.409668,201.212204 176.681396,216.611557 
	C159.313568,224.088425 142.685593,223.375763 126.412720,214.546005 
	C126.317703,214.587784 126.409622,214.773911 126.292908,214.459167 
	C125.796600,213.914566 125.417023,213.684677 124.866219,213.196594 
	C117.456680,203.878036 108.945778,196.308517 98.711113,190.758392 
	C102.277481,167.622421 112.246490,147.344635 127.088165,129.543640 
	C153.871231,97.420258 188.968399,80.063179 229.701370,73.232162 
	C234.755554,72.384567 239.942490,72.328476 245.521942,71.873505 
	C246.773087,79.536484 247.570175,87.231590 248.383438,95.344971 
z"/>
<path fill="#016F67" opacity="1.000000" stroke="none" 
	d="
M239.813019,36.830898 
	C245.577774,34.769093 250.908569,32.788204 256.581665,30.649212 
	C254.367188,36.824612 251.810394,43.158119 249.094284,49.831745 
	C245.569794,50.957336 242.204636,51.742809 238.515381,52.659473 
	C227.585434,53.179310 217.027176,53.094887 206.851044,49.465916 
	C205.136978,48.854649 203.401520,48.246723 201.789703,47.416405 
	C197.556580,45.235744 195.998978,41.358276 197.692902,37.560337 
	C199.401733,33.728977 203.340515,32.175293 207.680618,33.852921 
	C217.975189,37.832176 228.512604,39.003284 239.813019,36.830898 
z"/>
<path fill="#F99305" opacity="1.000000" stroke="none" 
	d="
M294.789062,75.441330 
	C289.715576,77.410927 284.276154,79.125626 278.909180,81.043182 
	C273.648224,82.922867 268.461060,85.008980 262.843018,87.084076 
	C262.051666,82.106689 261.658722,77.049706 261.375488,71.565292 
	C272.475067,72.516975 283.464966,73.896111 294.789062,75.441330 
z"/>
<path fill="#FC9302" opacity="1.000000" stroke="none" 
	d="
M181.455200,231.732132 
	C208.591568,239.971069 233.047302,253.098190 254.334427,271.917145 
	C256.458405,273.794830 257.713135,273.615845 259.752075,271.826904 
	C287.216156,247.730072 319.217773,232.899414 355.001770,226.403305 
	C366.231323,224.364731 377.777557,224.070419 389.919739,223.193146 
	C394.856018,232.825012 397.354980,242.591568 396.766724,252.995255 
	C366.663300,251.939346 338.303467,258.568817 311.511017,272.230316 
	C290.841370,282.769775 273.716370,297.545990 259.255432,315.561005 
	C258.555054,316.433472 257.591858,317.094971 256.425781,317.925201 
	C234.148178,288.430725 204.884201,269.695129 169.722153,259.715179 
	C168.133636,259.264313 166.468536,259.083344 164.181152,258.492157 
	C162.474472,257.799194 161.458710,257.203827 160.371780,257.012207 
	C152.629959,255.647308 144.873611,254.364868 137.030884,252.629211 
	C136.281998,246.456009 135.624100,240.709778 135.374619,234.812256 
	C151.289383,238.086914 166.536560,237.471146 181.455200,231.732132 
z"/>
<path fill="#05988A" opacity="1.000000" stroke="none" 
	d="
M134.966217,234.963531 
	C135.624100,240.709778 136.281998,246.456009 136.954102,253.083633 
	C136.871506,258.626129 136.774689,263.287231 136.677856,267.948364 
	C135.824585,272.471527 135.095245,277.022461 134.087952,281.511078 
	C132.701645,287.688568 129.346512,290.548828 124.900208,289.649780 
	C120.246277,288.708740 118.467056,285.300171 119.260048,278.351044 
	C120.152893,269.902740 121.022926,261.904236 121.865311,253.038544 
	C121.545876,249.712845 121.378807,247.231949 120.942078,244.799454 
	C118.135780,229.169144 111.107437,216.228302 97.133507,207.765991 
	C92.162369,205.218414 87.299286,202.423920 82.191437,200.188751 
	C76.429749,197.667465 74.149956,194.284973 75.912956,189.722870 
	C77.623878,185.295532 81.793823,183.949326 87.593460,186.157654 
	C91.143318,187.509354 94.591454,189.128220 98.398193,190.692749 
	C108.945778,196.308517 117.456680,203.878036 125.021767,213.486237 
	C125.702232,214.280685 126.055923,214.527298 126.409622,214.773911 
	C126.409622,214.773911 126.317703,214.587784 126.332428,214.922852 
	C128.934052,221.559418 131.520935,227.860901 134.145172,234.465424 
	C134.462769,234.867172 134.743011,234.965927 135.033844,235.025360 
	C135.044434,234.986069 134.966217,234.963531 134.966217,234.963531 
z"/>
<path fill="#FCB30C" opacity="1.000000" stroke="none" 
	d="
M149.451202,430.210938 
	C144.596466,441.000397 133.484634,445.953552 123.858307,441.924713 
	C113.349861,437.526672 108.274506,426.350494 112.137390,416.114624 
	C115.941948,406.033325 127.118881,400.827026 137.437454,404.371490 
	C146.477631,407.476837 154.289658,419.296021 149.451202,430.210938 
z"/>
<path fill="#FCB30C" opacity="1.000000" stroke="none" 
	d="
M248.384583,379.270142 
	C256.978943,384.274567 259.759888,390.980469 256.658875,398.475281 
	C253.922760,405.088226 246.339676,409.186829 239.656906,407.664764 
	C231.112030,405.718597 226.188034,397.502594 228.488815,389.030121 
	C230.863373,380.285980 238.621719,376.355103 248.384583,379.270142 
z"/>
<path fill="#FCB30C" opacity="1.000000" stroke="none" 
	d="
M105.538528,354.379517 
	C113.527969,363.310303 111.923630,374.571228 102.324493,379.285797 
	C96.566040,382.113983 88.956718,380.596588 84.574997,375.746307 
	C80.228706,370.935242 79.781921,362.689453 83.569664,357.192017 
	C87.207680,351.911896 94.624458,349.565338 100.860100,351.846588 
	C102.395363,352.408234 103.780846,353.379272 105.538528,354.379517 
z"/>
<path fill="#FCB30D" opacity="1.000000" stroke="none" 
	d="
M137.035675,267.831390 
	C136.774689,263.287231 136.871506,258.626129 137.045105,253.510590 
	C144.873611,254.364868 152.629959,255.647308 160.371780,257.012207 
	C161.458710,257.203827 162.474472,257.799194 163.763855,258.459045 
	C155.134171,261.711731 146.263840,264.713074 137.035675,267.831390 
z"/>
<path fill="#FA9304" opacity="1.000000" stroke="none" 
	d="
M97.091782,208.246674 
	C111.107437,216.228302 118.135780,229.169144 120.942078,244.799454 
	C121.378807,247.231949 121.545876,249.712845 121.778214,252.584106 
	C116.164268,253.003067 110.609756,253.009293 104.600052,253.016144 
	C98.792686,238.732162 96.389343,223.975189 97.091782,208.246674 
z"/>
<path fill="#05988A" opacity="1.000000" stroke="none" 
	d="
M396.835205,253.417450 
	C397.354980,242.591568 394.856018,232.825012 390.386719,223.182495 
	C384.932526,215.721466 380.089813,208.209427 374.455963,201.346878 
	C370.561646,196.603210 369.363434,192.587265 372.628967,189.162521 
	C375.866486,185.767120 380.409729,186.171860 384.910797,190.372803 
	C394.820648,199.621750 401.991608,210.714508 407.108368,224.009583 
	C408.865570,231.586578 410.422974,238.459763 411.980377,245.332947 
	C411.980621,247.930191 411.980896,250.527435 411.959656,253.983093 
	C411.313995,260.232025 410.689911,265.622559 410.065826,271.013092 
	C409.484924,272.901520 408.893219,274.786743 408.325012,276.678955 
	C406.081635,284.150085 401.307953,285.715210 394.675598,280.852539 
	C394.277130,277.761230 393.805817,274.828491 394.134735,271.988434 
	C394.838257,265.913422 395.955750,259.886353 396.835205,253.417450 
z"/>
<path fill="#FCB30C" opacity="1.000000" stroke="none" 
	d="
M364.896301,399.878845 
	C361.027405,390.958008 363.724457,383.384583 371.849884,379.529816 
	C379.177979,376.053314 387.289124,378.751434 390.992401,385.897369 
	C394.971008,393.574615 392.720459,401.863770 385.606720,405.734161 
	C377.564850,410.109436 369.784119,408.021820 364.896301,399.878845 
z"/>
<path fill="#FCB30C" opacity="1.000000" stroke="none" 
	d="
M478.929260,322.587952 
	C474.897156,333.964478 458.443237,335.731873 452.180542,325.382416 
	C448.665985,319.574371 449.261383,312.398773 454.000305,307.461060 
	C458.819611,302.439636 466.285156,301.298157 472.325989,304.659058 
	C478.468445,308.076477 481.026520,314.751770 478.929260,322.587952 
z"/>
<path fill="#FAB20E" opacity="1.000000" stroke="none" 
	d="
M410.415771,270.938354 
	C410.689911,265.622559 411.313995,260.232025 412.029572,254.415649 
	C421.163483,255.639908 430.205933,257.290009 439.615417,259.083191 
	C430.243530,263.105347 420.504639,266.984467 410.415771,270.938354 
z"/>
<path fill="#F49208" opacity="1.000000" stroke="none" 
	d="
M412.220215,245.015564 
	C410.422974,238.459763 408.865570,231.586578 407.273285,224.339813 
	C409.882263,223.982178 412.526123,223.998108 415.617493,224.020889 
	C414.863373,230.917877 413.661713,237.808029 412.220215,245.015564 
z"/>
<path fill="#FC9302" opacity="1.000000" stroke="none" 
	d="
M248.274277,187.204803 
	C238.864670,196.391907 226.725220,196.550278 218.360947,187.856125 
	C210.449783,179.632950 211.308411,167.489212 220.394699,159.091858 
	C227.160110,152.839417 238.155945,152.599686 245.042938,158.554489 
	C254.302094,166.560394 255.549866,176.725220 248.274277,187.204803 
z"/>
<path fill="#056F64" opacity="1.000000" stroke="none" 
	d="
M134.107819,234.162384 
	C131.520935,227.860901 128.934052,221.559418 126.427444,214.881073 
	C142.685593,223.375763 159.313568,224.088425 176.683090,217.072556 
	C181.123917,216.702087 184.612289,217.891006 185.877167,222.156311 
	C187.029892,226.043442 185.595795,229.197281 181.706940,231.468994 
	C166.536560,237.471146 151.289383,238.086914 135.374619,234.812256 
	C134.966217,234.963531 135.044434,234.986069 135.126419,234.744629 
	C134.841553,234.389587 134.474686,234.275986 134.107819,234.162384 
z"/>
<path fill="#FC9302" opacity="1.000000" stroke="none" 
	d="
M248.314026,226.180283 
	C247.719162,221.053879 247.868546,216.584976 251.574982,212.836380 
	C257.229065,207.117950 262.824188,205.677124 268.992554,208.724686 
	C274.879395,211.633163 278.678650,218.028793 277.828613,223.599152 
	C276.768921,230.543289 271.999817,235.959244 266.114166,236.902496 
	C258.411621,238.136887 252.546051,235.072937 248.998947,227.952805 
	C248.777527,227.508362 248.615540,227.034302 248.314026,226.180283 
z"/>
<path fill="#FC9302" opacity="1.000000" stroke="none" 
	d="
M345.620514,145.306595 
	C353.148315,143.047668 359.213501,145.114563 363.378937,151.095428 
	C367.144440,156.502060 366.697418,163.374481 362.205658,169.131927 
	C358.916168,173.348328 351.224060,175.317322 345.805603,173.329971 
	C339.457916,171.001816 335.527771,165.056808 336.049805,158.132614 
	C336.505035,152.094070 340.196442,148.231293 345.620514,145.306595 
z"/>
<path fill="#056F64" opacity="1.000000" stroke="none" 
	d="
M126.292908,214.459167 
	C126.055923,214.527298 125.702232,214.280685 125.192986,213.744446 
	C125.417023,213.684677 125.796600,213.914566 126.292908,214.459167 
z"/>
<path fill="#FC9302" opacity="1.000000" stroke="none" 
	d="
M134.145172,234.465408 
	C134.474686,234.275986 134.841553,234.389587 135.115845,234.783936 
	C134.743011,234.965927 134.462769,234.867172 134.145172,234.465408 
z"/>
</svg>