<svg version="1.1" id="Layer_1" xmlns="http://www.w3.org/2000/svg" xmlns:xlink="http://www.w3.org/1999/xlink" x="0px" y="0px"
	 width="100%" viewBox="0 0 512 512" enable-background="new 0 0 512 512" xml:space="preserve">
<path fill="#B34068" opacity="1.000000" stroke="none" 
	d="
M513.000000,235.000000 
	C513.000000,249.354233 513.000000,263.708466 512.623047,278.733154 
	C511.131592,288.673889 510.704559,298.090088 508.773315,307.187012 
	C503.030396,334.238739 493.951874,360.096100 480.022980,384.175598 
	C464.589447,410.856140 445.483276,434.281891 421.667206,454.003845 
	C402.254120,470.079681 381.156342,483.179657 357.994629,492.972687 
	C336.446106,502.083679 314.183105,508.635529 290.808197,511.050201 
	C286.847260,511.459381 282.934845,512.338135 279.000000,513.000000 
	C264.645782,513.000000 250.291550,513.000000 235.269897,512.624878 
	C228.289825,511.501709 221.860107,511.277527 215.688599,509.898071 
	C202.355499,506.917908 189.154861,503.345154 176.352097,499.970398 
	C199.892792,502.352997 222.672974,500.882721 244.877594,493.852173 
	C289.948090,479.581665 323.317230,451.371582 345.029510,409.326813 
	C355.239532,389.555695 359.669983,368.067322 363.957458,346.556458 
	C369.467834,318.910309 379.631348,293.400482 396.990265,270.943329 
	C408.411865,256.167206 422.571533,244.414230 437.262207,233.113617 
	C453.023865,220.989166 464.427490,205.409210 472.148468,187.080841 
	C479.466278,169.709671 481.683105,151.540283 481.330933,133.027725 
	C484.726532,139.285217 487.975494,145.313522 490.836212,151.520721 
	C501.349518,174.332458 508.183289,198.196793 511.043518,223.183517 
	C511.497009,227.145081 512.338135,231.062286 513.000000,235.000000 
z"/>
<path fill="#B34068" opacity="1.000000" stroke="none" 
	d="
M234.000000,1.000000 
	C248.687561,1.000000 263.375122,1.000000 278.733124,1.376862 
	C301.197876,3.166417 322.278046,7.963086 342.562744,15.395700 
	C318.751068,18.102200 297.349152,26.063776 278.011444,39.782383 
	C221.879822,79.603470 165.662613,119.303955 109.477386,159.049515 
	C93.732674,170.187363 79.464249,182.959671 67.859779,198.398453 
	C25.000040,255.419754 15.090714,317.819824 37.802986,385.432373 
	C38.413231,387.249023 38.569744,389.218079 38.623669,390.958954 
	C29.473167,376.678772 22.181093,361.828857 16.516291,346.131897 
	C9.913523,327.835876 4.867318,309.217407 2.942587,289.806213 
	C2.582595,286.175629 1.661927,282.600647 1.000000,279.000000 
	C1.000000,264.645782 1.000000,250.291550 1.376855,235.266876 
	C2.183438,229.511627 2.203221,224.351822 3.117053,219.355545 
	C6.307826,201.910278 10.075494,184.613770 16.457232,167.961624 
	C22.541500,152.085693 29.478909,136.604111 38.988281,122.529648 
	C47.114777,110.501907 55.989136,98.946487 65.029785,87.577415 
	C77.214554,72.254456 92.239372,59.922302 108.004631,48.452885 
	C123.928459,36.868095 141.124237,27.575052 159.244705,19.974524 
	C177.468491,12.330662 196.314667,6.828185 215.906769,3.972446 
	C221.953796,3.091033 227.969788,1.996792 234.000000,1.000000 
z"/>
<path fill="#FFFFFF" opacity="1.000000" stroke="none" 
	d="
M233.531342,1.000000 
	C227.969788,1.996792 221.953796,3.091033 215.906769,3.972446 
	C196.314667,6.828185 177.468491,12.330662 159.244705,19.974524 
	C141.124237,27.575052 123.928459,36.868095 108.004631,48.452885 
	C92.239372,59.922302 77.214554,72.254456 65.029785,87.577415 
	C55.989136,98.946487 47.114777,110.501907 38.988281,122.529648 
	C29.478909,136.604111 22.541500,152.085693 16.457232,167.961624 
	C10.075494,184.613770 6.307826,201.910278 3.117053,219.355545 
	C2.203221,224.351822 2.183438,229.511627 1.376855,234.798218 
	C1.000000,157.073105 1.000000,79.146217 1.000000,1.000000 
	C78.354088,1.000000 155.708389,1.000000 233.531342,1.000000 
z"/>
<path fill="#FFFFFF" opacity="1.000000" stroke="none" 
	d="
M1.000000,279.468658 
	C1.661927,282.600647 2.582595,286.175629 2.942587,289.806213 
	C4.867318,309.217407 9.913523,327.835876 16.516291,346.131897 
	C22.181093,361.828857 29.473167,376.678772 38.644875,390.916260 
	C38.980255,391.030640 38.893990,390.990509 38.943291,391.310028 
	C39.321217,392.116608 39.649845,392.603699 39.991734,393.041809 
	C40.004997,392.992859 39.907089,392.966217 39.961720,393.297668 
	C40.346474,394.156891 40.676594,394.684723 41.120804,395.526520 
	C47.147476,403.656586 53.060066,411.472626 59.015160,419.619232 
	C61.322689,422.786926 63.416702,425.782745 65.879112,428.436768 
	C91.477486,456.027008 121.046776,478.134277 155.821716,492.895050 
	C162.346298,495.664551 169.198853,497.661377 175.900040,500.014832 
	C189.154861,503.345154 202.355499,506.917908 215.688599,509.898071 
	C221.860107,511.277527 228.289825,511.501709 234.801239,512.624878 
	C157.072968,513.000000 79.145927,513.000000 1.000000,513.000000 
	C1.000000,435.312561 1.000000,357.624939 1.000000,279.468658 
z"/>
<path fill="#FFFFFF" opacity="1.000000" stroke="none" 
	d="
M279.468658,513.000000 
	C282.934845,512.338135 286.847260,511.459381 290.808197,511.050201 
	C314.183105,508.635529 336.446106,502.083679 357.994629,492.972687 
	C381.156342,483.179657 402.254120,470.079681 421.667206,454.003845 
	C445.483276,434.281891 464.589447,410.856140 480.022980,384.175598 
	C493.951874,360.096100 503.030396,334.238739 508.773315,307.187012 
	C510.704559,298.090088 511.131592,288.673889 512.623047,279.201782 
	C513.000000,356.927032 513.000000,434.854095 513.000000,513.000000 
	C435.312561,513.000000 357.624939,513.000000 279.468658,513.000000 
z"/>
<path fill="#FFFFFF" opacity="1.000000" stroke="none" 
	d="
M342.855164,15.143746 
	C322.278046,7.963086 301.197876,3.166417 279.201782,1.376862 
	C356.927032,1.000000 434.854095,1.000000 513.000000,1.000000 
	C513.000000,78.687424 513.000000,156.375061 513.000000,234.531342 
	C512.338135,231.062286 511.497009,227.145081 511.043518,223.183517 
	C508.183289,198.196793 501.349518,174.332458 490.836212,151.520721 
	C487.975494,145.313522 484.726532,139.285217 481.356628,132.607178 
	C480.713287,129.421844 480.489532,126.781670 480.004944,124.190254 
	C477.278900,109.611984 473.183502,95.522995 464.847565,82.693405 
	C464.492157,82.164948 464.242065,81.892342 463.923645,81.474548 
	C463.723541,81.149399 463.550323,81.029228 463.189880,80.639740 
	C454.014893,65.467262 443.453918,51.881294 429.511017,41.327709 
	C403.893799,21.937654 374.922211,13.342001 342.855164,15.143746 
z"/>
<path fill="#FCCEC8" opacity="1.000000" stroke="none" 
	d="
M464.952881,82.949242 
	C473.183502,95.522995 477.278900,109.611984 480.004944,124.190254 
	C480.489532,126.781670 480.713287,129.421844 481.031799,132.460083 
	C481.683105,151.540283 479.466278,169.709671 472.148468,187.080841 
	C464.427490,205.409210 453.023865,220.989166 437.262207,233.113617 
	C422.571533,244.414230 408.411865,256.167206 396.990265,270.943329 
	C379.631348,293.400482 369.467834,318.910309 363.957458,346.556458 
	C359.669983,368.067322 355.239532,389.555695 345.029510,409.326813 
	C323.317230,451.371582 289.948090,479.581665 244.877594,493.852173 
	C222.672974,500.882721 199.892792,502.352997 176.352097,499.970367 
	C169.198853,497.661377 162.346298,495.664551 155.821716,492.895050 
	C121.046776,478.134277 91.477486,456.027008 65.879112,428.436768 
	C63.416702,425.782745 61.322689,422.786926 58.997986,419.211914 
	C58.455967,416.714691 58.112949,414.902527 57.469704,413.204071 
	C51.175041,396.583038 47.341274,379.336914 46.203697,361.686066 
	C44.542820,335.915619 46.860523,310.430176 55.415546,285.864655 
	C58.130848,278.067719 61.882889,270.631836 65.200806,263.432434 
	C56.102089,292.016663 53.214943,320.665161 59.046448,349.908478 
	C62.980297,369.635590 69.679604,388.298126 81.128937,405.417664 
	C87.136749,415.228912 93.319000,424.471436 102.533142,431.609985 
	C108.077332,436.742462 113.215828,441.980957 119.069244,446.235962 
	C176.767593,488.179077 261.718262,475.047882 304.447693,417.915222 
	C317.240570,400.810181 325.724701,381.913696 330.065063,361.075439 
	C333.181366,346.114075 336.289703,331.151031 339.667023,315.982147 
	C340.839111,313.656219 341.889252,311.585785 342.630188,309.410004 
	C349.473724,289.313324 359.264099,270.792389 372.109955,253.884369 
	C375.481995,249.446030 378.782043,244.952972 382.451233,240.361206 
	C394.115723,230.527679 405.179993,220.487442 416.828064,211.177673 
	C440.457245,192.292007 452.043945,167.874878 450.634766,137.792587 
	C450.258362,129.757034 447.012756,121.855873 445.078186,113.511475 
	C440.833771,105.427689 436.595581,97.725449 432.262329,89.672729 
	C431.180115,87.788528 430.286346,86.184471 429.191956,84.731514 
	C410.122620,59.413963 384.696472,46.407814 353.307373,45.251297 
	C363.419434,44.650040 373.324829,43.450535 383.111511,44.084183 
	C411.909180,45.948723 436.441589,57.975571 457.700073,77.162575 
	C459.366364,78.666473 461.447327,79.710884 463.335571,80.968857 
	C463.550323,81.029228 463.723541,81.149399 464.066559,81.710777 
	C464.502838,82.377861 464.727844,82.663551 464.952881,82.949242 
z"/>
<path fill="#FAB1A8" opacity="1.000000" stroke="none" 
	d="
M65.160515,263.030731 
	C61.882889,270.631836 58.130848,278.067719 55.415546,285.864655 
	C46.860523,310.430176 44.542820,335.915619 46.203697,361.686066 
	C47.341274,379.336914 51.175041,396.583038 57.469704,413.204071 
	C58.112949,414.902527 58.455967,416.714691 58.955479,418.881409 
	C53.060066,411.472626 47.147476,403.656586 41.133743,395.181763 
	C40.657429,394.004089 40.282265,393.485138 39.907093,392.966217 
	C39.907089,392.966217 40.004997,392.992859 40.058796,392.698059 
	C39.706394,391.932373 39.300190,391.461426 38.893990,390.990509 
	C38.893990,390.990509 38.980255,391.030640 38.959053,391.073364 
	C38.569744,389.218079 38.413231,387.249023 37.802986,385.432373 
	C15.090714,317.819824 25.000040,255.419754 67.859779,198.398453 
	C79.464249,182.959671 93.732674,170.187363 109.477386,159.049515 
	C165.662613,119.303955 221.879822,79.603470 278.011444,39.782383 
	C297.349152,26.063776 318.751068,18.102200 342.562744,15.395700 
	C374.922211,13.342001 403.893799,21.937654 429.511017,41.327709 
	C443.453918,51.881294 454.014893,65.467262 463.189880,80.639740 
	C461.447327,79.710884 459.366364,78.666473 457.700073,77.162575 
	C436.441589,57.975571 411.909180,45.948723 383.111511,44.084183 
	C373.324829,43.450535 363.419434,44.650040 352.842072,45.313828 
	C343.918304,46.661896 335.559357,47.017513 327.554535,48.888264 
	C306.556274,53.795635 290.517059,67.653938 273.372253,80.079544 
	C267.707397,84.406487 262.341766,88.617676 256.611145,92.871780 
	C254.360977,93.922272 252.343262,94.742096 250.610123,95.965187 
	C217.551865,119.294525 184.518509,142.659225 151.525208,166.080292 
	C150.128265,167.071960 149.167465,168.678024 147.642975,170.033752 
	C139.301483,175.429062 131.142197,180.546539 123.411072,186.244934 
	C119.231529,189.325546 115.783279,193.398315 111.670433,197.129395 
	C109.672081,198.268890 107.645859,198.982605 106.404915,200.389130 
	C99.496094,208.219864 91.817596,215.602585 86.229889,224.311142 
	C78.745056,235.976440 72.929466,248.712769 66.171280,261.212250 
	C65.638504,261.977173 65.331581,262.519073 65.051201,263.020020 
	C65.077736,262.979095 65.160515,263.030731 65.160515,263.030731 
z"/>
<path fill="#B34068" opacity="1.000000" stroke="none" 
	d="
M38.943291,391.310028 
	C39.300190,391.461426 39.706394,391.932373 40.045532,392.747009 
	C39.649845,392.603699 39.321217,392.116608 38.943291,391.310028 
z"/>
<path fill="#B34068" opacity="1.000000" stroke="none" 
	d="
M39.961723,393.297668 
	C40.282265,393.485138 40.657429,394.004089 41.019653,394.867798 
	C40.676594,394.684723 40.346474,394.156891 39.961723,393.297668 
z"/>
<path fill="#FAB1A8" opacity="1.000000" stroke="none" 
	d="
M464.847595,82.693398 
	C464.727844,82.663551 464.502838,82.377861 464.134888,81.855957 
	C464.242065,81.892342 464.492157,82.164948 464.847595,82.693398 
z"/>
<path fill="#F56D59" opacity="1.000000" stroke="none" 
	d="
M339.401611,316.188751 
	C336.289703,331.151031 333.181366,346.114075 330.065063,361.075439 
	C325.724701,381.913696 317.240570,400.810181 304.447693,417.915222 
	C261.718262,475.047882 176.767593,488.179077 119.069244,446.235962 
	C113.215828,441.980957 108.077332,436.742462 102.681084,431.184021 
	C105.333641,412.094574 111.159119,394.741821 119.101089,378.160889 
	C142.555374,329.193878 174.004944,286.185638 215.627823,251.022583 
	C228.254578,240.355484 241.888260,231.075729 257.636871,225.373627 
	C280.834778,216.974442 299.274353,222.508896 314.012329,242.303864 
	C322.601318,253.839966 328.156006,266.859894 331.778839,280.603424 
	C334.867554,292.320831 336.901215,304.316284 339.401611,316.188751 
z"/>
<path fill="#F9A29B" opacity="1.000000" stroke="none" 
	d="
M339.666992,315.982147 
	C336.901215,304.316284 334.867554,292.320831 331.778839,280.603424 
	C328.156006,266.859894 322.601318,253.839966 314.012329,242.303864 
	C299.274353,222.508896 280.834778,216.974442 257.636871,225.373627 
	C241.888260,231.075729 228.254578,240.355484 215.627823,251.022583 
	C174.004944,286.185638 142.555374,329.193878 119.101089,378.160889 
	C111.159119,394.741821 105.333641,412.094574 102.607162,430.833679 
	C93.319000,424.471436 87.136749,415.228912 81.314789,405.119690 
	C83.526993,399.666931 86.034798,394.938416 87.803284,389.947876 
	C94.362740,371.437744 100.032806,352.586609 107.230240,334.334137 
	C119.464699,303.307922 138.522522,277.277252 166.349091,258.154694 
	C171.268814,254.773834 176.062057,251.070084 180.337311,246.921463 
	C187.451294,240.018158 188.209702,231.854218 182.106339,224.050034 
	C178.587418,219.550507 174.173477,215.435791 169.412216,212.279465 
	C152.068253,200.781799 132.705948,196.225067 112.005142,197.023499 
	C115.783279,193.398315 119.231529,189.325546 123.411072,186.244934 
	C131.142197,180.546539 139.301483,175.429062 147.913788,170.225769 
	C154.333862,178.079788 161.561096,184.137634 170.001953,188.678482 
	C193.368240,201.248642 218.457214,205.880875 244.700104,203.548630 
	C260.636505,202.132339 275.602570,197.167953 288.540649,187.266861 
	C292.093323,184.548111 295.485046,181.619034 299.285339,178.915070 
	C304.347626,181.099014 309.075226,183.154358 314.164246,185.403824 
	C317.045288,185.774857 319.564880,185.951767 321.972046,186.489349 
	C319.390778,193.851196 317.833740,200.990112 320.084320,208.315125 
	C325.774353,226.834854 338.850616,237.466675 357.422302,240.674179 
	C365.404297,242.052780 373.869507,240.633286 382.115173,240.485046 
	C378.782043,244.952972 375.481995,249.446030 372.109955,253.884369 
	C359.264099,270.792389 349.473724,289.313324 342.630188,309.410004 
	C341.889252,311.585785 340.839111,313.656219 339.666992,315.982147 
z"/>
<path fill="#F56D59" opacity="1.000000" stroke="none" 
	d="
M111.670441,197.129410 
	C132.705948,196.225067 152.068253,200.781799 169.412216,212.279465 
	C174.173477,215.435791 178.587418,219.550507 182.106339,224.050034 
	C188.209702,231.854218 187.451294,240.018158 180.337311,246.921463 
	C176.062057,251.070084 171.268814,254.773834 166.349091,258.154694 
	C138.522522,277.277252 119.464699,303.307922 107.230240,334.334137 
	C100.032806,352.586609 94.362740,371.437744 87.803284,389.947876 
	C86.034798,394.938416 83.526993,399.666931 81.172684,404.813660 
	C69.679604,388.298126 62.980297,369.635590 59.046448,349.908478 
	C53.214943,320.665161 56.102089,292.016663 65.200806,263.432434 
	C65.160515,263.030731 65.077736,262.979095 65.347107,262.880890 
	C65.876701,262.184875 66.136925,261.587036 66.397156,260.989227 
	C72.929466,248.712769 78.745056,235.976440 86.229889,224.311142 
	C91.817596,215.602585 99.496094,208.219864 106.404915,200.389130 
	C107.645859,198.982605 109.672081,198.268890 111.670441,197.129410 
z"/>
<path fill="#F56D59" opacity="1.000000" stroke="none" 
	d="
M382.451233,240.361206 
	C373.869507,240.633286 365.404297,242.052780 357.422302,240.674179 
	C338.850616,237.466675 325.774353,226.834854 320.084320,208.315125 
	C317.833740,200.990112 319.390778,193.851196 322.390533,186.440170 
	C347.122345,184.544739 382.296844,160.433777 384.632599,130.093796 
	C387.238708,128.996109 389.494934,127.943497 391.735931,126.859459 
	C408.588562,118.707443 425.419708,110.473190 445.084412,113.893013 
	C447.012756,121.855873 450.258362,129.757034 450.634766,137.792587 
	C452.043945,167.874878 440.457245,192.292007 416.828064,211.177673 
	C405.179993,220.487442 394.115723,230.527679 382.451233,240.361206 
z"/>
<path fill="#F56D59" opacity="1.000000" stroke="none" 
	d="
M273.671448,79.963783 
	C290.517059,67.653938 306.556274,53.795635 327.554535,48.888264 
	C335.559357,47.017513 343.918304,46.661896 352.581177,45.553238 
	C384.696472,46.407814 410.122620,59.413963 429.191956,84.731514 
	C430.286346,86.184471 431.180115,87.788528 431.950012,89.834549 
	C424.319550,97.794540 415.624054,103.381607 405.482300,105.916077 
	C394.422943,108.679848 383.110260,110.429726 371.497681,112.480957 
	C362.737305,109.819603 354.357117,110.564598 345.568237,112.024063 
	C337.374451,110.287560 329.417511,109.178200 321.822296,106.875710 
	C303.868835,101.433113 286.831635,94.097771 273.671448,79.963783 
z"/>
<path fill="#F9A29A" opacity="1.000000" stroke="none" 
	d="
M371.907990,112.621567 
	C383.110260,110.429726 394.422943,108.679848 405.482300,105.916077 
	C415.624054,103.381607 424.319550,97.794540 432.045074,90.185013 
	C436.595581,97.725449 440.833771,105.427689 445.078186,113.511475 
	C425.419708,110.473190 408.588562,118.707443 391.735931,126.859459 
	C389.494934,127.943497 387.238708,128.996109 384.426941,129.931335 
	C383.614899,129.557877 383.365448,129.316360 383.105774,128.666626 
	C382.780060,120.603760 378.014252,116.133148 371.907990,112.621567 
z"/>
<path fill="#F56D59" opacity="1.000000" stroke="none" 
	d="
M298.950623,178.786469 
	C295.485046,181.619034 292.093323,184.548111 288.540649,187.266861 
	C275.602570,197.167953 260.636505,202.132339 244.700104,203.548630 
	C218.457214,205.880875 193.368240,201.248642 170.001953,188.678482 
	C161.561096,184.137634 154.333862,178.079788 148.274323,170.189911 
	C149.167465,168.678024 150.128265,167.071960 151.525208,166.080292 
	C184.518509,142.659225 217.551865,119.294525 250.610123,95.965187 
	C252.343262,94.742096 254.360977,93.922272 256.937195,93.061287 
	C270.121552,96.913795 282.142181,101.676895 292.558411,109.715996 
	C300.627899,115.943901 308.102356,122.745811 311.112000,133.206757 
	C299.247467,146.567596 289.952972,160.267242 298.950623,178.786469 
z"/>
<path fill="#F9A19A" opacity="1.000000" stroke="none" 
	d="
M311.337555,132.927811 
	C308.102356,122.745811 300.627899,115.943901 292.558411,109.715996 
	C282.142181,101.676895 270.121552,96.913795 257.302124,93.018372 
	C262.341766,88.617676 267.707397,84.406487 273.372253,80.079544 
	C286.831635,94.097771 303.868835,101.433113 321.822296,106.875710 
	C329.417511,109.178200 337.374451,110.287560 345.261780,112.199272 
	C332.330414,116.479195 321.064911,123.425262 311.337555,132.927811 
z"/>
<path fill="#FCCEC8" opacity="1.000000" stroke="none" 
	d="
M66.171288,261.212250 
	C66.136925,261.587036 65.876701,262.184875 65.320572,262.921814 
	C65.331581,262.519073 65.638504,261.977173 66.171288,261.212250 
z"/>
<path fill="#F8DF92" opacity="1.000000" stroke="none" 
	d="
M311.112000,133.206757 
	C321.064911,123.425262 332.330414,116.479195 345.663055,112.284103 
	C354.357117,110.564598 362.737305,109.819603 371.497681,112.480957 
	C378.014252,116.133148 382.780060,120.603760 382.632599,128.668976 
	C380.007233,129.078964 377.823059,128.879150 375.686188,129.112625 
	C366.876038,130.075272 358.764374,131.434265 352.932007,139.969574 
	C346.593170,149.246140 337.227081,155.857285 326.893829,160.368240 
	C320.916748,162.977539 317.568695,167.166397 315.966278,172.992065 
	C314.874115,176.962555 314.498718,181.130203 313.802856,185.209702 
	C309.075226,183.154358 304.347626,181.099014 299.285339,178.915070 
	C289.952972,160.267242 299.247467,146.567596 311.112000,133.206757 
z"/>
<path fill="#FBF0D0" opacity="1.000000" stroke="none" 
	d="
M314.164276,185.403824 
	C314.498718,181.130203 314.874115,176.962555 315.966278,172.992065 
	C317.568695,167.166397 320.916748,162.977539 326.893829,160.368240 
	C337.227081,155.857285 346.593170,149.246140 352.932007,139.969574 
	C358.764374,131.434265 366.876038,130.075272 375.686188,129.112625 
	C377.823059,128.879150 380.007233,129.078964 382.642822,129.077194 
	C383.365448,129.316360 383.614899,129.557877 384.070007,129.961868 
	C382.296844,160.433777 347.122345,184.544739 322.502991,186.079498 
	C319.564880,185.951767 317.045288,185.774857 314.164276,185.403824 
z"/>
</svg>