<svg version="1.1" id="Layer_1" xmlns="http://www.w3.org/2000/svg" xmlns:xlink="http://www.w3.org/1999/xlink" x="0px" y="0px"
	 width="100%" viewBox="0 0 368 356" enable-background="new 0 0 368 356" xml:space="preserve">
<path fill="#000000" opacity="1.000000" stroke="none" 
	d="
M225.000000,357.000000 
	C150.025726,357.000000 75.551437,357.000000 1.038579,357.000000 
	C1.038579,238.400024 1.038579,119.800049 1.038579,1.100030 
	C123.557556,1.100030 246.115219,1.100030 368.836426,1.100030 
	C368.836426,119.666481 368.836426,238.333221 368.836426,357.000000 
	C321.133453,357.000000 273.316742,357.000000 225.000000,357.000000 
M336.050903,182.869125 
	C336.332672,181.091385 336.959473,179.289169 336.835327,177.540237 
	C336.345978,170.645569 335.630981,163.766663 334.980988,156.883682 
	C333.627960,142.555283 329.619720,128.869354 323.762665,115.851288 
	C314.633392,95.560364 302.193634,77.609261 285.301666,62.745350 
	C270.565948,49.778843 254.205750,39.833855 235.883453,32.981842 
	C216.945526,25.899609 197.382355,22.828926 177.198181,24.058168 
	C169.147034,24.548494 160.935333,24.562311 153.111557,26.251354 
	C119.864700,33.428879 91.342186,48.986053 68.614357,74.792465 
	C57.786617,87.086876 48.895409,100.431335 42.258785,115.397369 
	C29.996553,143.049545 26.551483,171.889740 31.208157,201.562057 
	C34.031601,219.553085 40.095856,236.612808 49.196720,252.568863 
	C61.509727,274.156616 77.714340,292.242188 98.575989,305.547302 
	C127.115105,323.748962 158.358246,332.551788 192.572586,330.127899 
	C206.810654,329.119202 220.525894,326.457245 233.981125,321.889008 
	C255.394547,314.618896 273.993469,302.694794 290.102875,287.077026 
	C304.126465,273.481476 315.316284,257.746857 323.097504,239.632492 
	C330.776733,221.755707 335.767029,203.354813 336.050903,182.869125 
z"/>
<path fill="#6D7AE7" opacity="1.000000" stroke="none" 
	d="
M336.017395,183.335815 
	C335.767029,203.354813 330.776733,221.755707 323.097504,239.632492 
	C315.316284,257.746857 304.126465,273.481476 290.102875,287.077026 
	C273.993469,302.694794 255.394547,314.618896 233.981125,321.889008 
	C220.525894,326.457245 206.810654,329.119202 192.572586,330.127899 
	C158.358246,332.551788 127.115105,323.748962 98.575989,305.547302 
	C77.714340,292.242188 61.509727,274.156616 49.196720,252.568863 
	C40.095856,236.612808 34.031601,219.553085 31.208157,201.562057 
	C26.551483,171.889740 29.996553,143.049545 42.258785,115.397369 
	C48.895409,100.431335 57.786617,87.086876 68.614357,74.792465 
	C91.342186,48.986053 119.864700,33.428879 153.111557,26.251354 
	C160.935333,24.562311 169.147034,24.548494 177.198181,24.058168 
	C197.382355,22.828926 216.945526,25.899609 235.883453,32.981842 
	C254.205750,39.833855 270.565948,49.778843 285.301666,62.745350 
	C302.193634,77.609261 314.633392,95.560364 323.762665,115.851288 
	C329.619720,128.869354 333.627960,142.555283 334.980988,156.883682 
	C335.630981,163.766663 336.345978,170.645569 336.835327,177.540237 
	C336.959473,179.289169 336.332672,181.091385 336.017395,183.335815 
M134.361053,285.344788 
	C134.694504,285.408813 135.027954,285.472839 135.729202,285.694763 
	C135.729202,285.694763 136.073410,285.899078 136.314682,286.325806 
	C136.549866,286.583374 136.841858,286.713165 137.220963,286.862366 
	C137.220963,286.862366 137.224121,286.711700 137.610245,287.289001 
	C140.050034,288.226715 142.489822,289.164429 145.531647,290.507324 
	C146.720520,290.682404 147.909393,290.857513 149.450165,291.081787 
	C149.450165,291.081787 149.800537,291.140869 150.357819,291.479492 
	C150.992355,291.517639 151.626892,291.555786 152.689453,291.671143 
	C152.689453,291.671143 153.107971,291.789612 153.622162,292.355225 
	C160.915375,294.527802 168.106323,295.064972 175.000397,291.000000 
	C175.000397,291.000000 175.004990,291.019012 175.707092,291.139496 
	C176.697647,290.635956 177.688187,290.132446 178.784576,289.571533 
	C178.784576,289.571533 178.903259,289.591675 179.725952,289.802155 
	C180.566437,289.721466 181.406921,289.640747 182.684189,289.696533 
	C182.684189,289.696533 183.104111,289.878387 183.462051,290.508087 
	C187.747620,291.589905 192.006485,293.389282 196.326340,293.550049 
	C200.575394,293.708130 204.886307,292.203766 209.731430,291.331787 
	C210.108612,291.286743 210.485794,291.241730 211.490875,291.466431 
	C214.650055,290.269043 217.809235,289.071625 221.280701,287.720825 
	C221.280701,287.720825 221.610046,287.608551 222.147278,287.605499 
	C222.442505,287.417786 222.737717,287.230072 223.010986,287.016266 
	C223.010986,287.016266 223.040329,287.051117 223.691345,287.114716 
	C224.449799,286.730591 225.208237,286.346497 226.422226,285.782623 
	C226.716049,285.636749 226.992050,285.462646 227.797134,285.119415 
	C228.210495,284.754608 228.623871,284.389801 229.602798,283.734833 
	C230.786179,282.881683 231.969559,282.028534 233.809723,281.101654 
	C234.616638,280.434540 235.423538,279.767426 236.488571,278.947693 
	C236.488571,278.947693 236.729095,278.768555 237.413605,278.630035 
	C240.064301,276.658173 242.953674,274.936676 245.327209,272.674103 
	C261.563812,257.196350 272.482422,238.384140 278.846802,217.025543 
	C281.664368,207.569824 284.811737,197.976944 283.333374,187.274704 
	C283.350494,186.937210 283.367615,186.599731 283.903168,185.730560 
	C283.731842,181.725235 283.560486,177.719894 283.375275,173.220016 
	C283.362671,172.891113 283.342163,172.562683 283.587402,171.458527 
	C283.078400,150.112457 275.625732,131.726028 258.838287,118.237602 
	C254.007675,114.356270 246.943527,113.254715 240.175964,110.800011 
	C239.196274,110.742241 238.216599,110.684471 236.742920,110.102402 
	C228.135590,108.678383 220.112122,110.548744 212.260712,114.459106 
	C212.260712,114.459106 212.080429,114.510201 211.505753,114.356407 
	C210.950577,114.544159 210.395416,114.731918 209.488907,114.975883 
	C209.488907,114.975883 209.148163,115.078255 208.284332,114.987366 
	C201.049774,116.081696 193.815216,117.176025 186.772736,117.526817 
	C191.258163,106.246796 200.988129,101.366508 211.447662,97.492714 
	C217.436539,95.274681 221.417862,91.484505 221.846237,84.915436 
	C222.213776,79.279167 219.626846,74.916687 214.806320,72.100143 
	C209.209457,68.830009 203.912811,70.245850 199.004730,73.815910 
	C195.255264,76.543205 191.616486,79.422684 187.602386,81.611084 
	C181.231430,68.311127 171.413406,58.890526 156.302063,57.742535 
	C147.168808,57.048695 137.807999,58.423027 128.635956,59.563747 
	C124.141518,60.122715 122.706711,63.636627 123.756638,68.261055 
	C124.234505,70.365814 124.598175,72.497398 125.108475,74.593735 
	C128.205719,87.317368 133.223679,98.996880 144.521851,106.633720 
	C152.673447,112.143684 162.068527,113.373558 171.735672,113.893898 
	C171.462692,115.531265 171.189728,117.168640 170.298462,118.894005 
	C160.438553,116.593559 150.577499,114.298065 140.719070,111.991302 
	C130.442932,109.586792 120.293175,109.203865 110.545082,114.092743 
	C91.003021,123.893501 82.700066,141.289795 78.877487,161.538651 
	C75.311584,180.427933 77.442024,199.022110 83.084854,217.189377 
	C90.544647,241.206329 102.919044,262.124237 123.369911,278.332672 
	C123.872375,278.601013 124.374847,278.869385 125.251793,279.385864 
	C125.493912,279.563141 125.721313,279.757660 126.211136,280.467499 
	C126.543648,280.638672 126.876160,280.809814 127.691772,281.166992 
	C128.027740,281.238434 128.363693,281.309906 128.730225,281.717468 
	C128.730225,281.717468 128.886932,282.016296 129.183258,282.525116 
	C129.537918,282.677826 129.892563,282.830536 130.723022,283.139191 
	C131.172623,283.353363 131.622223,283.567535 132.372803,284.322388 
	C132.922485,284.546692 133.472168,284.770996 133.996902,285.012726 
	C133.996902,285.012726 133.991577,284.982788 134.361053,285.344788 
z"/>
<path fill="#50C473" opacity="1.000000" stroke="none" 
	d="
M171.717987,113.040932 
	C162.068527,113.373558 152.673447,112.143684 144.521851,106.633720 
	C133.223679,98.996880 128.205719,87.317368 125.108475,74.593735 
	C124.598175,72.497398 124.234505,70.365814 123.756638,68.261055 
	C122.706711,63.636627 124.141518,60.122715 128.635956,59.563747 
	C137.807999,58.423027 147.168808,57.048695 156.302063,57.742535 
	C171.413406,58.890526 181.231430,68.311127 187.592270,82.181671 
	C179.682022,91.480362 173.605942,101.163849 171.717987,113.040932 
z"/>
<path fill="#33537E" opacity="1.000000" stroke="none" 
	d="
M171.726837,113.467415 
	C173.605942,101.163849 179.682022,91.480362 187.755310,82.493362 
	C191.616486,79.422684 195.255264,76.543205 199.004730,73.815910 
	C203.912811,70.245850 209.209457,68.830009 214.806320,72.100143 
	C219.626846,74.916687 222.213776,79.279167 221.846237,84.915436 
	C221.417862,91.484505 217.436539,95.274681 211.447662,97.492714 
	C200.988129,101.366508 191.258163,106.246796 186.563812,118.038040 
	C186.298920,118.903885 186.242920,119.258499 185.718918,119.698753 
	C180.472855,119.458267 175.694794,119.132133 170.916748,118.806007 
	C171.189728,117.168640 171.462692,115.531265 171.726837,113.467415 
z"/>
<path fill="#DFC46A" opacity="1.000000" stroke="none" 
	d="
M170.607605,118.850006 
	C175.694794,119.132133 180.472855,119.458267 186.104523,119.794670 
	C194.354813,118.229385 201.751480,116.653824 209.148163,115.078262 
	C209.148163,115.078255 209.488907,114.975883 209.957764,114.992676 
	C210.977905,114.843048 211.529175,114.676628 212.080429,114.510208 
	C212.080429,114.510201 212.260712,114.459106 212.603546,114.487183 
	C213.612366,114.713432 214.278351,114.911598 214.711914,115.310516 
	C213.647919,116.323509 212.816315,117.135750 211.575867,117.964569 
	C204.128922,119.143951 197.090805,120.306755 189.697937,121.458435 
	C189.109558,121.482895 188.875916,121.518486 188.505783,121.582298 
	C188.189880,121.689552 188.044067,121.809540 187.539856,121.911560 
	C186.091797,121.791336 185.035706,121.730026 183.609192,121.515488 
	C179.781235,121.299576 176.323700,121.236893 172.513702,121.143036 
	C171.455856,121.055817 170.750458,120.999779 169.759766,120.753235 
	C167.953888,120.661674 166.433319,120.760620 164.691284,120.875191 
	C164.469833,120.890816 164.025955,120.901184 163.739227,120.649902 
	C159.320953,119.976654 155.189392,119.554695 150.723297,119.065063 
	C149.934769,118.983154 149.480774,118.968925 149.048767,118.637627 
	C148.369370,117.521881 147.667969,116.723206 146.966583,115.924530 
	C145.911819,116.923363 144.857056,117.922188 143.603333,118.660263 
	C139.943649,116.583191 136.482925,114.766869 132.709412,112.679047 
	C124.721703,110.959641 117.650520,112.541214 111.198944,116.827538 
	C107.130028,119.530869 103.294510,122.594612 99.162735,125.191940 
	C93.962234,128.461105 91.485451,133.457611 89.537277,139.181244 
	C89.462601,139.411789 89.439827,139.897980 89.111908,139.962128 
	C86.874985,144.033966 84.965981,148.041641 82.985703,152.426605 
	C82.366646,154.369370 81.616867,155.895493 81.302956,157.506516 
	C78.739738,170.661514 78.080635,183.949844 80.247757,197.161819 
	C81.358543,203.933823 83.902122,210.470779 85.759720,217.465820 
	C87.178322,221.871902 88.635361,225.926102 90.135544,230.326691 
	C92.130035,234.776123 94.081390,238.879166 96.158401,243.298370 
	C99.506805,248.099838 102.729553,252.585190 106.027847,257.344727 
	C106.432610,258.078125 106.761826,258.537262 107.191628,259.220093 
	C107.459373,259.730682 107.669044,259.982117 108.013046,260.412170 
	C108.265816,260.900818 108.483635,261.118500 108.890961,261.442993 
	C109.219345,261.813965 109.446152,261.978333 109.857567,262.388092 
	C110.640533,263.263733 111.269943,263.851196 112.007767,264.740356 
	C115.300392,268.052002 118.484604,271.061890 121.847000,274.347656 
	C123.139633,275.622925 124.254089,276.622314 125.216141,277.775787 
	C125.063751,277.929871 124.758797,278.237854 124.487839,278.150238 
	C123.848244,277.976807 123.479599,277.890991 123.110954,277.805206 
	C102.919044,262.124237 90.544647,241.206329 83.084854,217.189377 
	C77.442024,199.022110 75.311584,180.427933 78.877487,161.538651 
	C82.700066,141.289795 91.003021,123.893501 110.545082,114.092743 
	C120.293175,109.203865 130.442932,109.586792 140.719070,111.991302 
	C150.577499,114.298065 160.438553,116.593559 170.607605,118.850006 
z"/>
<path fill="#A89694" opacity="1.000000" stroke="none" 
	d="
M283.293365,187.778137 
	C284.811737,197.976944 281.664368,207.569824 278.846802,217.025543 
	C272.482422,238.384140 261.563812,257.196350 245.327209,272.674103 
	C242.953674,274.936676 240.064301,276.658173 237.137344,278.392761 
	C236.958267,277.752014 237.055450,277.348480 237.385742,276.733337 
	C245.066452,268.185974 253.290939,260.402771 259.729797,251.349609 
	C265.464600,243.286346 269.223022,233.817413 274.143311,224.745178 
	C276.315887,217.696960 278.198761,210.872421 280.069031,204.039459 
	C280.056458,204.031036 280.066620,204.037094 280.269836,203.770630 
	C280.530853,202.622559 280.588654,201.740967 280.696899,200.532013 
	C280.798523,199.544800 280.849670,198.884949 281.149933,197.918884 
	C281.620392,196.088440 281.841705,194.564224 282.072174,193.078949 
	C282.081299,193.117905 282.155212,193.148468 282.342834,192.806213 
	C282.784790,190.902023 283.039093,189.340088 283.293365,187.778137 
z"/>
<path fill="#A89694" opacity="1.000000" stroke="none" 
	d="
M240.903427,110.878677 
	C246.943527,113.254715 254.007675,114.356270 258.838287,118.237602 
	C275.625732,131.726028 283.078400,150.112457 283.322052,171.483154 
	C282.691833,170.324051 282.326965,169.140320 281.713593,167.672165 
	C280.372681,162.336502 279.579254,157.197876 278.133301,152.249954 
	C273.276337,135.629700 264.801697,121.809715 247.828140,114.480347 
	C245.430450,113.075188 243.166946,111.976929 240.903427,110.878677 
z"/>
<path fill="#DFC46A" opacity="1.000000" stroke="none" 
	d="
M183.104111,289.878387 
	C183.104111,289.878387 182.684189,289.696533 182.208481,289.468994 
	C180.789597,289.358215 179.846436,289.474945 178.903259,289.591675 
	C178.903259,289.591675 178.784576,289.571533 178.397095,289.606750 
	C177.008072,290.101013 176.006531,290.559998 175.004990,291.019012 
	C175.004990,291.019012 175.000397,291.000000 174.575562,290.955505 
	C167.136490,291.203888 160.122223,291.496735 153.107971,291.789612 
	C153.107971,291.789612 152.689453,291.671143 152.196136,291.473602 
	C151.068710,291.231018 150.434631,291.185944 149.800537,291.140869 
	C149.800537,291.140869 149.450165,291.081787 149.230133,290.797791 
	C149.000168,290.338959 148.990250,290.164154 149.451141,289.974762 
	C158.774307,289.400970 167.620926,288.640625 176.481995,288.388916 
	C179.693405,288.297638 182.939377,289.422699 185.785309,290.015045 
	C184.635406,289.984344 183.869751,289.931366 183.104111,289.878387 
z"/>
<path fill="#A89694" opacity="1.000000" stroke="none" 
	d="
M214.944336,115.109756 
	C214.278351,114.911598 213.612366,114.713432 212.693878,114.462341 
	C220.112122,110.548744 228.135590,108.678383 236.524292,110.456909 
	C232.527069,111.489777 228.748505,112.168129 224.564163,112.887222 
	C221.087051,113.655228 218.015686,114.382492 214.944336,115.109756 
z"/>
<path fill="#98889B" opacity="1.000000" stroke="none" 
	d="
M183.283081,290.193237 
	C183.869751,289.931366 184.635406,289.984344 185.923370,290.062622 
	C186.445709,290.087921 186.725311,290.182922 187.061523,290.395691 
	C194.655167,290.881958 201.912613,291.155396 209.170059,291.428894 
	C204.886307,292.203766 200.575394,293.708130 196.326340,293.550049 
	C192.006485,293.389282 187.747620,291.589905 183.283081,290.193237 
z"/>
<path fill="#DFC46A" opacity="1.000000" stroke="none" 
	d="
M209.450745,291.380310 
	C201.912613,291.155396 194.655167,290.881958 187.552063,290.332581 
	C195.812759,290.039520 203.919098,290.022369 211.875641,290.241730 
	C211.438232,290.717743 211.150604,290.957214 210.862976,291.196686 
	C210.485794,291.241730 210.108612,291.286743 209.450745,291.380310 
z"/>
<path fill="#98889B" opacity="1.000000" stroke="none" 
	d="
M153.365067,292.072388 
	C160.122223,291.496735 167.136490,291.203888 174.580688,290.964478 
	C168.106323,295.064972 160.915375,294.527802 153.365067,292.072388 
z"/>
<path fill="#A89694" opacity="1.000000" stroke="none" 
	d="
M208.716248,115.032814 
	C201.751480,116.653824 194.354813,118.229385 186.572540,119.709030 
	C186.242920,119.258499 186.298920,118.903885 186.467773,118.409813 
	C193.815216,117.176025 201.049774,116.081696 208.716248,115.032814 
z"/>
<path fill="#E5C363" opacity="1.000000" stroke="none" 
	d="
M224.969925,112.846481 
	C228.748505,112.168129 232.527069,111.489777 236.771271,110.719063 
	C238.216599,110.684471 239.196274,110.742241 240.539703,110.839340 
	C243.166946,111.976929 245.430450,113.075188 247.451645,114.492653 
	C243.497482,113.902145 239.785645,112.992439 235.725342,112.045143 
	C234.910583,112.024208 234.444321,112.040848 233.557587,112.027885 
	C230.414719,112.281013 227.692322,112.563744 224.969925,112.846481 
z"/>
<path fill="#DFC46A" opacity="1.000000" stroke="none" 
	d="
M136.073410,285.899078 
	C136.073410,285.899078 135.729202,285.694763 135.352707,285.446350 
	C134.648010,285.126221 134.319794,285.054504 133.991577,284.982788 
	C133.991577,284.982788 133.996902,285.012726 133.830658,284.766235 
	C133.133545,284.273773 132.602676,284.027740 132.071808,283.781708 
	C131.622223,283.567535 131.172623,283.353363 130.308655,282.833313 
	C129.558517,282.357056 129.222717,282.186676 128.886932,282.016296 
	C128.886932,282.016296 128.730225,281.717468 128.858734,281.365906 
	C128.987228,281.014313 129.278000,280.649750 129.601257,280.748627 
	C131.442795,281.253632 132.961090,281.659760 134.644745,282.408051 
	C137.533844,284.519073 140.257553,286.287994 142.609680,288.035217 
	C140.566772,287.579620 138.895447,287.145660 137.224121,286.711700 
	C137.224121,286.711700 137.220963,286.862366 137.083496,286.577515 
	C136.708038,286.044189 136.417160,285.912994 136.073410,285.899078 
z"/>
<path fill="#EBBD61" opacity="1.000000" stroke="none" 
	d="
M281.962097,167.956589 
	C282.326965,169.140320 282.691833,170.324051 283.185242,171.871277 
	C283.342163,172.562683 283.362671,172.891113 283.272247,173.941803 
	C283.241058,178.529816 283.312897,182.396027 283.384735,186.262238 
	C283.367615,186.599731 283.350494,186.937210 283.313354,187.526428 
	C283.039093,189.340088 282.784790,190.902023 282.280701,192.328186 
	C282.007996,184.113785 281.985046,176.035187 281.962097,167.956589 
z"/>
<path fill="#A89694" opacity="1.000000" stroke="none" 
	d="
M283.643951,185.996399 
	C283.312897,182.396027 283.241058,178.529816 283.279175,174.189087 
	C283.560486,177.719894 283.731842,181.725235 283.643951,185.996399 
z"/>
<path fill="#98889B" opacity="1.000000" stroke="none" 
	d="
M211.176910,291.331543 
	C211.150604,290.957214 211.438232,290.717743 211.863159,290.238373 
	C212.000458,289.998474 211.993759,290.021576 212.362457,290.047241 
	C214.500320,289.382446 216.269501,288.692047 218.022781,287.999939 
	C218.006897,287.998199 217.993423,288.028168 218.365814,288.047241 
	C219.481613,288.002289 220.225006,287.938263 220.968399,287.874207 
	C217.809235,289.071625 214.650055,290.269043 211.176910,291.331543 
z"/>
<path fill="#DFC46A" opacity="1.000000" stroke="none" 
	d="
M233.152924,281.175415 
	C231.969559,282.028534 230.786179,282.881683 228.973267,283.841797 
	C227.880157,283.954926 227.416580,283.961121 227.052505,283.651123 
	C229.059845,282.180756 230.967667,281.026581 232.997604,279.991211 
	C233.119720,280.110016 233.364090,280.347443 233.292603,280.549652 
	C233.221100,280.751862 233.152939,281.175415 233.152924,281.175415 
z"/>
<path fill="#98889B" opacity="1.000000" stroke="none" 
	d="
M137.417175,287.000366 
	C138.895447,287.145660 140.566772,287.579620 142.614197,288.014038 
	C142.990295,288.014496 142.950974,288.027435 143.121872,288.257874 
	C143.969162,288.845581 144.645569,289.202789 145.223724,289.695435 
	C145.125504,289.830872 144.929611,290.102142 144.929611,290.102142 
	C142.489822,289.164429 140.050034,288.226715 137.417175,287.000366 
z"/>
<path fill="#DFC46A" opacity="1.000000" stroke="none" 
	d="
M221.124542,287.797516 
	C220.225006,287.938263 219.481613,288.002289 218.503662,287.721100 
	C219.838470,286.901642 221.407837,286.427429 223.007050,286.226868 
	C223.038025,286.684052 223.039169,286.867584 223.040329,287.051117 
	C223.040329,287.051117 223.010986,287.016266 222.756073,287.034485 
	C222.204117,287.237976 221.907089,287.423248 221.610046,287.608551 
	C221.610046,287.608551 221.280701,287.720825 221.124542,287.797516 
z"/>
<path fill="#DFC46A" opacity="1.000000" stroke="none" 
	d="
M237.152634,276.944977 
	C237.055450,277.348480 236.958267,277.752014 236.795090,278.462036 
	C236.729095,278.768555 236.488571,278.947693 236.046341,279.083191 
	C234.857437,279.594971 234.110764,279.971222 233.364090,280.347443 
	C233.364090,280.347443 233.119720,280.110016 233.135498,279.686340 
	C234.485046,278.490112 235.818848,277.717529 237.152634,276.944977 
z"/>
<path fill="#DFC46A" opacity="1.000000" stroke="none" 
	d="
M128.843445,281.197845 
	C128.363693,281.309906 128.027740,281.238434 127.297073,280.836487 
	C126.579582,280.327087 126.256798,280.148224 125.934006,279.969360 
	C125.721313,279.757660 125.493912,279.563141 125.050446,279.034607 
	C124.849091,278.683319 124.758797,278.237854 124.758797,278.237854 
	C124.758797,278.237854 125.063751,277.929871 125.487137,277.924469 
	C127.033020,278.829285 128.155502,279.739532 129.278000,280.649750 
	C129.278000,280.649750 128.987228,281.014313 128.843445,281.197845 
z"/>
<path fill="#A89694" opacity="1.000000" stroke="none" 
	d="
M233.292603,280.549652 
	C234.110764,279.971222 234.857437,279.594971 235.917282,279.159515 
	C235.423538,279.767426 234.616638,280.434540 233.481323,281.138550 
	C233.152939,281.175415 233.221100,280.751862 233.292603,280.549652 
z"/>
<path fill="#98889B" opacity="1.000000" stroke="none" 
	d="
M148.980331,289.989319 
	C148.990250,290.164154 149.000168,290.338959 149.054169,290.773193 
	C147.909393,290.857513 146.720520,290.682404 145.230621,290.304749 
	C144.929611,290.102142 145.125504,289.830872 145.588211,289.777710 
	C147.042603,289.820526 148.034302,289.916565 149.012726,290.011047 
	C148.999451,290.009552 148.980331,289.989319 148.980331,289.989319 
z"/>
<path fill="#98889B" opacity="1.000000" stroke="none" 
	d="
M175.356049,291.079254 
	C176.006531,290.559998 177.008072,290.101013 178.344177,289.635437 
	C177.688187,290.132446 176.697647,290.635956 175.356049,291.079254 
z"/>
<path fill="#98889B" opacity="1.000000" stroke="none" 
	d="
M179.314606,289.696899 
	C179.846436,289.474945 180.789597,289.358215 181.990082,289.400757 
	C181.406921,289.640747 180.566437,289.721466 179.314606,289.696899 
z"/>
<path fill="#98889B" opacity="1.000000" stroke="none" 
	d="
M223.365845,287.082916 
	C223.039169,286.867584 223.038025,286.684052 223.011108,286.248596 
	C222.985306,285.996643 222.945740,285.979462 223.281464,285.993469 
	C224.253708,285.803223 224.890244,285.598999 225.636871,285.536621 
	C225.746948,285.678436 225.966690,285.962372 225.966690,285.962372 
	C225.208237,286.346497 224.449799,286.730591 223.365845,287.082916 
z"/>
<path fill="#98889B" opacity="1.000000" stroke="none" 
	d="
M226.952988,283.967346 
	C227.416580,283.961121 227.880157,283.954926 228.690491,283.986877 
	C228.623871,284.389801 228.210495,284.754608 227.414703,285.082458 
	C227.032257,285.045502 226.813400,284.831573 226.877670,284.616028 
	C226.941940,284.400452 226.979691,283.951843 226.984528,283.971741 
	C226.989380,283.991669 226.952988,283.967346 226.952988,283.967346 
z"/>
<path fill="#98889B" opacity="1.000000" stroke="none" 
	d="
M132.222305,284.052063 
	C132.602676,284.027740 133.133545,284.273773 133.843140,284.757507 
	C133.472168,284.770996 132.922485,284.546692 132.222305,284.052063 
z"/>
<path fill="#98889B" opacity="1.000000" stroke="none" 
	d="
M150.079178,291.310181 
	C150.434631,291.185944 151.068710,291.231018 151.982117,291.434998 
	C151.626892,291.555786 150.992355,291.517639 150.079178,291.310181 
z"/>
<path fill="#98889B" opacity="1.000000" stroke="none" 
	d="
M124.487839,278.150238 
	C124.758797,278.237854 124.849091,278.683319 124.863205,278.910522 
	C124.374847,278.869385 123.872375,278.601013 123.240433,278.068939 
	C123.479599,277.890991 123.848244,277.976807 124.487839,278.150238 
z"/>
<path fill="#A89694" opacity="1.000000" stroke="none" 
	d="
M211.793091,114.433304 
	C211.529175,114.676628 210.977905,114.843048 210.133438,114.964569 
	C210.395416,114.731918 210.950577,114.544159 211.793091,114.433304 
z"/>
<path fill="#98889B" opacity="1.000000" stroke="none" 
	d="
M221.878662,287.607025 
	C221.907089,287.423248 222.204117,287.237976 222.767044,287.047485 
	C222.737717,287.230072 222.442505,287.417786 221.878662,287.607025 
z"/>
<path fill="#98889B" opacity="1.000000" stroke="none" 
	d="
M136.194046,286.112427 
	C136.417160,285.912994 136.708038,286.044189 137.068344,286.503967 
	C136.841858,286.713165 136.549866,286.583374 136.194046,286.112427 
z"/>
<path fill="#98889B" opacity="1.000000" stroke="none" 
	d="
M227.141251,285.152893 
	C226.992050,285.462646 226.716049,285.636749 226.194458,285.872498 
	C225.966690,285.962372 225.746948,285.678436 225.841858,285.421204 
	C226.217148,285.022003 226.509354,284.911194 226.813400,284.831573 
	C226.813400,284.831573 227.032257,285.045502 227.141251,285.152893 
z"/>
<path fill="#98889B" opacity="1.000000" stroke="none" 
	d="
M134.176315,285.163757 
	C134.319794,285.054504 134.648010,285.126221 135.168808,285.367401 
	C135.027954,285.472839 134.694504,285.408813 134.176315,285.163757 
z"/>
<path fill="#98889B" opacity="1.000000" stroke="none" 
	d="
M129.035095,282.270691 
	C129.222717,282.186676 129.558517,282.357056 130.070755,282.755310 
	C129.892563,282.830536 129.537918,282.677826 129.035095,282.270691 
z"/>
<path fill="#98889B" opacity="1.000000" stroke="none" 
	d="
M126.072571,280.218445 
	C126.256798,280.148224 126.579582,280.327087 127.055527,280.743469 
	C126.876160,280.809814 126.543648,280.638672 126.072571,280.218445 
z"/>
<path fill="#FFD80C" opacity="1.000000" stroke="none" 
	d="
M129.601257,280.748627 
	C128.155502,279.739532 127.033020,278.829285 125.639534,277.770386 
	C124.254089,276.622314 123.139633,275.622925 122.175865,274.267883 
	C124.573135,273.059448 125.180603,271.746155 122.642616,270.742798 
	C118.885910,269.257690 116.275017,266.852020 114.564163,263.220184 
	C114.252098,262.557739 112.882393,262.393494 112.101181,261.721008 
	C111.800377,259.976318 111.399315,258.509827 111.000580,256.698669 
	C111.010208,255.894028 111.017509,255.434097 111.351120,254.936981 
	C114.449150,251.626740 113.760109,246.981262 109.639366,241.159286 
	C105.532112,248.218399 105.541725,248.203125 98.362961,243.684708 
	C97.701057,243.268097 96.814812,243.207916 96.032745,242.982224 
	C94.081390,238.879166 92.130035,234.776123 90.483604,230.287460 
	C93.870842,227.915649 96.953163,225.929428 99.173386,224.498734 
	C98.587738,220.417969 98.220543,216.816833 97.463188,213.299713 
	C97.268692,212.396484 95.843948,211.758179 94.739822,210.780457 
	C93.338211,210.043106 92.181168,209.523438 90.660004,209.059845 
	C88.796646,211.781937 87.297417,214.447952 85.798172,217.113968 
	C83.902122,210.470779 81.358543,203.933823 80.247757,197.161819 
	C78.080635,183.949844 78.739738,170.661514 81.302956,157.506516 
	C81.616867,155.895493 82.366646,154.369370 83.342552,152.396576 
	C85.494377,151.301483 87.218094,150.613708 88.890762,150.278549 
	C88.303474,152.717575 87.717484,154.828842 91.302017,154.947296 
	C96.079231,153.723511 94.252197,159.840256 98.113739,160.100998 
	C100.123466,154.260513 98.082146,148.612411 96.954529,142.544342 
	C96.185989,137.222366 92.200600,139.682938 89.611954,138.950699 
	C91.485451,133.457611 93.962234,128.461105 99.162735,125.191940 
	C103.294510,122.594612 107.130028,119.530869 111.198944,116.827538 
	C117.650520,112.541214 124.721703,110.959641 132.704468,113.131302 
	C132.973557,124.932701 133.041077,124.918831 144.172333,125.057510 
	C146.913406,125.091667 149.871353,125.311348 152.330688,126.371277 
	C156.333176,128.096268 162.985809,125.296982 164.025955,120.901184 
	C164.025955,120.901184 164.469833,120.890816 165.006317,121.036743 
	C167.043549,121.103027 168.544312,121.023384 170.045074,120.943741 
	C170.750458,120.999779 171.455856,121.055817 172.679871,121.432129 
	C175.204575,123.323967 177.210648,124.895531 179.520035,126.704712 
	C180.127365,125.767838 180.858444,124.640053 181.285721,123.980919 
	C184.327927,124.320023 187.065659,124.625191 190.116241,125.052307 
	C193.118179,125.852310 195.801208,126.555931 198.499374,127.195595 
	C199.551498,127.445023 201.178040,128.082932 201.620056,127.634415 
	C204.318283,124.896507 206.265976,126.724564 208.579056,128.196304 
	C210.040787,129.126373 211.903046,129.815063 213.607162,129.864090 
	C215.226242,129.910675 216.873337,128.984344 218.508102,128.485809 
	C217.458725,127.269882 216.409332,126.053955 215.301376,124.770164 
	C216.544250,123.944702 218.016830,122.966690 219.489410,121.988670 
	C219.257523,121.401192 219.025635,120.813713 218.793747,120.226234 
	C215.797714,121.008911 212.801666,121.791580 208.542480,122.904236 
	C210.334564,120.323921 211.159637,119.135948 211.984711,117.947983 
	C212.816315,117.135750 213.647919,116.323509 214.711914,115.310516 
	C218.015686,114.382492 221.087051,113.655228 224.564163,112.887222 
	C227.692322,112.563744 230.414719,112.281013 233.474670,112.431915 
	C233.542084,115.156693 233.153351,117.441040 233.021469,119.740120 
	C232.296478,132.378220 231.646317,145.020599 230.926926,157.659027 
	C230.871872,158.626328 230.294357,159.570648 230.274582,160.532104 
	C230.134369,167.347946 230.076355,174.165466 229.990997,181.321228 
	C229.981140,182.111633 229.972427,182.563248 229.610748,183.065155 
	C224.695572,186.913193 223.050064,193.125458 225.027985,199.382202 
	C225.004944,200.146759 224.989746,200.583588 224.797470,201.169586 
	C224.394455,201.531647 224.193420,201.765900 223.984406,202.410889 
	C220.932816,211.055756 218.236313,219.449890 214.767990,227.511978 
	C212.850143,231.969971 209.639420,235.871780 206.659927,240.096313 
	C200.032776,245.699326 195.269150,252.320297 191.819305,260.168060 
	C191.408432,260.528839 191.196198,260.757202 190.641891,261.031708 
	C185.543304,262.544739 181.932922,265.323242 179.742523,270.181396 
	C178.669235,270.900696 177.846771,271.458588 176.609207,272.023895 
	C174.074753,272.366608 171.626450,272.144135 169.907272,273.157990 
	C166.716629,275.039612 163.951706,277.643158 160.597870,279.968292 
	C151.617279,280.682312 143.048340,281.374115 134.479385,282.065918 
	C132.961090,281.659760 131.442795,281.253632 129.601257,280.748627 
M122.324677,262.999054 
	C121.486565,263.541992 120.648453,264.084930 119.810349,264.627899 
	C120.380424,265.157257 120.950508,265.686584 121.520576,266.215942 
	C122.015808,265.145752 122.511032,264.075592 123.421997,262.879364 
	C123.637115,262.566376 123.852234,262.253357 124.067345,261.940338 
	C123.934212,261.913940 123.712784,261.826324 123.681931,261.870789 
	C123.432297,262.230804 123.218430,262.615631 122.324677,262.999054 
M123.995804,152.003830 
	C123.995804,152.003830 123.978432,152.023407 123.969696,151.236176 
	C122.877487,149.864273 121.191399,147.156815 120.788826,147.335815 
	C118.044899,148.555954 115.570999,150.383316 112.629845,152.562775 
	C109.314957,156.754196 105.261276,160.561829 102.842163,165.218597 
	C98.108955,174.329941 99.835403,184.455414 100.282661,194.177155 
	C100.612373,201.343628 102.767326,208.047485 108.622375,213.198425 
	C114.522057,218.388657 123.949806,218.031601 128.651611,212.295670 
	C134.767242,204.835022 136.193100,195.716354 136.675095,186.874634 
	C137.202576,177.198807 136.433578,167.172806 129.873016,158.880310 
	C129.297104,158.152359 129.248657,157.007080 128.915726,155.305511 
	C127.272224,154.210281 125.628723,153.115067 123.995804,152.003830 
M88.353172,160.538483 
	C88.570145,159.598602 88.787117,158.658737 89.004089,157.718857 
	C88.202995,157.991272 87.401901,158.263687 86.600807,158.536087 
	C87.028328,159.323349 87.455849,160.110626 88.353172,160.538483 
M160.251678,129.179123 
	C160.892487,128.950516 161.533310,128.721893 162.174118,128.493271 
	C161.804001,128.087402 161.433884,127.681526 161.063766,127.275665 
	C160.672775,127.782417 160.281784,128.289169 160.251678,129.179123 
M104.722435,241.838074 
	C104.888466,241.957596 105.054497,242.077118 105.220528,242.196655 
	C105.115631,242.021637 105.010735,241.846603 104.722435,241.838074 
M128.163269,257.713409 
	C128.040771,257.883728 127.918289,258.054016 127.795799,258.224304 
	C127.975327,258.116577 128.154861,258.008820 128.163269,257.713409 
z"/>
<path fill="#FFD805" opacity="1.000000" stroke="none" 
	d="
M163.739227,120.649902 
	C162.985809,125.296982 156.333176,128.096268 152.330688,126.371277 
	C149.871353,125.311348 146.913406,125.091667 144.172333,125.057510 
	C133.041077,124.918831 132.973557,124.932701 133.017273,113.402802 
	C136.482925,114.766869 139.943649,116.583191 143.908600,118.683838 
	C144.616013,118.982628 144.819168,118.997093 145.024658,119.353363 
	C147.549393,124.999046 149.205841,121.017479 151.057846,119.132744 
	C155.189392,119.554695 159.320953,119.976654 163.739227,120.649902 
M140.502197,119.526375 
	C140.502197,119.526375 140.487305,119.485870 140.502197,119.526375 
z"/>
<path fill="#FED804" opacity="1.000000" stroke="none" 
	d="
M211.575867,117.964561 
	C211.159637,119.135948 210.334564,120.323921 208.542480,122.904236 
	C212.801666,121.791580 215.797714,121.008911 218.793747,120.226234 
	C219.025635,120.813713 219.257523,121.401192 219.489410,121.988670 
	C218.016830,122.966690 216.544250,123.944702 215.301376,124.770164 
	C216.409332,126.053955 217.458725,127.269882 218.508102,128.485809 
	C216.873337,128.984344 215.226242,129.910675 213.607162,129.864090 
	C211.903046,129.815063 210.040787,129.126373 208.579056,128.196304 
	C206.265976,126.724564 204.318283,124.896507 201.620056,127.634415 
	C201.178040,128.082932 199.551498,127.445023 198.499374,127.195595 
	C195.801208,126.555931 193.118179,125.852310 190.126862,124.772308 
	C189.835388,123.995293 189.846176,123.620232 189.897430,122.947289 
	C189.976151,122.256119 190.014420,121.862839 190.052689,121.469551 
	C197.090805,120.306755 204.128922,119.143951 211.575867,117.964561 
z"/>
<path fill="#FED903" opacity="1.000000" stroke="none" 
	d="
M94.984390,210.998169 
	C95.843948,211.758179 97.268692,212.396484 97.463188,213.299713 
	C98.220543,216.816833 98.587738,220.417969 99.173386,224.498734 
	C96.953163,225.929428 93.870842,227.915649 90.440468,229.941086 
	C88.635361,225.926102 87.178322,221.871902 85.759727,217.465820 
	C87.297417,214.447952 88.796646,211.781937 90.757050,209.365234 
	C91.144287,211.077759 91.070351,212.540939 90.936226,213.799286 
	C90.572655,213.379639 90.269287,213.164841 89.965912,212.950027 
	C89.942047,213.079346 89.859360,213.293976 89.903618,213.324493 
	C90.256935,213.568130 90.634293,213.776871 91.009300,214.387115 
	C91.791153,217.242981 92.567993,219.708054 93.344841,222.173111 
	C93.687660,222.065353 94.030479,221.957581 94.373299,221.849808 
	C94.576996,218.232605 94.780693,214.615387 94.984390,210.998169 
z"/>
<path fill="#FDD81D" opacity="1.000000" stroke="none" 
	d="
M96.158401,243.298370 
	C96.814812,243.207916 97.701057,243.268097 98.362961,243.684708 
	C105.541725,248.203125 105.532112,248.218399 109.639366,241.159286 
	C113.760109,246.981262 114.449150,251.626740 111.346771,254.510239 
	C110.836815,251.952576 110.657494,249.784470 110.478172,247.616364 
	C109.879219,247.517227 109.280266,247.418091 108.681305,247.318954 
	C108.208771,248.922379 107.718834,250.520950 107.268539,252.130600 
	C106.809486,253.771561 106.389427,255.423431 105.952301,257.070526 
	C102.729553,252.585190 99.506805,248.099838 96.158401,243.298370 
z"/>
<path fill="#FCD827" opacity="1.000000" stroke="none" 
	d="
M88.941803,149.925949 
	C87.218094,150.613708 85.494377,151.301483 83.413818,152.019287 
	C84.965981,148.041641 86.874985,144.033966 89.402252,140.213562 
	C90.344269,141.598312 90.668015,142.795761 90.665329,144.151108 
	C89.873199,146.181305 89.407501,148.053635 88.941803,149.925949 
z"/>
<path fill="#F7D93C" opacity="1.000000" stroke="none" 
	d="
M189.856964,123.245171 
	C189.846176,123.620232 189.835388,123.995293 189.813995,124.650352 
	C187.065659,124.625191 184.327927,124.320023 181.285721,123.980919 
	C180.858444,124.640053 180.127365,125.767838 179.520035,126.704712 
	C177.210648,124.895531 175.204575,123.323967 173.032318,121.463303 
	C176.323700,121.236893 179.781235,121.299576 183.891266,121.790848 
	C186.314819,122.561340 188.085892,122.903259 189.856964,123.245171 
z"/>
<path fill="#FDD901" opacity="1.000000" stroke="none" 
	d="
M106.027847,257.344727 
	C106.389427,255.423431 106.809486,253.771561 107.268539,252.130600 
	C107.718834,250.520950 108.208771,248.922379 108.681305,247.318954 
	C109.280266,247.418091 109.879219,247.517227 110.478172,247.616364 
	C110.657494,249.784470 110.836815,251.952576 111.020470,254.547424 
	C111.017509,255.434097 111.010208,255.894028 110.735443,256.787842 
	C109.898102,258.574249 109.328224,259.926727 108.758347,261.279236 
	C108.483635,261.118500 108.265816,260.900818 107.918106,260.182159 
	C107.570175,259.445740 107.356750,259.198517 107.091042,258.996429 
	C106.761826,258.537262 106.432610,258.078125 106.027847,257.344727 
z"/>
<path fill="#FCD71D" opacity="1.000000" stroke="none" 
	d="
M112.000916,261.999268 
	C112.882393,262.393494 114.252098,262.557739 114.564163,263.220184 
	C116.275017,266.852020 118.885910,269.257690 122.642616,270.742798 
	C125.180603,271.746155 124.573135,273.059448 121.997681,273.992004 
	C118.484604,271.061890 115.300392,268.052002 112.031204,264.331818 
	C111.963905,263.081329 111.981598,262.541138 111.999641,262.000488 
	C112.000000,262.000000 112.000916,261.999268 112.000916,261.999268 
z"/>
<path fill="#FDD902" opacity="1.000000" stroke="none" 
	d="
M90.991768,143.993225 
	C90.668015,142.795761 90.344269,141.598312 89.730179,140.149414 
	C89.439827,139.897980 89.462601,139.411789 89.537277,139.181244 
	C92.200600,139.682938 96.185989,137.222366 96.676529,142.620514 
	C95.926620,143.379166 95.437218,143.672455 94.554626,143.975677 
	C93.107933,143.990738 92.054420,143.995850 91.000191,144.000259 
	C90.999466,143.999557 90.991768,143.993225 90.991768,143.993225 
z"/>
<path fill="#FED821" opacity="1.000000" stroke="none" 
	d="
M150.723297,119.065063 
	C149.205841,121.017479 147.549393,124.999046 145.424438,119.353699 
	C146.890182,118.993057 147.958496,118.973877 149.026794,118.954704 
	C149.480774,118.968925 149.934769,118.983154 150.723297,119.065063 
z"/>
<path fill="#FFD700" opacity="1.000000" stroke="none" 
	d="
M149.048767,118.637627 
	C147.958496,118.973877 146.890182,118.993057 145.422119,119.011902 
	C144.819168,118.997093 144.616013,118.982628 144.107574,118.944580 
	C144.857056,117.922188 145.911819,116.923363 146.966583,115.924530 
	C147.667969,116.723206 148.369370,117.521881 149.048767,118.637627 
z"/>
<path fill="#FCD71D" opacity="1.000000" stroke="none" 
	d="
M108.890961,261.442993 
	C109.328224,259.926727 109.898102,258.574249 110.733116,257.132568 
	C111.399315,258.509827 111.800377,259.976318 112.101181,261.721008 
	C112.000916,261.999268 112.000000,262.000000 111.617493,262.008484 
	C110.724655,262.044586 110.214325,262.072235 109.704002,262.099884 
	C109.446152,261.978333 109.219345,261.813965 108.890961,261.442993 
z"/>
<path fill="#F7D93C" opacity="1.000000" stroke="none" 
	d="
M169.759766,120.753235 
	C168.544312,121.023384 167.043549,121.103027 165.227753,121.021118 
	C166.433319,120.760620 167.953888,120.661674 169.759766,120.753235 
z"/>
<path fill="#FFD80C" opacity="1.000000" stroke="none" 
	d="
M189.897430,122.947289 
	C188.085892,122.903259 186.314819,122.561340 184.261688,121.944069 
	C185.035706,121.730026 186.091797,121.791336 187.664185,121.845840 
	C188.336990,121.748215 188.490921,121.653236 188.642288,121.554085 
	C188.875916,121.518486 189.109558,121.482895 189.697937,121.458435 
	C190.014420,121.862839 189.976151,122.256119 189.897430,122.947289 
z"/>
<path fill="#FFD80C" opacity="1.000000" stroke="none" 
	d="
M109.857567,262.388092 
	C110.214325,262.072235 110.724655,262.044586 111.617126,262.008972 
	C111.981598,262.541138 111.963905,263.081329 111.922791,264.030090 
	C111.269943,263.851196 110.640533,263.263733 109.857567,262.388092 
z"/>
<path fill="#FED804" opacity="1.000000" stroke="none" 
	d="
M188.505783,121.582298 
	C188.490921,121.653236 188.336990,121.748215 188.056152,121.904755 
	C188.044067,121.809540 188.189880,121.689552 188.505783,121.582298 
z"/>
<path fill="#FDD81D" opacity="1.000000" stroke="none" 
	d="
M107.191628,259.220093 
	C107.356750,259.198517 107.570175,259.445740 107.826279,259.968109 
	C107.669044,259.982117 107.459373,259.730682 107.191628,259.220093 
z"/>
<path fill="#FEBE01" opacity="1.000000" stroke="none" 
	d="
M207.011520,240.024307 
	C209.639420,235.871780 212.850143,231.969971 214.767990,227.511978 
	C218.236313,219.449890 220.932816,211.055756 224.163666,202.263321 
	C224.602661,201.514191 224.802246,201.278870 224.974564,201.020416 
	C224.989746,200.583588 225.004944,200.146759 225.264709,199.110138 
	C226.994095,193.345200 228.478912,188.180038 229.963715,183.014877 
	C229.972427,182.563248 229.981140,182.111633 230.008087,180.922043 
	C230.699814,177.292969 231.483719,174.422516 232.028885,171.507401 
	C235.703201,151.860168 236.298401,131.998245 236.073807,112.082726 
	C239.785645,112.992439 243.497482,113.902145 247.585815,114.799553 
	C264.801697,121.809715 273.276337,135.629700 278.133301,152.249954 
	C279.579254,157.197876 280.372681,162.336502 281.713593,167.672165 
	C281.985046,176.035187 282.007996,184.113785 282.093079,192.670425 
	C282.155212,193.148468 282.081299,193.117905 281.731842,193.021240 
	C280.104950,192.865723 278.827515,192.806885 276.311920,192.691010 
	C278.454254,195.274612 279.677551,196.749863 280.900818,198.225113 
	C280.849670,198.884949 280.798523,199.544800 280.535278,200.822479 
	C280.237671,202.305923 280.152130,203.171509 280.066620,204.037094 
	C280.066620,204.037094 280.056458,204.031036 279.740662,204.185654 
	C277.567810,211.216461 275.710754,218.092651 273.853668,224.968842 
	C269.223022,233.817413 265.464600,243.286346 259.729797,251.349609 
	C253.290939,260.402771 245.066452,268.185974 237.385742,276.733337 
	C235.818848,277.717529 234.485046,278.490112 233.013367,279.567535 
	C230.967667,281.026581 229.059845,282.180756 227.052505,283.651123 
	C226.952988,283.967346 226.989380,283.991669 226.629929,283.971313 
	C225.162231,284.627136 224.053986,285.303314 222.945740,285.979462 
	C222.945740,285.979462 222.985306,285.996643 222.981262,285.974915 
	C221.407837,286.427429 219.838470,286.901642 218.131256,287.702026 
	C217.993423,288.028168 218.006897,287.998199 217.624939,287.979004 
	C215.493256,288.647095 213.743515,289.334351 211.993759,290.021576 
	C211.993759,290.021576 212.000458,289.998474 212.012939,290.001831 
	C203.919098,290.022369 195.812759,290.039520 187.215866,290.119812 
	C186.725311,290.182922 186.445709,290.087921 186.307648,290.040344 
	C182.939377,289.422699 179.693405,288.297638 176.481995,288.388916 
	C167.620926,288.640625 158.774307,289.400970 149.451141,289.974762 
	C148.980331,289.989319 148.999451,290.009552 148.859909,289.681122 
	C146.797226,288.910950 144.874100,288.469208 142.950974,288.027435 
	C142.950974,288.027435 142.990295,288.014496 142.985779,288.035706 
	C140.257553,286.287994 137.533844,284.519073 134.644745,282.408051 
	C143.048340,281.374115 151.617279,280.682312 160.953094,279.890686 
	C166.821396,277.199371 171.922852,274.607941 177.024323,272.016510 
	C177.846771,271.458588 178.669235,270.900696 180.080536,270.096649 
	C184.114029,266.901520 187.558670,263.952545 191.003296,261.003540 
	C191.196198,260.757202 191.408432,260.528839 192.121216,260.011719 
	C195.487427,256.346375 198.568222,253.132889 201.197113,249.584564 
	C203.408249,246.600067 205.093475,243.225937 207.011520,240.024307 
M265.050262,132.109222 
	C265.050262,132.109222 265.009155,131.993591 264.903992,131.485077 
	C264.524567,131.044571 264.145172,130.604080 263.765747,130.163574 
	C263.586517,130.378052 263.407257,130.592514 263.228027,130.806992 
	C263.816437,131.207947 264.404877,131.608887 265.050262,132.109222 
M259.001648,127.704132 
	C259.206177,128.803085 259.410736,129.902039 259.615295,131.000992 
	C260.058319,130.831345 260.501343,130.661697 260.944366,130.492050 
	C260.294678,129.329010 259.645020,128.165985 258.814087,126.350395 
	C257.114716,125.298050 255.415359,124.245712 253.716003,123.193367 
	C253.451340,123.879761 253.186691,124.566162 252.922028,125.252556 
	C254.949768,125.833244 256.977509,126.413933 259.001648,127.704132 
z"/>
<path fill="#F5BD44" opacity="1.000000" stroke="none" 
	d="
M274.143311,224.745178 
	C275.710754,218.092651 277.567810,211.216461 279.753265,204.194077 
	C278.198761,210.872421 276.315887,217.696960 274.143311,224.745178 
z"/>
<path fill="#F5BD44" opacity="1.000000" stroke="none" 
	d="
M281.149963,197.918884 
	C279.677551,196.749863 278.454254,195.274612 276.311920,192.691010 
	C278.827515,192.806885 280.104950,192.865723 281.722717,192.982300 
	C281.841705,194.564224 281.620392,196.088440 281.149963,197.918884 
z"/>
<path fill="#F5BD44" opacity="1.000000" stroke="none" 
	d="
M280.269836,203.770630 
	C280.152130,203.171509 280.237671,202.305923 280.484833,201.149857 
	C280.588654,201.740967 280.530853,202.622559 280.269836,203.770630 
z"/>
<path fill="#FFD617" opacity="1.000000" stroke="none" 
	d="
M235.725342,112.045143 
	C236.298401,131.998245 235.703201,151.860168 232.028885,171.507401 
	C231.483719,174.422516 230.699814,177.292969 230.009232,180.583267 
	C230.076355,174.165466 230.134369,167.347946 230.274582,160.532104 
	C230.294357,159.570648 230.871872,158.626328 230.926926,157.659027 
	C231.646317,145.020599 232.296478,132.378220 233.021469,119.740120 
	C233.153351,117.441040 233.542084,115.156693 233.895142,112.461517 
	C234.444321,112.040848 234.910583,112.024208 235.725342,112.045143 
z"/>
<path fill="#DFC46A" opacity="1.000000" stroke="none" 
	d="
M212.362457,290.047241 
	C213.743515,289.334351 215.493256,288.647095 217.640839,287.980743 
	C216.269501,288.692047 214.500320,289.382446 212.362457,290.047241 
z"/>
<path fill="#DFC46A" opacity="1.000000" stroke="none" 
	d="
M143.121872,288.257874 
	C144.874100,288.469208 146.797226,288.910950 148.873169,289.682617 
	C148.034302,289.916565 147.042603,289.820526 145.686432,289.642273 
	C144.645569,289.202789 143.969162,288.845581 143.121872,288.257874 
z"/>
<path fill="#DFC46A" opacity="1.000000" stroke="none" 
	d="
M223.281464,285.993469 
	C224.053986,285.303314 225.162231,284.627136 226.625092,283.951416 
	C226.979691,283.951843 226.941940,284.400452 226.877670,284.616028 
	C226.509354,284.911194 226.217148,285.022003 225.731781,285.279388 
	C224.890244,285.598999 224.253708,285.803223 223.281464,285.993469 
z"/>
<path fill="#FFDF39" opacity="1.000000" stroke="none" 
	d="
M128.955215,156.055649 
	C129.248657,157.007080 129.297104,158.152359 129.873016,158.880310 
	C136.433578,167.172806 137.202576,177.198807 136.675095,186.874634 
	C136.193100,195.716354 134.767242,204.835022 128.651611,212.295670 
	C123.949806,218.031601 114.522057,218.388657 108.622375,213.198425 
	C102.767326,208.047485 100.612373,201.343628 100.282661,194.177155 
	C99.835403,184.455414 98.108955,174.329941 102.842163,165.218597 
	C105.261276,160.561829 109.314957,156.754196 113.195869,152.205750 
	C117.167404,151.906967 120.572922,151.965179 123.978432,152.023407 
	C123.978432,152.023407 123.995804,152.003830 124.165749,152.289307 
	C125.875534,153.735062 127.415375,154.895355 128.955215,156.055649 
z"/>
<path fill="#FED818" opacity="1.000000" stroke="none" 
	d="
M94.947815,143.965744 
	C95.437218,143.672455 95.926620,143.379166 96.694016,143.009705 
	C98.082146,148.612411 100.123466,154.260513 98.113739,160.100998 
	C94.252197,159.840256 96.079231,153.723511 91.303917,154.576889 
	C91.343575,152.829880 91.662781,151.402802 92.352890,149.921875 
	C93.465134,147.900620 94.206474,145.933182 94.947815,143.965744 
z"/>
<path fill="#FFD418" opacity="1.000000" stroke="none" 
	d="
M206.659943,240.096344 
	C205.093475,243.225937 203.408249,246.600067 201.197113,249.584564 
	C198.568222,253.132889 195.487427,256.346375 192.300537,259.861328 
	C195.269150,252.320297 200.032776,245.699326 206.659943,240.096344 
z"/>
<path fill="#FFD518" opacity="1.000000" stroke="none" 
	d="
M229.610748,183.065155 
	C228.478912,188.180038 226.994095,193.345200 225.272552,198.782410 
	C223.050064,193.125458 224.695572,186.913193 229.610748,183.065155 
z"/>
<path fill="#FFD416" opacity="1.000000" stroke="none" 
	d="
M176.609207,272.023895 
	C171.922852,274.607941 166.821396,277.199371 161.364716,279.868469 
	C163.951706,277.643158 166.716629,275.039612 169.907272,273.157990 
	C171.626450,272.144135 174.074753,272.366608 176.609207,272.023895 
z"/>
<path fill="#FED91C" opacity="1.000000" stroke="none" 
	d="
M123.974060,151.629791 
	C120.572922,151.965179 117.167404,151.906967 113.385925,151.931747 
	C115.570999,150.383316 118.044899,148.555954 120.788826,147.335815 
	C121.191399,147.156815 122.877487,149.864273 123.974060,151.629791 
z"/>
<path fill="#FED81D" opacity="1.000000" stroke="none" 
	d="
M94.739822,210.780457 
	C94.780693,214.615387 94.576996,218.232605 94.373299,221.849808 
	C94.030479,221.957581 93.687660,222.065353 93.344841,222.173111 
	C92.567993,219.708054 91.791153,217.242981 91.007156,214.388947 
	C91.000000,214.000000 90.996414,214.004135 90.996414,214.004135 
	C91.070351,212.540939 91.144287,211.077759 91.121178,209.309174 
	C92.181168,209.523438 93.338211,210.043106 94.739822,210.780457 
z"/>
<path fill="#FFD517" opacity="1.000000" stroke="none" 
	d="
M190.641891,261.031708 
	C187.558670,263.952545 184.114029,266.901520 180.331390,269.935303 
	C181.932922,265.323242 185.543304,262.544739 190.641891,261.031708 
z"/>
<path fill="#FDD902" opacity="1.000000" stroke="none" 
	d="
M91.981987,149.975708 
	C91.662781,151.402802 91.343575,152.829880 91.022461,154.627380 
	C87.717484,154.828842 88.303474,152.717575 88.890762,150.278549 
	C89.407501,148.053635 89.873199,146.181305 90.665329,144.151108 
	C90.991768,143.993225 90.999466,143.999557 91.029144,144.379318 
	C91.366539,146.497955 91.674263,148.236832 91.981987,149.975708 
z"/>
<path fill="#FDD902" opacity="1.000000" stroke="none" 
	d="
M88.118271,160.718185 
	C87.455849,160.110626 87.028328,159.323349 86.600807,158.536087 
	C87.401901,158.263687 88.202995,157.991272 89.004089,157.718857 
	C88.787117,158.658737 88.570145,159.598602 88.118271,160.718185 
z"/>
<path fill="#FFD723" opacity="1.000000" stroke="none" 
	d="
M123.006264,263.005432 
	C122.511032,264.075592 122.015808,265.145752 121.520584,266.215942 
	C120.950508,265.686584 120.380424,265.157257 119.810349,264.627899 
	C120.648453,264.084930 121.486565,263.541992 122.662292,262.999512 
	C122.999908,263.000000 123.006271,263.005432 123.006264,263.005432 
z"/>
<path fill="#FED91C" opacity="1.000000" stroke="none" 
	d="
M128.935471,155.680573 
	C127.415375,154.895355 125.875534,153.735062 124.160461,152.297302 
	C125.628723,153.115067 127.272224,154.210281 128.935471,155.680573 
z"/>
<path fill="#FFD805" opacity="1.000000" stroke="none" 
	d="
M160.071243,128.987518 
	C160.281784,128.289169 160.672775,127.782417 161.063751,127.275665 
	C161.433884,127.681526 161.804001,128.087402 162.174118,128.493271 
	C161.533310,128.721893 160.892487,128.950516 160.071243,128.987518 
z"/>
<path fill="#FDD81D" opacity="1.000000" stroke="none" 
	d="
M104.814133,241.754822 
	C105.010735,241.846603 105.115631,242.021637 105.220535,242.196655 
	C105.054497,242.077118 104.888466,241.957596 104.814133,241.754822 
z"/>
<path fill="#FFD723" opacity="1.000000" stroke="none" 
	d="
M128.248825,257.807251 
	C128.154861,258.008820 127.975327,258.116577 127.795799,258.224304 
	C127.918289,258.054016 128.040771,257.883728 128.248825,257.807251 
z"/>
<path fill="#FFD723" opacity="1.000000" stroke="none" 
	d="
M122.996788,262.996460 
	C123.218430,262.615631 123.432297,262.230804 123.681931,261.870789 
	C123.712784,261.826324 123.934212,261.913940 124.067352,261.940338 
	C123.852234,262.253357 123.637115,262.566376 123.214134,262.942383 
	C123.006271,263.005432 122.999908,263.000000 122.996788,262.996460 
z"/>
<path fill="#FFD518" opacity="1.000000" stroke="none" 
	d="
M224.797470,201.169586 
	C224.802246,201.278870 224.602661,201.514191 224.196518,201.873932 
	C224.193420,201.765900 224.394455,201.531647 224.797470,201.169586 
z"/>
<path fill="#FED813" opacity="1.000000" stroke="none" 
	d="
M140.494751,119.506119 
	C140.487305,119.485870 140.502197,119.526375 140.494751,119.506119 
z"/>
<path fill="#FED81D" opacity="1.000000" stroke="none" 
	d="
M91.002144,213.998154 
	C90.634293,213.776871 90.256935,213.568130 89.903618,213.324493 
	C89.859360,213.293976 89.942047,213.079346 89.965912,212.950027 
	C90.269287,213.164841 90.572655,213.379639 90.936218,213.799286 
	C90.996414,214.004135 91.000000,214.000000 91.002144,213.998154 
z"/>
<path fill="#FFD80C" opacity="1.000000" stroke="none" 
	d="
M92.352890,149.921875 
	C91.674263,148.236832 91.366539,146.497955 91.029861,144.380020 
	C92.054420,143.995850 93.107933,143.990738 94.554626,143.975677 
	C94.206474,145.933182 93.465134,147.900620 92.352890,149.921875 
z"/>
<path fill="#FCBE16" opacity="1.000000" stroke="none" 
	d="
M259.005249,126.994621 
	C256.977509,126.413933 254.949768,125.833244 252.922028,125.252556 
	C253.186691,124.566162 253.451340,123.879761 253.716003,123.193367 
	C255.415359,124.245712 257.114716,125.298050 258.907043,126.675156 
	C259.000000,126.999908 259.005249,126.994621 259.005249,126.994621 
z"/>
<path fill="#FCBE16" opacity="1.000000" stroke="none" 
	d="
M258.997681,127.001434 
	C259.645020,128.165985 260.294678,129.329010 260.944366,130.492050 
	C260.501343,130.661697 260.058319,130.831345 259.615295,131.000992 
	C259.410736,129.902039 259.206177,128.803085 259.003448,127.349380 
	C259.005249,126.994621 259.000000,126.999908 258.997681,127.001434 
z"/>
<path fill="#FCBE16" opacity="1.000000" stroke="none" 
	d="
M264.993286,132.009842 
	C264.404877,131.608887 263.816437,131.207947 263.228027,130.806992 
	C263.407257,130.592514 263.586517,130.378052 263.765747,130.163574 
	C264.145172,130.604080 264.524567,131.044571 264.951996,131.742615 
	C265.000000,132.000137 264.993286,132.009842 264.993286,132.009842 
z"/>
<path fill="#FCBE16" opacity="1.000000" stroke="none" 
	d="
M265.004578,131.996857 
	C265.009155,131.993591 265.050262,132.109222 265.021790,132.059540 
	C264.993286,132.009842 265.000000,132.000137 265.004578,131.996857 
z"/>
</svg>