<svg version="1.1" id="Layer_1" xmlns="http://www.w3.org/2000/svg" xmlns:xlink="http://www.w3.org/1999/xlink" x="0px" y="0px"
	 width="100%" viewBox="0 0 512 512" enable-background="new 0 0 512 512" xml:space="preserve">
<path fill="#823873" opacity="1.000000" stroke="none" 
	d="
M1.000004,289.000000 
	C1.000000,267.645782 1.000000,246.291550 1.412243,224.546860 
	C2.210439,223.316940 2.790792,222.512955 2.951541,221.632370 
	C4.217523,214.697495 5.118875,207.683975 6.664953,200.814499 
	C12.215772,176.151276 20.938131,152.700424 33.614414,130.737808 
	C43.693390,113.275230 55.106552,96.813797 69.216537,82.375214 
	C76.866386,74.547203 84.721230,66.872780 92.984810,59.707085 
	C98.890091,54.586376 105.628685,50.426643 112.226540,46.145496 
	C115.303207,53.976280 118.148788,61.499683 120.895142,69.355682 
	C119.754089,71.099327 118.712265,72.510368 117.242447,73.964691 
	C96.495361,78.658867 79.419472,89.068031 65.656540,104.436829 
	C36.255188,137.268753 26.701189,176.314056 32.678249,219.165817 
	C38.993591,264.442810 60.653797,300.582153 100.054886,325.554077 
	C109.227806,345.204285 122.000183,361.958801 136.908813,376.997955 
	C149.922684,390.125732 164.386124,401.704407 180.940979,410.104584 
	C191.384781,415.403870 202.496368,419.387115 213.558685,424.166199 
	C221.861237,436.302521 231.216324,447.078339 242.404114,456.172943 
	C268.980743,477.777222 298.999969,487.898865 333.369049,482.925507 
	C339.102692,482.095764 344.824982,479.034485 350.358185,479.470398 
	C358.989594,480.150482 367.454803,482.939972 375.631226,484.913635 
	C370.037933,487.378906 364.831146,489.828125 359.565094,492.142639 
	C337.797943,501.709869 315.213501,508.341644 291.536224,511.085388 
	C290.629028,511.190582 289.842651,512.338135 289.000000,513.000000 
	C267.979095,513.000000 246.958206,513.000000 225.541916,512.584106 
	C224.471191,511.790924 223.837463,511.220306 223.114410,511.064789 
	C209.010422,508.030457 194.672943,505.827637 180.830429,501.884735 
	C152.537277,493.825562 126.905891,480.084656 103.305664,462.608154 
	C86.712311,450.320343 71.916779,435.982758 58.835484,420.102509 
	C43.824345,401.879486 31.302372,381.970428 21.987370,360.126526 
	C12.589381,338.088043 5.669470,315.413025 2.914742,291.542572 
	C2.809828,290.633484 1.661901,289.844788 1.000004,289.000000 
z"/>
<path fill="#FE6001" opacity="1.000000" stroke="none" 
	d="
M375.990448,484.835632 
	C367.454803,482.939972 358.989594,480.150482 350.358185,479.470398 
	C344.824982,479.034485 339.102692,482.095764 333.369049,482.925507 
	C298.999969,487.898865 268.980743,477.777222 242.404114,456.172943 
	C231.216324,447.078339 221.861237,436.302521 213.432495,423.828064 
	C210.285126,418.372498 207.341431,413.549042 204.772797,408.533478 
	C192.817413,385.188934 187.732086,360.172882 186.987701,333.679382 
	C187.536514,326.786438 187.869736,320.333466 188.583466,313.922852 
	C190.568253,296.095886 196.580383,279.475891 204.367050,263.099243 
	C211.829620,250.413483 220.187912,238.872238 230.876633,229.127548 
	C246.532852,214.854141 264.921600,206.088730 285.957458,201.865906 
	C297.888672,201.829514 309.431854,201.761353 321.368835,201.815277 
	C329.873199,204.265457 337.943054,206.754349 346.118866,208.824936 
	C348.613739,209.456772 351.687103,209.695816 354.004425,208.818115 
	C365.572052,204.436874 377.368408,200.840317 389.764404,200.884491 
	C400.160797,200.921509 410.552582,202.258072 421.268311,203.209137 
	C423.966217,204.108978 426.350220,204.793579 428.717072,205.532898 
	C448.533752,211.722900 464.737061,223.420990 478.915771,238.703369 
	C489.779663,251.674271 498.074677,265.778992 503.698578,281.401031 
	C505.937897,287.621338 507.796692,293.978638 509.876770,300.671753 
	C510.287689,303.108978 510.510773,305.188690 511.085846,307.166016 
	C511.299530,307.900757 512.337769,308.395691 513.000000,309.000000 
	C513.000000,325.687561 513.000000,342.375122 512.654480,359.219330 
	C511.886078,360.050629 511.249603,360.673889 511.072968,361.407806 
	C509.061127,369.766998 507.653107,378.312286 505.062134,386.483948 
	C496.142395,414.615997 480.433624,438.241058 457.508118,457.073303 
	C433.757019,476.583740 406.712952,486.004730 375.990448,484.835632 
M379.327667,217.104538 
	C372.179718,219.288879 364.809692,220.944427 357.953705,223.823959 
	C352.415283,226.150131 347.777679,226.243988 342.275238,223.727371 
	C307.711914,207.919312 266.551788,215.393204 239.448120,241.851028 
	C214.147018,266.549225 203.197250,297.297455 202.264664,331.806885 
	C201.535889,358.775116 207.924744,384.405792 221.471771,407.889984 
	C238.971664,438.226562 263.628265,459.670288 298.608093,467.282379 
	C311.375092,470.060669 324.339172,470.500977 337.920776,466.348999 
	C347.318970,462.694214 356.311981,465.582886 365.669220,467.194458 
	C375.222229,468.839783 385.319214,469.373108 394.929565,468.255829 
	C423.894897,464.888306 446.876495,450.004150 464.990234,427.816223 
	C491.674988,395.129456 501.770264,357.251129 496.653107,315.630981 
	C492.890594,285.028687 480.357574,258.289917 456.485474,238.003372 
	C434.437592,219.267090 408.876709,212.047607 379.327667,217.104538 
z"/>
<path fill="#000000" opacity="1.000000" stroke="none" 
	d="
M289.000000,1.000001 
	C363.593719,1.000000 438.187408,1.000000 513.000000,1.000000 
	C513.000000,75.354088 513.000000,149.708389 512.587036,224.608551 
	C511.419891,220.876740 510.736145,216.585205 509.899902,212.323608 
	C505.201843,188.380402 498.066803,165.242050 487.111694,143.360001 
	C477.424377,124.010300 466.191132,105.615555 451.227295,89.912895 
	C439.492249,77.598473 427.589630,65.251839 414.465698,54.501324 
	C397.928528,40.954826 379.439026,30.166489 359.599365,21.778643 
	C337.699066,12.519585 315.211792,5.668432 291.537506,2.914685 
	C290.629730,2.809094 289.843079,1.661855 289.000000,1.000001 
z"/>
<path fill="#000000" opacity="1.000000" stroke="none" 
	d="
M1.000004,289.468658 
	C1.661901,289.844788 2.809828,290.633484 2.914742,291.542572 
	C5.669470,315.413025 12.589381,338.088043 21.987370,360.126526 
	C31.302372,381.970428 43.824345,401.879486 58.835484,420.102509 
	C71.916779,435.982758 86.712311,450.320343 103.305664,462.608154 
	C126.905891,480.084656 152.537277,493.825562 180.830429,501.884735 
	C194.672943,505.827637 209.010422,508.030457 223.114410,511.064789 
	C223.837463,511.220306 224.471191,511.790924 225.073257,512.584106 
	C150.406296,513.000000 75.812599,513.000000 1.000000,513.000000 
	C1.000000,438.645905 1.000000,364.291626 1.000004,289.468658 
z"/>
<path fill="#000000" opacity="1.000000" stroke="none" 
	d="
M111.995453,45.838120 
	C105.628685,50.426643 98.890091,54.586376 92.984810,59.707085 
	C84.721230,66.872780 76.866386,74.547203 69.216537,82.375214 
	C55.106552,96.813797 43.693390,113.275230 33.614414,130.737808 
	C20.938131,152.700424 12.215772,176.151276 6.664953,200.814499 
	C5.118875,207.683975 4.217523,214.697495 2.951541,221.632370 
	C2.790792,222.512955 2.210439,223.316940 1.412243,224.078201 
	C1.000000,149.752762 1.000000,75.505531 1.000000,1.000000 
	C52.353939,1.000000 103.708313,1.000000 155.510559,1.375624 
	C153.935226,9.152277 151.912018,16.553305 149.532928,23.988892 
	C146.420471,25.403601 143.663879,26.783751 140.480560,28.109184 
	C132.331818,27.705055 124.612076,27.285332 116.886833,27.035025 
	C112.849571,26.904213 110.363472,28.420511 110.957458,33.121815 
	C111.490021,37.337013 111.663544,41.597572 111.995453,45.838120 
z"/>
<path fill="#823873" opacity="1.000000" stroke="none" 
	d="
M288.531342,1.000001 
	C289.843079,1.661855 290.629730,2.809094 291.537506,2.914685 
	C315.211792,5.668432 337.699066,12.519585 359.599365,21.778643 
	C379.439026,30.166489 397.928528,40.954826 414.465698,54.501324 
	C427.589630,65.251839 439.492249,77.598473 451.227295,89.912895 
	C466.191132,105.615555 477.424377,124.010300 487.111694,143.360001 
	C498.066803,165.242050 505.201843,188.380402 509.899902,212.323608 
	C510.736145,216.585205 511.419891,220.876740 512.587036,225.077209 
	C513.000000,246.020889 513.000000,267.041779 512.585815,288.456818 
	C511.390656,292.658508 510.609680,296.466034 509.828735,300.273560 
	C507.796692,293.978638 505.937897,287.621338 503.698578,281.401031 
	C498.074677,265.778992 489.779663,251.674271 478.949860,238.245667 
	C478.534790,230.853027 478.547638,224.183121 477.845581,217.589325 
	C474.817841,189.152390 467.084717,162.166855 452.681091,137.256134 
	C429.400513,96.992943 396.534637,67.624229 353.419647,50.012268 
	C326.076324,38.842834 297.563721,34.274303 268.017517,35.531303 
	C268.907288,29.909376 267.124054,27.345442 261.479645,27.683332 
	C256.354095,27.990166 251.166473,27.426813 246.062225,27.879156 
	C240.542267,28.368343 235.087204,29.589863 230.316986,30.374640 
	C228.168137,21.794588 226.071915,13.617740 224.110977,5.408572 
	C223.776901,4.010014 224.022293,2.473032 224.000000,1.000000 
	C245.354233,1.000000 266.708466,1.000000 288.531342,1.000001 
z"/>
<path fill="#000000" opacity="1.000000" stroke="none" 
	d="
M375.631226,484.913605 
	C406.712952,486.004730 433.757019,476.583740 457.508118,457.073303 
	C480.433624,438.241058 496.142395,414.615997 505.062134,386.483948 
	C507.653107,378.312286 509.061127,369.766998 511.072968,361.407806 
	C511.249603,360.673889 511.886078,360.050629 512.654480,359.687988 
	C513.000000,410.940765 513.000000,461.881500 513.000000,513.000000 
	C438.645874,513.000000 364.291595,513.000000 289.468628,513.000000 
	C289.842651,512.338135 290.629028,511.190582 291.536224,511.085388 
	C315.213501,508.341644 337.797943,501.709869 359.565094,492.142639 
	C364.831146,489.828125 370.037933,487.378906 375.631226,484.913605 
z"/>
<path fill="#019B5E" opacity="1.000000" stroke="none" 
	d="
M223.550018,1.000000 
	C224.022293,2.473032 223.776901,4.010014 224.110977,5.408572 
	C226.071915,13.617740 228.168137,21.794588 230.316986,30.374640 
	C235.087204,29.589863 240.542267,28.368343 246.062225,27.879156 
	C251.166473,27.426813 256.354095,27.990166 261.479645,27.683332 
	C267.124054,27.345442 268.907288,29.909376 267.920654,35.940266 
	C266.693573,47.716396 264.266022,58.287575 258.566040,67.933228 
	C254.319534,66.444542 250.520706,64.555809 246.503998,63.740860 
	C237.411880,61.896164 228.212326,60.581020 219.006821,58.680496 
	C216.934372,51.548428 213.736160,49.039227 206.807175,49.011795 
	C194.884995,48.964588 182.962448,48.978737 171.040146,49.003639 
	C163.079910,49.020267 160.657181,51.061676 158.498962,59.073448 
	C155.453262,59.394630 152.814728,59.658012 150.194382,60.044521 
	C140.005753,61.547356 129.784225,62.963684 120.994377,69.023087 
	C118.148788,61.499683 115.303207,53.976280 112.226547,46.145500 
	C111.663544,41.597572 111.490021,37.337013 110.957458,33.121815 
	C110.363472,28.420511 112.849571,26.904213 116.886833,27.035025 
	C124.612076,27.285332 132.331818,27.705055 140.726486,28.377329 
	C144.041046,29.424320 146.682968,30.148453 149.888824,31.027161 
	C149.888824,28.186790 149.888824,26.070562 149.888824,23.954334 
	C151.912018,16.553305 153.935226,9.152277 155.979218,1.375624 
	C158.370560,1.000000 160.741104,1.000000 163.432587,1.369303 
	C170.123703,4.876290 176.493896,8.013975 182.967133,11.472092 
	C185.178833,13.529894 187.287537,15.267265 189.279541,16.908499 
	C195.151337,13.085132 200.604980,9.534030 206.036469,6.001411 
	C206.014282,6.019894 205.963593,6.047498 206.267914,6.103557 
	C207.079926,5.828312 207.587616,5.497008 208.415359,4.983868 
	C210.823624,3.534688 212.911804,2.267344 215.000000,1.000000 
	C217.700012,1.000000 220.400024,1.000000 223.550018,1.000000 
z"/>
<path fill="#000000" opacity="1.000000" stroke="none" 
	d="
M182.864105,11.151661 
	C176.493896,8.013975 170.123703,4.876290 163.876740,1.369303 
	C180.687561,1.000000 197.375122,1.000000 214.531342,1.000000 
	C212.911804,2.267344 210.823624,3.534688 208.087997,4.948180 
	C206.948242,5.412049 206.455917,5.729771 205.963593,6.047495 
	C205.963593,6.047498 206.014282,6.019894 205.610062,6.008821 
	C197.758591,7.715720 190.311356,9.433691 182.864105,11.151661 
z"/>
<path fill="#000000" opacity="1.000000" stroke="none" 
	d="
M509.876801,300.671753 
	C510.609680,296.466034 511.390656,292.658508 512.585815,288.925476 
	C513.000000,295.354401 513.000000,301.708801 513.000000,308.531616 
	C512.337769,308.395691 511.299530,307.900757 511.085846,307.166016 
	C510.510773,305.188690 510.287689,303.108978 509.876801,300.671753 
z"/>
<path fill="#FF8835" opacity="1.000000" stroke="none" 
	d="
M99.968048,325.219055 
	C60.653797,300.582153 38.993591,264.442810 32.678249,219.165817 
	C26.701189,176.314056 36.255188,137.268753 65.656540,104.436829 
	C79.419472,89.068031 96.495361,78.658867 117.078857,74.314743 
	C108.335358,88.812660 108.314812,103.265823 115.790771,118.101921 
	C117.392944,121.281448 119.139290,122.482872 122.728989,121.612495 
	C129.167572,120.051369 135.703308,118.890976 142.038391,117.914001 
	C141.280838,119.263992 140.745178,120.306641 140.076874,121.255898 
	C114.349907,157.797806 104.843834,198.066681 113.158150,242.072525 
	C118.981461,272.894073 133.162933,299.272919 158.416458,318.561646 
	C166.531769,324.760132 176.152283,328.987915 184.801605,334.353210 
	C171.595703,338.923676 158.397079,340.572327 144.757019,339.408081 
	C128.714172,338.038727 114.005226,332.763672 99.968048,325.219055 
z"/>
<path fill="#01B972" opacity="1.000000" stroke="none" 
	d="
M142.198441,117.563110 
	C135.703308,118.890976 129.167572,120.051369 122.728989,121.612495 
	C119.139290,122.482872 117.392944,121.281448 115.790771,118.101921 
	C108.314812,103.265823 108.335358,88.812660 117.506866,74.271461 
	C118.712265,72.510368 119.754089,71.099327 120.895142,69.355682 
	C129.784225,62.963684 140.005753,61.547356 150.194382,60.044521 
	C152.814728,59.658012 155.453262,59.394630 158.554199,59.432590 
	C161.070633,66.305771 164.187180,68.859749 170.887421,68.927925 
	C182.508453,69.046173 194.131653,69.003929 205.753647,68.957497 
	C213.835342,68.925209 216.622437,66.793289 219.056458,59.050518 
	C228.212326,60.581020 237.411880,61.896164 246.503998,63.740860 
	C250.520706,64.555809 254.319534,66.444542 258.753448,68.212677 
	C261.441406,71.389725 263.593231,74.199883 265.818481,77.390625 
	C272.340179,93.491325 268.746155,107.616493 259.261047,120.934875 
	C257.327545,123.649796 255.462250,124.535805 252.215378,123.473984 
	C241.867844,120.090073 231.444565,116.937767 220.583694,113.550392 
	C211.945709,124.725418 199.906296,132.497971 186.734558,138.810471 
	C184.148361,140.049881 182.326416,139.879257 179.971069,138.212997 
	C170.354706,131.410034 162.148743,123.353394 156.420624,112.648628 
	C151.534271,114.337112 146.866364,115.950119 142.198441,117.563110 
z"/>
<path fill="#9B4588" opacity="1.000000" stroke="none" 
	d="
M100.054886,325.554077 
	C114.005226,332.763672 128.714172,338.038727 144.757019,339.408081 
	C158.397079,340.572327 171.595703,338.923676 185.111298,334.359589 
	C186.117630,334.132904 186.531677,334.135803 186.945740,334.138702 
	C187.732086,360.172882 192.817413,385.188934 204.772797,408.533478 
	C207.341431,413.549042 210.285126,418.372498 213.182220,423.622559 
	C202.496368,419.387115 191.384781,415.403870 180.940979,410.104584 
	C164.386124,401.704407 149.922684,390.125732 136.908813,376.997955 
	C122.000183,361.958801 109.227806,345.204285 100.054886,325.554077 
z"/>
<path fill="#FFB509" opacity="1.000000" stroke="none" 
	d="
M337.081512,466.459381 
	C324.339172,470.500977 311.375092,470.060669 298.608093,467.282379 
	C263.628265,459.670288 238.971664,438.226562 221.471771,407.889984 
	C207.924744,384.405792 201.535889,358.775116 202.264664,331.806885 
	C203.197250,297.297455 214.147018,266.549225 239.448120,241.851028 
	C266.551788,215.393204 307.711914,207.919312 342.275238,223.727371 
	C347.777679,226.243988 352.415283,226.150131 357.953705,223.823959 
	C364.809692,220.944427 372.179718,219.288879 379.999847,217.306778 
	C389.568451,221.255676 397.270660,226.559708 403.234100,234.296860 
	C417.419922,252.701981 422.478180,273.603271 421.226654,296.551941 
	C420.254517,314.377625 414.960266,330.453644 404.223114,344.721832 
	C390.459747,363.011444 367.559723,371.253632 346.857300,360.206787 
	C344.937073,359.182159 341.560242,359.551575 339.407806,360.507599 
	C320.955872,368.703064 303.111572,365.796478 289.028137,351.454346 
	C284.001495,346.335388 279.796143,340.409912 275.130737,334.749207 
	C272.616882,350.008545 274.047882,365.195038 277.146057,380.228760 
	C283.781555,412.427002 299.279785,439.192139 326.252045,458.718933 
	C329.846100,461.320862 333.470947,463.880280 337.081512,466.459381 
M297.971771,283.549377 
	C286.952759,301.726349 289.118835,324.859009 303.049316,337.774506 
	C314.451782,348.346130 328.536957,344.714294 332.859741,329.827118 
	C336.449310,317.465027 335.728455,304.770721 334.189484,292.203400 
	C333.656830,287.853790 332.063721,283.458649 330.110382,279.501190 
	C327.455200,274.121948 322.580078,271.636963 316.523468,272.041290 
	C308.649109,272.567047 302.811401,276.627045 297.971771,283.549377 
M375.278503,272.873596 
	C364.648712,270.326416 357.250610,274.187042 354.376495,284.989990 
	C350.426636,299.836487 350.239929,315.031555 354.217834,329.867310 
	C358.222534,344.802948 372.670776,348.431732 383.951416,337.716339 
	C394.942291,327.276154 397.656128,314.095245 395.159882,299.712921 
	C393.111877,287.913147 388.191650,277.823181 375.278503,272.873596 
z"/>
<path fill="#FFEA00" opacity="1.000000" stroke="none" 
	d="
M337.501160,466.404175 
	C333.470947,463.880280 329.846100,461.320862 326.252045,458.718933 
	C299.279785,439.192139 283.781555,412.427002 277.146057,380.228760 
	C274.047882,365.195038 272.616882,350.008545 275.130737,334.749207 
	C279.796143,340.409912 284.001495,346.335388 289.028137,351.454346 
	C303.111572,365.796478 320.955872,368.703064 339.407806,360.507599 
	C341.560242,359.551575 344.937073,359.182159 346.857300,360.206787 
	C367.559723,371.253632 390.459747,363.011444 404.223114,344.721832 
	C414.960266,330.453644 420.254517,314.377625 421.226654,296.551941 
	C422.478180,273.603271 417.419922,252.701981 403.234100,234.296860 
	C397.270660,226.559708 389.568451,221.255676 380.403748,217.313385 
	C408.876709,212.047607 434.437592,219.267090 456.485474,238.003372 
	C480.357574,258.289917 492.890594,285.028687 496.653107,315.630981 
	C501.770264,357.251129 491.674988,395.129456 464.990234,427.816223 
	C446.876495,450.004150 423.894897,464.888306 394.929565,468.255829 
	C385.319214,469.373108 375.222229,468.839783 365.669220,467.194458 
	C356.311981,465.582886 347.318970,462.694214 337.501160,466.404175 
z"/>
<path fill="#FFB509" opacity="1.000000" stroke="none" 
	d="
M186.987701,333.679382 
	C186.531677,334.135803 186.117630,334.132904 185.393860,334.123657 
	C176.152283,328.987915 166.531769,324.760132 158.416458,318.561646 
	C133.162933,299.272919 118.981461,272.894073 113.158150,242.072525 
	C104.843834,198.066681 114.349907,157.797806 140.076874,121.255898 
	C140.745178,120.306641 141.280838,119.263992 142.038391,117.914009 
	C146.866364,115.950119 151.534271,114.337112 156.420624,112.648628 
	C162.148743,123.353394 170.354706,131.410034 179.971069,138.212997 
	C182.326416,139.879257 184.148361,140.049881 186.734558,138.810471 
	C199.906296,132.497971 211.945709,124.725418 220.583694,113.550392 
	C231.444565,116.937767 241.867844,120.090073 252.215378,123.473984 
	C255.462250,124.535805 257.327545,123.649796 259.261047,120.934875 
	C268.746155,107.616493 272.340179,93.491325 266.199371,77.429291 
	C284.299530,83.548866 298.907928,94.475502 311.078491,108.835426 
	C323.443970,123.425346 331.221497,140.389572 336.678223,158.736359 
	C333.684692,163.459427 330.849243,167.925049 327.704956,172.218613 
	C318.017059,164.617157 307.834229,158.711212 296.128265,155.247620 
	C294.466492,152.610840 293.011902,150.185028 291.237366,148.021637 
	C278.234253,132.169266 258.292389,127.896004 240.723236,138.402618 
	C233.790131,142.548721 227.444305,148.602158 222.567291,155.091858 
	C206.369843,176.645203 200.590515,201.883179 200.305710,228.267776 
	C200.179718,239.940674 202.752472,251.642731 204.100113,263.331543 
	C196.580383,279.475891 190.568253,296.095886 188.583466,313.922852 
	C187.869736,320.333466 187.536514,326.786438 186.987701,333.679382 
z"/>
<path fill="#9B4589" opacity="1.000000" stroke="none" 
	d="
M336.836304,158.478943 
	C331.221497,140.389572 323.443970,123.425346 311.078491,108.835426 
	C298.907928,94.475502 284.299530,83.548866 266.125916,77.048706 
	C263.593231,74.199883 261.441406,71.389725 259.102234,68.300110 
	C264.266022,58.287575 266.693573,47.716396 267.965393,36.377193 
	C297.563721,34.274303 326.076324,38.842834 353.419647,50.012268 
	C396.534637,67.624229 429.400513,96.992943 452.681091,137.256134 
	C467.084717,162.166855 474.817841,189.152390 477.845581,217.589325 
	C478.547638,224.183121 478.534790,230.853027 478.816833,237.945602 
	C464.737061,223.420990 448.533752,211.722900 428.717072,205.532898 
	C426.350220,204.793579 423.966217,204.108978 421.306671,202.779694 
	C422.484467,190.933563 421.519318,179.854675 418.363129,169.045609 
	C414.695465,156.484726 416.582428,157.401611 404.291840,161.369064 
	C396.169495,163.991013 388.530792,168.111389 380.785004,171.512787 
	C377.870819,165.847626 375.225403,159.721207 371.709351,154.143616 
	C368.122528,148.453751 363.680145,143.303177 358.726959,136.744003 
	C350.898499,144.516769 343.867401,151.497864 336.836304,158.478943 
z"/>
<path fill="#FFC143" opacity="1.000000" stroke="none" 
	d="
M204.367050,263.099243 
	C202.752472,251.642731 200.179718,239.940674 200.305710,228.267776 
	C200.590515,201.883179 206.369843,176.645203 222.567291,155.091858 
	C227.444305,148.602158 233.790131,142.548721 240.723236,138.402618 
	C258.292389,127.896004 278.234253,132.169266 291.237366,148.021637 
	C293.011902,150.185028 294.466492,152.610840 295.996033,155.617859 
	C288.527863,170.594604 284.813751,185.705978 285.569397,201.834137 
	C264.921600,206.088730 246.532852,214.854141 230.876633,229.127548 
	C220.187912,238.872238 211.829620,250.413483 204.367050,263.099243 
z"/>
<path fill="#02D583" opacity="1.000000" stroke="none" 
	d="
M336.678223,158.736359 
	C343.867401,151.497864 350.898499,144.516769 358.726959,136.744003 
	C363.680145,143.303177 368.122528,148.453751 371.709351,154.143616 
	C375.225403,159.721207 377.870819,165.847626 380.785004,171.512787 
	C388.530792,168.111389 396.169495,163.991013 404.291840,161.369064 
	C416.582428,157.401611 414.695465,156.484726 418.363129,169.045609 
	C421.519318,179.854675 422.484467,190.933563 420.984802,202.589798 
	C410.552582,202.258072 400.160797,200.921509 389.764404,200.884491 
	C377.368408,200.840317 365.572052,204.436874 354.004425,208.818115 
	C351.687103,209.695816 348.613739,209.456772 346.118866,208.824936 
	C337.943054,206.754349 329.873199,204.265457 321.377869,201.385834 
	C323.333374,191.353119 325.673584,181.871902 328.013794,172.390671 
	C330.849243,167.925049 333.684692,163.459427 336.678223,158.736359 
z"/>
<path fill="#03B971" opacity="1.000000" stroke="none" 
	d="
M327.704956,172.218613 
	C325.673584,181.871902 323.333374,191.353119 320.984070,201.263763 
	C309.431854,201.761353 297.888672,201.829514 285.957458,201.865906 
	C284.813751,185.705978 288.527863,170.594604 296.055115,155.950333 
	C307.834229,158.711212 318.017059,164.617157 327.704956,172.218613 
z"/>
<path fill="#7E3B73" opacity="1.000000" stroke="none" 
	d="
M149.532944,23.988894 
	C149.888824,26.070562 149.888824,28.186790 149.888824,31.027161 
	C146.682968,30.148453 144.041046,29.424320 141.153198,28.432041 
	C143.663879,26.783751 146.420471,25.403601 149.532944,23.988894 
z"/>
<path fill="#007F4B" opacity="1.000000" stroke="none" 
	d="
M219.006821,58.680496 
	C216.622437,66.793289 213.835342,68.925209 205.753647,68.957497 
	C194.131653,69.003929 182.508453,69.046173 170.887421,68.927925 
	C164.187180,68.859749 161.070633,66.305771 158.969742,59.431358 
	C160.657181,51.061676 163.079910,49.020267 171.040146,49.003639 
	C182.962448,48.978737 194.884995,48.964588 206.807175,49.011795 
	C213.736160,49.039227 216.934372,51.548428 219.006821,58.680496 
z"/>
<path fill="#7D3C72" opacity="1.000000" stroke="none" 
	d="
M182.967133,11.472093 
	C190.311356,9.433691 197.758591,7.715720 205.632233,5.990339 
	C200.604980,9.534030 195.151337,13.085132 189.279541,16.908499 
	C187.287537,15.267265 185.178833,13.529894 182.967133,11.472093 
z"/>
<path fill="#7D3C72" opacity="1.000000" stroke="none" 
	d="
M206.267914,6.103555 
	C206.455917,5.729771 206.948242,5.412049 207.767929,5.130015 
	C207.587616,5.497008 207.079926,5.828312 206.267914,6.103555 
z"/>
<path fill="#E75A20" opacity="1.000000" stroke="none" 
	d="
M298.171204,283.246216 
	C302.811401,276.627045 308.649109,272.567047 316.523468,272.041290 
	C322.580078,271.636963 327.455200,274.121948 330.110382,279.501190 
	C332.063721,283.458649 333.656830,287.853790 334.189484,292.203400 
	C335.728455,304.770721 336.449310,317.465027 332.859741,329.827118 
	C328.536957,344.714294 314.451782,348.346130 303.049316,337.774506 
	C289.118835,324.859009 286.952759,301.726349 298.171204,283.246216 
z"/>
<path fill="#E75A20" opacity="1.000000" stroke="none" 
	d="
M375.663300,272.989349 
	C388.191650,277.823181 393.111877,287.913147 395.159882,299.712921 
	C397.656128,314.095245 394.942291,327.276154 383.951416,337.716339 
	C372.670776,348.431732 358.222534,344.802948 354.217834,329.867310 
	C350.239929,315.031555 350.426636,299.836487 354.376495,284.989990 
	C357.250610,274.187042 364.648712,270.326416 375.663300,272.989349 
z"/>
</svg>