<svg version="1.1" id="Layer_1" xmlns="http://www.w3.org/2000/svg" xmlns:xlink="http://www.w3.org/1999/xlink" x="0px" y="0px"
	 width="100%" viewBox="0 0 512 512" enable-background="new 0 0 512 512" xml:space="preserve">
<path fill="#E31E7F" opacity="1.000000" stroke="none" 
	d="
M513.000000,235.000000 
	C513.000000,249.354233 513.000000,263.708466 512.621582,278.730774 
	C511.178162,287.345917 510.196442,295.305115 509.032654,303.237640 
	C505.596313,326.659637 497.802582,348.726074 487.490875,369.893005 
	C477.857941,389.666687 465.803467,407.869385 451.197998,424.433624 
	C437.164459,440.349213 421.824921,454.711975 404.521057,466.997589 
	C386.593140,479.726257 367.290558,489.940369 346.723633,497.541779 
	C328.826111,504.156586 310.395599,509.022614 291.314728,511.039886 
	C287.186890,511.476257 283.103729,512.335510 279.000000,513.000000 
	C264.312439,513.000000 249.624878,513.000000 234.275772,512.625488 
	C230.534668,511.840668 227.466019,511.299255 224.373734,511.042084 
	C207.241623,509.617035 190.646622,505.493561 174.549911,499.824402 
	C162.473312,495.571136 150.870255,489.921783 139.199188,484.581848 
	C125.239815,478.195007 112.641449,469.589417 100.889801,459.676483 
	C155.546326,413.408875 210.073990,367.494141 264.477875,321.433258 
	C277.539093,310.375000 291.631531,300.380432 301.955109,286.363831 
	C319.952698,261.928101 325.730225,226.788956 305.934875,201.815826 
	C307.411957,201.839600 308.986938,201.648575 309.708221,202.343552 
	C319.678284,211.950195 332.004242,216.684448 345.217316,219.290131 
	C361.314667,222.464584 377.353119,222.430725 392.770813,215.937759 
	C400.944763,212.495422 408.150024,207.627777 410.220123,198.206573 
	C410.897339,195.124527 410.326630,191.768295 410.326630,188.740692 
	C418.053925,187.093552 425.611389,185.869263 432.943848,183.834351 
	C445.856079,180.250992 458.077026,175.109573 467.916718,165.551895 
	C477.938477,155.817337 477.303314,146.273148 466.141022,138.127045 
	C465.664948,137.779617 465.346069,137.216797 464.588226,136.322922 
	C470.001465,134.157532 475.005859,132.155701 480.145813,130.468994 
	C486.084015,142.961121 492.681732,154.833054 497.498444,167.388260 
	C504.320587,185.170853 509.043854,203.640366 511.040771,222.701263 
	C511.472687,226.824005 512.335632,230.901611 513.000000,235.000000 
z"/>
<path fill="#E31E7F" opacity="1.000000" stroke="none" 
	d="
M235.000000,1.000000 
	C249.354233,1.000000 263.708466,1.000000 278.730835,1.378432 
	C309.801666,3.932617 338.717346,11.663015 365.881653,25.220543 
	C344.441040,35.415459 331.961578,53.399868 322.022675,73.008904 
	C317.650757,72.487152 313.708649,71.399658 309.862183,71.670578 
	C297.107025,72.569008 288.265259,80.189140 282.038849,90.459076 
	C268.163940,113.344482 265.846069,136.799133 280.548431,160.551727 
	C278.093536,164.322403 275.556702,168.218918 272.675751,172.022125 
	C258.276520,163.489838 243.190201,162.086273 227.504623,165.671463 
	C205.531235,170.693802 188.834183,183.479980 175.368637,201.171524 
	C128.645615,262.558044 81.810791,323.859467 34.703323,385.010864 
	C30.571199,377.115204 26.618378,369.465729 22.963026,361.676636 
	C12.464702,339.306061 6.063588,315.756042 2.972422,291.267578 
	C2.454030,287.160828 1.664334,283.088318 0.999999,279.000000 
	C1.000000,264.645782 1.000000,250.291550 1.378421,235.269196 
	C2.821784,226.654144 3.803651,218.695023 4.967302,210.762573 
	C8.403219,187.340393 16.197477,165.274124 26.509026,144.107147 
	C36.141861,124.333389 48.196404,106.130692 62.801918,89.566452 
	C76.835464,73.650902 92.174934,59.288059 109.478836,47.002480 
	C127.406776,34.273834 146.709290,24.059530 167.276306,16.458183 
	C185.173874,9.843433 203.604385,4.977361 222.685211,2.960067 
	C226.813080,2.523654 230.896240,1.664459 235.000000,1.000000 
z"/>
<path fill="#04D481" opacity="1.000000" stroke="none" 
	d="
M273.019897,172.115417 
	C275.556702,168.218918 278.093536,164.322403 280.548431,160.551727 
	C265.846069,136.799133 268.163940,113.344482 282.038849,90.459076 
	C288.265259,80.189140 297.107025,72.569008 309.862183,71.670578 
	C313.708649,71.399658 317.650757,72.487152 322.022675,73.008904 
	C331.961578,53.399868 344.441040,35.415459 366.235962,25.067736 
	C379.665497,19.702335 389.921112,25.458092 392.390503,34.510815 
	C398.846008,28.703049 405.107544,22.589725 411.874298,17.099081 
	C421.089996,9.621348 431.685852,4.553244 443.000000,1.000000 
	C447.356903,1.000000 451.713806,1.000000 456.658142,1.336975 
	C461.889771,3.026919 464.706512,6.227295 465.968628,10.744054 
	C468.926300,21.328487 464.814484,30.804832 459.781250,39.374672 
	C453.712646,49.707390 446.099731,59.133080 439.125916,68.992889 
	C444.670593,71.442780 452.050781,73.209595 453.038330,82.325394 
	C452.748047,84.528275 452.715332,86.388184 452.157257,88.074181 
	C450.513977,93.038689 448.662415,97.934235 446.619843,103.051468 
	C437.229645,111.668053 428.300018,120.307922 418.906860,128.410431 
	C414.839325,131.919083 409.815918,134.319626 404.663910,137.579605 
	C406.046722,139.075043 407.003937,140.110214 407.974915,141.557556 
	C410.394897,150.761383 407.951935,158.402237 402.296753,165.181107 
	C400.503876,167.330215 398.529572,169.404419 396.338654,171.133179 
	C372.871918,189.649719 346.829712,195.764252 317.736816,187.444336 
	C316.038483,186.958633 313.644440,187.537598 312.019257,188.430893 
	C307.822632,190.737656 303.875458,193.498337 299.533112,195.955383 
	C297.872437,194.495636 296.507294,193.158249 295.310730,191.548355 
	C301.899261,182.777039 308.047699,174.055573 314.796204,165.826202 
	C328.391754,149.247360 341.977234,132.636642 356.227081,116.626740 
	C364.836639,106.953827 374.398651,98.062729 384.069763,89.421432 
	C391.861664,82.459259 400.526917,76.482590 408.668579,69.900284 
	C412.464325,66.831551 413.038635,62.170441 410.558990,58.368736 
	C407.929016,54.336632 403.810730,53.051868 399.245850,55.182316 
	C396.700897,56.370056 394.267212,57.890888 391.993011,59.549095 
	C374.047394,72.633904 358.174896,87.911087 343.041992,104.174271 
	C321.003510,127.858826 301.177582,153.259598 281.610107,179.041168 
	C278.537476,176.647888 275.778687,174.381653 273.019897,172.115417 
z"/>
<path fill="#FFFFFF" opacity="1.000000" stroke="none" 
	d="
M0.999999,279.468658 
	C1.664334,283.088318 2.454030,287.160828 2.972422,291.267578 
	C6.063588,315.756042 12.464702,339.306061 22.963026,361.676636 
	C26.618378,369.465729 30.571199,377.115204 34.714573,385.360046 
	C35.704872,386.989258 36.314392,388.124359 37.041481,389.178345 
	C41.631950,395.832764 46.248489,402.469238 50.898598,409.463379 
	C61.169079,425.019958 74.609688,437.322449 87.588173,450.006256 
	C91.487480,453.816986 96.313866,456.679077 100.715561,459.975739 
	C112.641449,469.589417 125.239815,478.195007 139.199188,484.581848 
	C150.870255,489.921783 162.473312,495.571136 174.549911,499.824402 
	C190.646622,505.493561 207.241623,509.617035 224.373734,511.042084 
	C227.466019,511.299255 230.534668,511.840668 233.807114,512.625488 
	C156.406143,513.000000 78.812286,513.000000 1.000000,513.000000 
	C1.000000,435.312561 1.000000,357.624939 0.999999,279.468658 
z"/>
<path fill="#FFFFFF" opacity="1.000000" stroke="none" 
	d="
M234.531342,1.000000 
	C230.896240,1.664459 226.813080,2.523654 222.685211,2.960067 
	C203.604385,4.977361 185.173874,9.843433 167.276306,16.458183 
	C146.709290,24.059530 127.406776,34.273834 109.478836,47.002480 
	C92.174934,59.288059 76.835464,73.650902 62.801918,89.566452 
	C48.196404,106.130692 36.141861,124.333389 26.509026,144.107147 
	C16.197477,165.274124 8.403219,187.340393 4.967302,210.762573 
	C3.803651,218.695023 2.821784,226.654144 1.378421,234.800537 
	C1.000000,157.072952 1.000000,79.145912 1.000000,1.000000 
	C78.687424,1.000000 156.375061,1.000000 234.531342,1.000000 
z"/>
<path fill="#FFFFFF" opacity="1.000000" stroke="none" 
	d="
M279.468658,513.000000 
	C283.103729,512.335510 287.186890,511.476257 291.314728,511.039886 
	C310.395599,509.022614 328.826111,504.156586 346.723633,497.541779 
	C367.290558,489.940369 386.593140,479.726257 404.521057,466.997589 
	C421.824921,454.711975 437.164459,440.349213 451.197998,424.433624 
	C465.803467,407.869385 477.857941,389.666687 487.490875,369.893005 
	C497.802582,348.726074 505.596313,326.659637 509.032654,303.237640 
	C510.196442,295.305115 511.178162,287.345917 512.621582,279.199463 
	C513.000000,356.927032 513.000000,434.854095 513.000000,513.000000 
	C435.312561,513.000000 357.624939,513.000000 279.468658,513.000000 
z"/>
<path fill="#09B772" opacity="1.000000" stroke="none" 
	d="
M299.828644,196.077728 
	C303.875458,193.498337 307.822632,190.737656 312.019257,188.430893 
	C313.644440,187.537598 316.038483,186.958633 317.736816,187.444336 
	C346.829712,195.764252 372.871918,189.649719 396.338654,171.133179 
	C398.529572,169.404419 400.503876,167.330215 402.296753,165.181107 
	C407.951935,158.402237 410.394897,150.761383 408.214661,141.297440 
	C409.281708,140.097061 410.081177,139.482834 410.969971,139.053452 
	C434.303070,127.780701 457.694794,116.694214 483.384155,111.583015 
	C490.141632,110.238541 493.005981,106.023651 491.809662,100.346901 
	C490.674164,94.958473 485.818176,92.072372 479.445312,93.721382 
	C468.536774,96.544037 457.737518,99.789093 446.892395,102.856773 
	C448.662415,97.934235 450.513977,93.038689 452.157257,88.074181 
	C452.715332,86.388184 452.748047,84.528275 453.399353,82.229706 
	C465.994690,76.952209 478.684052,75.313194 491.717865,76.003830 
	C500.456726,76.466888 508.165405,78.962112 513.000000,87.000000 
	C513.000000,90.361290 513.000000,93.722572 512.661865,97.660477 
	C508.550446,103.657967 505.508331,109.845871 500.824188,114.311310 
	C494.552032,120.290611 487.008087,124.935829 480.010223,130.153870 
	C475.005859,132.155701 470.001465,134.157532 464.588226,136.322922 
	C465.346069,137.216797 465.664948,137.779617 466.141022,138.127045 
	C477.303314,146.273148 477.938477,155.817337 467.916718,165.551895 
	C458.077026,175.109573 445.856079,180.250992 432.943848,183.834351 
	C425.611389,185.869263 418.053925,187.093552 410.326630,188.740692 
	C410.326630,191.768295 410.897339,195.124527 410.220123,198.206573 
	C408.150024,207.627777 400.944763,212.495422 392.770813,215.937759 
	C377.353119,222.430725 361.314667,222.464584 345.217316,219.290131 
	C332.004242,216.684448 319.678284,211.950195 309.708221,202.343552 
	C308.986938,201.648575 307.411957,201.839600 305.694275,201.619568 
	C303.379333,199.772873 301.603973,197.925293 299.828644,196.077728 
z"/>
<path fill="#FFFFFF" opacity="1.000000" stroke="none" 
	d="
M513.000000,86.531342 
	C508.165405,78.962112 500.456726,76.466888 491.717865,76.003830 
	C478.684052,75.313194 465.994690,76.952209 453.416809,81.807251 
	C452.050781,73.209595 444.670593,71.442780 439.125916,68.992889 
	C446.099731,59.133080 453.712646,49.707390 459.781250,39.374672 
	C464.814484,30.804832 468.926300,21.328487 465.968628,10.744054 
	C464.706512,6.227295 461.889771,3.026919 457.122803,1.336975 
	C475.608978,1.000000 494.217926,1.000000 513.000000,1.000000 
	C513.000000,29.353992 513.000000,57.708340 513.000000,86.531342 
z"/>
<path fill="#FFFFFF" opacity="1.000000" stroke="none" 
	d="
M442.531342,1.000000 
	C431.685852,4.553244 421.089996,9.621348 411.874298,17.099081 
	C405.107544,22.589725 398.846008,28.703049 392.390503,34.510815 
	C389.921112,25.458092 379.665497,19.702335 366.492371,24.824841 
	C338.717346,11.663015 309.801666,3.932617 279.199463,1.378432 
	C333.354218,1.000000 387.708466,1.000000 442.531342,1.000000 
z"/>
<path fill="#FFFFFF" opacity="1.000000" stroke="none" 
	d="
M480.145813,130.468994 
	C487.008087,124.935829 494.552032,120.290611 500.824188,114.311310 
	C505.508331,109.845871 508.550446,103.657967 512.661865,98.118546 
	C513.000000,143.354233 513.000000,188.708450 513.000000,234.531342 
	C512.335632,230.901611 511.472687,226.824005 511.040771,222.701263 
	C509.043854,203.640366 504.320587,185.170853 497.498444,167.388260 
	C492.681732,154.833054 486.084015,142.961121 480.145813,130.468994 
z"/>
<path fill="#FDBF43" opacity="1.000000" stroke="none" 
	d="
M299.533112,195.955383 
	C301.603973,197.925293 303.379333,199.772873 305.395264,201.816711 
	C325.730225,226.788956 319.952698,261.928101 301.955109,286.363831 
	C291.631531,300.380432 277.539093,310.375000 264.477875,321.433258 
	C210.073990,367.494141 155.546326,413.408875 100.889801,459.676483 
	C96.313866,456.679077 91.487480,453.816986 87.588173,450.006256 
	C74.609688,437.322449 61.169079,425.019958 51.212173,409.312134 
	C54.228558,405.479126 56.985664,402.159027 59.716019,398.817078 
	C65.417992,391.837830 65.412231,391.833038 72.578697,397.440002 
	C73.234650,397.953217 73.863441,398.505951 74.549339,398.975281 
	C78.582527,401.735352 83.237198,401.328949 86.304398,397.970245 
	C89.518204,394.450989 89.740196,390.041779 86.602341,386.174286 
	C84.826706,383.985748 82.773453,381.985809 80.647827,380.126648 
	C77.661003,377.514130 77.673851,375.217682 80.130188,372.041046 
	C92.964035,355.443787 105.664139,338.741669 118.254196,321.958557 
	C120.874199,318.465973 123.006897,318.509949 125.878197,321.441864 
	C130.657120,326.321594 135.318024,331.378479 140.565247,335.710846 
	C143.022537,337.739685 146.845444,339.484497 149.850845,339.207062 
	C157.107819,338.537140 159.580597,329.488708 154.229141,323.803436 
	C148.637039,317.862488 142.799469,312.135681 136.822433,306.580811 
	C133.650558,303.632935 133.860352,301.280914 136.410675,298.080719 
	C142.843079,290.009308 149.007278,281.724304 155.290878,273.533997 
	C170.695221,253.455383 186.083740,233.364563 201.530823,213.318848 
	C205.300095,208.427429 205.825943,208.466003 210.339798,212.705307 
	C215.072174,217.149826 219.583359,221.867065 224.619827,225.934387 
	C227.024902,227.876648 230.519394,229.753021 233.340469,229.516113 
	C235.879044,229.302933 239.635437,226.527145 240.211319,224.221436 
	C240.972794,221.172714 240.178848,216.666901 238.238785,214.235062 
	C234.229813,209.209808 229.032745,205.129196 224.300690,200.685242 
	C221.361755,197.925247 221.340881,195.634201 225.270950,193.875412 
	C230.434052,191.564804 235.436539,188.759201 240.786987,187.028915 
	C256.648529,181.899445 272.462830,181.395721 287.918854,188.864136 
	C289.219452,189.492569 290.772095,189.599380 292.145630,189.989349 
	C292.083649,190.030197 291.990204,189.914795 292.209442,190.153091 
	C292.806244,190.600586 293.183807,190.809799 293.778992,191.075378 
	C294.378448,191.361465 294.760284,191.591156 295.142151,191.820847 
	C296.507294,193.158249 297.872437,194.495636 299.533112,195.955383 
M216.980560,269.492218 
	C222.188751,274.386475 227.332413,279.351898 232.625824,284.152191 
	C236.754349,287.896088 241.357193,287.896729 245.149902,284.429993 
	C248.708008,281.177704 249.588470,276.122437 246.040146,272.387817 
	C239.423157,265.423401 232.424255,258.756195 225.057785,252.594833 
	C220.811279,249.043030 215.054489,251.060577 212.458496,255.982361 
	C210.080093,260.491577 211.004623,263.490814 216.980560,269.492218 
M210.029297,313.496368 
	C205.826874,309.731537 201.891479,305.595612 197.337997,302.318573 
	C193.658051,299.670197 189.600967,300.737915 186.519867,304.063995 
	C183.754776,307.048950 182.622452,311.068848 185.333435,314.092499 
	C190.630936,320.000946 196.277023,325.770142 202.571182,330.554565 
	C207.251511,334.112213 213.337738,330.935699 215.156189,325.222717 
	C216.777252,320.129852 213.729645,317.057800 210.029297,313.496368 
M148.063324,396.878601 
	C153.482391,392.091339 154.107574,387.622864 149.375397,382.289948 
	C145.751511,378.205994 141.514633,374.658417 137.481903,370.946686 
	C132.405045,366.273895 127.441521,366.079315 123.373169,370.285919 
	C119.822952,373.956787 120.216278,379.401611 124.730453,384.040283 
	C128.318451,387.727295 132.298630,391.029205 135.992264,394.617828 
	C139.299942,397.831421 142.976883,398.957581 148.063324,396.878601 
M289.059692,265.751434 
	C285.250397,256.223206 277.734558,250.081833 269.191498,245.361588 
	C265.938110,243.563995 261.975861,245.257584 259.694824,248.776672 
	C257.380432,252.347183 257.117004,256.174957 260.057800,259.356567 
	C264.552124,264.218933 269.136841,269.086487 274.237366,273.277405 
	C280.749634,278.628235 288.185333,275.058563 289.059692,265.751434 
M90.510529,433.070892 
	C95.948570,437.839508 100.322166,438.171021 104.470299,434.128998 
	C108.459969,430.241333 108.191383,425.070831 103.378822,420.072205 
	C100.750946,417.342712 97.878853,414.752533 94.765114,412.610992 
	C90.930344,409.973602 86.075172,410.988312 83.162407,414.484833 
	C80.314621,417.903351 80.284622,422.224304 83.369591,425.828430 
	C85.413254,428.215973 87.776482,430.329987 90.510529,433.070892 
z"/>
<path fill="#FDA801" opacity="1.000000" stroke="none" 
	d="
M292.207642,189.948517 
	C290.772095,189.599380 289.219452,189.492569 287.918854,188.864136 
	C272.462830,181.395721 256.648529,181.899445 240.786987,187.028915 
	C235.436539,188.759201 230.434052,191.564804 225.270950,193.875412 
	C221.340881,195.634201 221.361755,197.925247 224.300690,200.685242 
	C229.032745,205.129196 234.229813,209.209808 238.238785,214.235062 
	C240.178848,216.666901 240.972794,221.172714 240.211319,224.221436 
	C239.635437,226.527145 235.879044,229.302933 233.340469,229.516113 
	C230.519394,229.753021 227.024902,227.876648 224.619827,225.934387 
	C219.583359,221.867065 215.072174,217.149826 210.339798,212.705307 
	C205.825943,208.466003 205.300095,208.427429 201.530823,213.318848 
	C186.083740,233.364563 170.695221,253.455383 155.290878,273.533997 
	C149.007278,281.724304 142.843079,290.009308 136.410675,298.080719 
	C133.860352,301.280914 133.650558,303.632935 136.822433,306.580811 
	C142.799469,312.135681 148.637039,317.862488 154.229141,323.803436 
	C159.580597,329.488708 157.107819,338.537140 149.850845,339.207062 
	C146.845444,339.484497 143.022537,337.739685 140.565247,335.710846 
	C135.318024,331.378479 130.657120,326.321594 125.878197,321.441864 
	C123.006897,318.509949 120.874199,318.465973 118.254196,321.958557 
	C105.664139,338.741669 92.964035,355.443787 80.130188,372.041046 
	C77.673851,375.217682 77.661003,377.514130 80.647827,380.126648 
	C82.773453,381.985809 84.826706,383.985748 86.602341,386.174286 
	C89.740196,390.041779 89.518204,394.450989 86.304398,397.970245 
	C83.237198,401.328949 78.582527,401.735352 74.549339,398.975281 
	C73.863441,398.505951 73.234650,397.953217 72.578697,397.440002 
	C65.412231,391.833038 65.417992,391.837830 59.716019,398.817078 
	C56.985664,402.159027 54.228558,405.479126 51.169998,408.960388 
	C46.248489,402.469238 41.631950,395.832764 37.041481,389.178345 
	C36.314392,388.124359 35.704872,386.989258 35.029743,385.542480 
	C81.810791,323.859467 128.645615,262.558044 175.368637,201.171524 
	C188.834183,183.479980 205.531235,170.693802 227.504623,165.671463 
	C243.190201,162.086273 258.276520,163.489838 272.675751,172.022125 
	C275.778687,174.381653 278.537476,176.647888 281.749573,179.340820 
	C285.537811,183.161194 288.872742,186.554855 292.207642,189.948517 
z"/>
<path fill="#08B772" opacity="1.000000" stroke="none" 
	d="
M292.145630,189.989349 
	C288.872742,186.554855 285.537811,183.161194 282.063416,179.467865 
	C301.177582,153.259598 321.003510,127.858826 343.041992,104.174271 
	C358.174896,87.911087 374.047394,72.633904 391.993011,59.549095 
	C394.267212,57.890888 396.700897,56.370056 399.245850,55.182316 
	C403.810730,53.051868 407.929016,54.336632 410.558990,58.368736 
	C413.038635,62.170441 412.464325,66.831551 408.668579,69.900284 
	C400.526917,76.482590 391.861664,82.459259 384.069763,89.421432 
	C374.398651,98.062729 364.836639,106.953827 356.227081,116.626740 
	C341.977234,132.636642 328.391754,149.247360 314.796204,165.826202 
	C308.047699,174.055573 301.899261,182.777039 295.310730,191.548355 
	C294.760284,191.591156 294.378448,191.361465 293.595245,190.785660 
	C292.792664,190.264633 292.391449,190.089706 291.990204,189.914795 
	C291.990204,189.914795 292.083649,190.030197 292.145630,189.989349 
z"/>
<path fill="#069A5F" opacity="1.000000" stroke="none" 
	d="
M446.619812,103.051453 
	C457.737518,99.789093 468.536774,96.544037 479.445312,93.721382 
	C485.818176,92.072372 490.674164,94.958473 491.809662,100.346901 
	C493.005981,106.023651 490.141632,110.238541 483.384155,111.583015 
	C457.694794,116.694214 434.303070,127.780701 410.969971,139.053452 
	C410.081177,139.482834 409.281708,140.097061 408.200867,140.885254 
	C407.003937,140.110214 406.046722,139.075043 404.663910,137.579605 
	C409.815918,134.319626 414.839325,131.919083 418.906860,128.410431 
	C428.300018,120.307922 437.229645,111.668053 446.619812,103.051453 
z"/>
<path fill="#FDA801" opacity="1.000000" stroke="none" 
	d="
M216.724670,269.242249 
	C211.004623,263.490814 210.080093,260.491577 212.458496,255.982361 
	C215.054489,251.060577 220.811279,249.043030 225.057785,252.594833 
	C232.424255,258.756195 239.423157,265.423401 246.040146,272.387817 
	C249.588470,276.122437 248.708008,281.177704 245.149902,284.429993 
	C241.357193,287.896729 236.754349,287.896088 232.625824,284.152191 
	C227.332413,279.351898 222.188751,274.386475 216.724670,269.242249 
z"/>
<path fill="#FDA801" opacity="1.000000" stroke="none" 
	d="
M210.284149,313.746826 
	C213.729645,317.057800 216.777252,320.129852 215.156189,325.222717 
	C213.337738,330.935699 207.251511,334.112213 202.571182,330.554565 
	C196.277023,325.770142 190.630936,320.000946 185.333435,314.092499 
	C182.622452,311.068848 183.754776,307.048950 186.519867,304.063995 
	C189.600967,300.737915 193.658051,299.670197 197.337997,302.318573 
	C201.891479,305.595612 205.826874,309.731537 210.284149,313.746826 
z"/>
<path fill="#FDA801" opacity="1.000000" stroke="none" 
	d="
M147.714966,397.060760 
	C142.976883,398.957581 139.299942,397.831421 135.992264,394.617828 
	C132.298630,391.029205 128.318451,387.727295 124.730453,384.040283 
	C120.216278,379.401611 119.822952,373.956787 123.373169,370.285919 
	C127.441521,366.079315 132.405045,366.273895 137.481903,370.946686 
	C141.514633,374.658417 145.751511,378.205994 149.375397,382.289948 
	C154.107574,387.622864 153.482391,392.091339 147.714966,397.060760 
z"/>
<path fill="#FDA801" opacity="1.000000" stroke="none" 
	d="
M289.076538,266.158142 
	C288.185333,275.058563 280.749634,278.628235 274.237366,273.277405 
	C269.136841,269.086487 264.552124,264.218933 260.057800,259.356567 
	C257.117004,256.174957 257.380432,252.347183 259.694824,248.776672 
	C261.975861,245.257584 265.938110,243.563995 269.191498,245.361588 
	C277.734558,250.081833 285.250397,256.223206 289.076538,266.158142 
z"/>
<path fill="#FDA801" opacity="1.000000" stroke="none" 
	d="
M90.253586,432.818665 
	C87.776482,430.329987 85.413254,428.215973 83.369591,425.828430 
	C80.284622,422.224304 80.314621,417.903351 83.162407,414.484833 
	C86.075172,410.988312 90.930344,409.973602 94.765114,412.610992 
	C97.878853,414.752533 100.750946,417.342712 103.378822,420.072205 
	C108.191383,425.070831 108.459969,430.241333 104.470299,434.128998 
	C100.322166,438.171021 95.948570,437.839508 90.253586,432.818665 
z"/>
<path fill="#FDA801" opacity="1.000000" stroke="none" 
	d="
M292.209442,190.153091 
	C292.391449,190.089706 292.792664,190.264633 293.377625,190.729279 
	C293.183807,190.809799 292.806244,190.600586 292.209442,190.153091 
z"/>
</svg>