<svg version="1.1" id="Layer_1" xmlns="http://www.w3.org/2000/svg" xmlns:xlink="http://www.w3.org/1999/xlink" x="0px" y="0px"
	 width="100%" viewBox="0 0 512 512" enable-background="new 0 0 512 512" xml:space="preserve">
<path fill="#000000" opacity="1.000000" stroke="none" 
	d="
M226.000000,513.000000 
	C151.031357,513.000000 76.062698,513.000000 1.047026,513.000000 
	C1.047026,342.436035 1.047026,171.872055 1.047026,1.000000 
	C101.355133,1.000000 201.710587,1.000000 302.741119,1.363446 
	C302.926056,2.121426 302.485474,2.764368 301.938416,2.873447 
	C292.879486,4.679713 285.279327,9.314767 278.123810,14.574421 
	C278.374176,9.803991 276.561096,7.647207 271.983643,7.967842 
	C268.681915,8.199115 265.359283,8.131265 261.597778,8.119101 
	C249.987228,7.825987 249.987289,7.825987 249.985413,18.895622 
	C249.985184,20.228052 249.983673,21.560484 249.519150,22.939571 
	C243.461929,23.323660 237.820038,23.310104 232.284805,24.071739 
	C220.838074,25.646791 209.280609,26.931091 198.070114,29.600756 
	C175.587997,34.954643 154.381226,43.747234 134.270920,55.236919 
	C117.887138,64.597534 102.759041,75.708046 89.145691,88.631027 
	C79.735184,97.564293 71.206406,107.528236 63.021854,117.629753 
	C46.313786,138.251129 34.178059,161.525146 25.248243,186.457870 
	C18.088812,206.447540 13.233652,227.122711 12.267250,248.260773 
	C11.348846,268.348969 11.122348,288.547394 14.838513,308.606384 
	C17.772619,324.444000 21.470484,339.982300 27.499720,354.901520 
	C31.434681,364.638519 35.814842,374.195587 39.531006,383.898132 
	C32.083385,383.974152 25.100025,384.028931 18.117430,383.978088 
	C14.612497,383.952576 12.962421,385.495758 12.980793,389.058380 
	C13.037379,400.031647 13.030016,411.005524 12.985331,421.978882 
	C12.970817,425.543182 14.659402,427.041016 18.162933,427.018707 
	C34.452991,426.914917 50.743496,426.881439 67.379967,426.890503 
	C68.799095,427.335968 69.872108,427.713745 71.081467,428.397461 
	C82.120399,439.270081 92.418961,450.564728 104.068497,460.231293 
	C121.145622,474.401520 140.382019,485.380219 160.900986,493.987640 
	C181.053360,502.441315 201.793213,508.705597 223.607483,511.085999 
	C224.464417,511.179504 225.205139,512.337830 226.000000,513.000000 
z"/>
<path fill="#000000" opacity="1.000000" stroke="none" 
	d="
M335.000000,0.999998 
	C394.305023,1.000000 453.610016,1.000000 512.957520,1.000000 
	C512.957520,171.556900 512.957520,342.113800 512.957520,513.000000 
	C438.645569,513.000000 364.290619,513.000000 289.295227,512.598877 
	C289.328705,511.807983 289.972504,511.146210 290.680939,511.067841 
	C314.079315,508.477570 336.257446,501.474030 357.655884,492.011780 
	C390.984558,477.274109 419.150879,455.498596 443.425476,427.891510 
	C445.561890,427.461456 447.321594,427.037537 449.082703,427.031464 
	C464.361450,426.978638 479.641479,426.903168 494.918793,427.061249 
	C499.415039,427.107788 501.141815,425.419586 501.060760,420.919708 
	C500.872375,410.460358 500.931396,399.994629 501.035431,389.532898 
	C501.075073,385.546051 499.463470,383.872955 495.410248,383.946625 
	C488.275909,384.076355 481.135773,383.885376 474.007507,383.466919 
	C489.862183,353.228912 499.666046,321.384308 501.669586,287.719482 
	C502.802521,268.683441 501.681732,249.341705 499.667297,230.340027 
	C497.797333,212.700699 492.548584,195.562531 485.986023,178.697906 
	C487.374878,175.918335 488.612305,173.458359 489.918762,170.623688 
	C487.601044,161.770401 481.238129,157.100952 473.882202,153.024063 
	C471.894958,148.784363 469.880463,144.929474 467.942139,140.619598 
	C467.032959,134.727982 466.047607,129.291382 464.889496,123.519600 
	C460.810638,122.400551 456.904510,121.616676 452.993774,120.484688 
	C430.523895,89.910583 402.272980,66.566444 368.932129,49.082726 
	C370.962189,44.858219 372.897675,40.940105 374.793945,36.660332 
	C371.189209,30.708033 368.123840,24.706188 363.943298,19.621183 
	C357.341766,11.591372 348.489227,6.647291 338.503174,3.695383 
	C337.185028,3.305737 336.160522,1.922864 335.000000,0.999998 
z"/>
<path fill="#28A5A5" opacity="1.000000" stroke="none" 
	d="
M443.049377,428.091370 
	C419.150879,455.498596 390.984558,477.274109 357.655884,492.011780 
	C336.257446,501.474030 314.079315,508.477570 290.680939,511.067841 
	C289.972504,511.146210 289.328705,511.807983 288.827393,512.598877 
	C286.299988,513.000000 283.599976,513.000000 280.357178,512.636353 
	C278.620667,511.828094 277.461334,511.165985 276.228119,510.970947 
	C252.280518,507.184296 229.111389,500.891022 207.033951,490.628662 
	C174.423264,475.470093 146.192551,454.633850 123.467880,427.053925 
	C228.563614,427.019165 333.191162,427.003571 437.818695,427.044037 
	C439.562408,427.044708 441.305817,427.727081 443.049377,428.091370 
z"/>
<path fill="#169E97" opacity="1.000000" stroke="none" 
	d="
M122.999702,427.078369 
	C146.192551,454.633850 174.423264,475.470093 207.033951,490.628662 
	C229.111389,500.891022 252.280518,507.184296 276.228119,510.970947 
	C277.461334,511.165985 278.620667,511.828094 279.907227,512.636353 
	C262.312439,513.000000 244.624878,513.000000 226.468658,513.000000 
	C225.205139,512.337830 224.464417,511.179504 223.607483,511.085999 
	C201.793213,508.705597 181.053360,502.441315 160.900986,493.987640 
	C140.382019,485.380219 121.145622,474.401520 104.068497,460.231293 
	C92.418961,450.564728 82.120399,439.270081 71.405762,428.128967 
	C72.898682,427.368774 74.203545,427.022583 75.508629,427.021698 
	C91.338966,427.011078 107.169342,427.051331 122.999702,427.078369 
z"/>
<path fill="#38C47A" opacity="1.000000" stroke="none" 
	d="
M334.531342,0.999998 
	C336.160522,1.922864 337.185028,3.305737 338.503174,3.695383 
	C348.489227,6.647291 357.341766,11.591372 363.943298,19.621183 
	C368.123840,24.706188 371.189209,30.708033 374.336060,36.664360 
	C341.429657,37.032326 308.941986,37.034611 276.413025,36.624901 
	C276.980988,29.136023 277.590210,22.059139 278.199402,14.982254 
	C285.279327,9.314767 292.879486,4.679713 301.938416,2.873447 
	C302.485474,2.764368 302.926056,2.121426 303.208099,1.363446 
	C313.354218,1.000000 323.708466,1.000000 334.531342,0.999998 
z"/>
<path fill="#39C379" opacity="1.000000" stroke="none" 
	d="
M123.467880,427.053925 
	C107.169342,427.051331 91.338966,427.011078 75.508629,427.021698 
	C74.203545,427.022583 72.898682,427.368774 71.269424,427.823029 
	C69.872108,427.713745 68.799095,427.335968 67.275757,426.528870 
	C66.217491,423.590088 65.153770,421.092987 65.085358,418.568909 
	C64.861931,410.325958 64.821068,402.067230 65.092285,393.827148 
	C65.196930,390.647736 66.327133,387.502106 67.454453,384.285980 
	C72.679428,384.196350 77.440041,384.161774 82.645126,384.210999 
	C93.155502,384.228363 103.221397,384.161957 113.726532,384.206604 
	C160.697357,384.344879 207.228943,384.373505 253.760529,384.387329 
	C254.582520,384.387604 255.404572,384.210083 256.667603,384.217377 
	C265.075867,384.252319 273.043152,384.185394 281.468872,384.222626 
	C325.961670,384.350586 369.995941,384.376221 414.030243,384.386261 
	C415.019806,384.386475 416.009430,384.209198 417.459717,384.211243 
	C429.179016,384.332703 440.438110,384.430420 451.696075,384.356781 
	C459.130920,384.308136 466.564117,384.013306 473.998047,383.828674 
	C481.135773,383.885376 488.275909,384.076355 495.410248,383.946625 
	C499.463470,383.872955 501.075073,385.546051 501.035431,389.532898 
	C500.931396,399.994629 500.872375,410.460358 501.060760,420.919708 
	C501.141815,425.419586 499.415039,427.107788 494.918793,427.061249 
	C479.641479,426.903168 464.361450,426.978638 449.082703,427.031464 
	C447.321594,427.037537 445.561890,427.461456 443.425476,427.891510 
	C441.305817,427.727081 439.562408,427.044708 437.818695,427.044037 
	C333.191162,427.003571 228.563614,427.019165 123.467880,427.053925 
z"/>
<path fill="#FF9F60" opacity="1.000000" stroke="none" 
	d="
M82.200653,384.127228 
	C77.440041,384.161774 72.679428,384.196350 66.990967,384.213745 
	C57.373943,384.075470 48.684765,383.954346 39.995586,383.833252 
	C35.814842,374.195587 31.434681,364.638519 27.499720,354.901520 
	C21.470484,339.982300 17.772619,324.444000 14.838513,308.606384 
	C11.122348,288.547394 11.348846,268.348969 12.267250,248.260773 
	C13.233652,227.122711 18.088812,206.447540 25.248243,186.457870 
	C34.178059,161.525146 46.313786,138.251129 63.021854,117.629753 
	C71.206406,107.528236 79.735184,97.564293 89.145691,88.631027 
	C102.759041,75.708046 117.887138,64.597534 134.270920,55.236919 
	C154.381226,43.747234 175.587997,34.954643 198.070114,29.600756 
	C209.280609,26.931091 220.838074,25.646791 232.284805,24.071739 
	C237.820038,23.310104 243.461929,23.323660 249.702393,23.319405 
	C250.608704,28.433502 250.868164,33.214420 250.705887,38.007198 
	C219.288559,43.268414 196.382355,59.662045 182.587540,88.011452 
	C173.385345,106.922653 172.936493,126.724815 178.174164,147.127045 
	C175.727753,150.349777 173.484100,153.263931 171.091675,155.850677 
	C156.455902,131.632263 130.017441,121.797989 105.758446,131.544342 
	C104.631493,133.682495 103.619736,135.608383 103.000221,137.653091 
	C98.959984,150.988007 101.370766,163.635452 106.818184,175.954193 
	C78.204460,178.248123 57.334911,191.790970 44.260357,216.818405 
	C33.884880,236.679230 31.286041,258.132599 34.488117,279.970978 
	C40.241680,319.210602 55.122707,354.528473 82.200653,384.127228 
z"/>
<path fill="#2BB381" opacity="1.000000" stroke="none" 
	d="
M39.531013,383.898132 
	C48.684765,383.954346 57.373943,384.075470 66.526604,384.268829 
	C66.327133,387.502106 65.196930,390.647736 65.092285,393.827148 
	C64.821068,402.067230 64.861931,410.325958 65.085358,418.568909 
	C65.153770,421.092987 66.217491,423.590088 66.929634,426.461182 
	C50.743496,426.881439 34.452991,426.914917 18.162933,427.018707 
	C14.659402,427.041016 12.970817,425.543182 12.985331,421.978882 
	C13.030016,411.005524 13.037379,400.031647 12.980793,389.058380 
	C12.962421,385.495758 14.612497,383.952576 18.117430,383.978088 
	C25.100025,384.028931 32.083385,383.974152 39.531013,383.898132 
z"/>
<path fill="#A45E2B" opacity="1.000000" stroke="none" 
	d="
M278.123810,14.574421 
	C277.590210,22.059139 276.980988,29.136023 276.302216,37.069954 
	C275.878571,44.179653 275.524475,50.432301 275.095459,57.086090 
	C274.456482,63.080650 271.031677,64.616272 265.792877,63.559456 
	C264.757538,61.487259 263.385254,59.771175 263.176117,57.923424 
	C262.542389,52.325253 262.375214,46.675003 261.996429,41.047054 
	C261.528625,34.096653 260.764709,27.152704 260.648773,20.197298 
	C260.582214,16.206017 261.546021,12.197557 262.045959,8.196831 
	C265.359283,8.131265 268.681915,8.199115 271.983643,7.967842 
	C276.561096,7.647207 278.374176,9.803991 278.123810,14.574421 
z"/>
<path fill="#8D491C" opacity="1.000000" stroke="none" 
	d="
M261.597778,8.119102 
	C261.546021,12.197557 260.582214,16.206017 260.648773,20.197298 
	C260.764709,27.152704 261.528625,34.096653 261.996429,41.047054 
	C262.375214,46.675003 262.542389,52.325253 263.176117,57.923424 
	C263.385254,59.771175 264.757538,61.487259 265.345184,63.607872 
	C263.938293,63.969109 262.784210,64.000221 261.630096,64.000587 
	C254.442612,64.002846 253.550751,63.150055 252.866745,55.907124 
	C252.618988,53.283375 252.221512,50.673763 251.935059,47.613289 
	C251.694382,44.111034 251.410995,41.053188 251.127609,37.995342 
	C250.868164,33.214420 250.608704,28.433502 250.166016,23.272747 
	C249.983673,21.560484 249.985184,20.228052 249.985413,18.895622 
	C249.987289,7.825987 249.987228,7.825987 261.597778,8.119102 
z"/>
<path fill="#FF9F60" opacity="1.000000" stroke="none" 
	d="
M474.007507,383.466919 
	C466.564117,384.013306 459.130920,384.308136 451.696075,384.356781 
	C440.438110,384.430420 429.179016,384.332703 417.642029,383.926941 
	C418.039764,382.812286 418.689850,382.052460 419.395721,381.348541 
	C441.533020,359.272552 454.339905,333.417389 452.120667,301.338715 
	C451.974915,299.231873 453.019165,296.827454 454.098450,294.889130 
	C458.385834,287.189056 459.370697,279.094543 456.884155,270.765472 
	C453.581329,259.701935 445.280426,253.736053 434.976440,250.005585 
	C439.806122,244.101776 444.904907,238.822144 448.951599,232.831772 
	C457.613525,220.009354 457.411774,205.711777 455.084656,191.148224 
	C467.659058,192.093842 477.477325,187.384384 485.834625,179.017517 
	C492.548584,195.562531 497.797333,212.700699 499.667297,230.340027 
	C501.681732,249.341705 502.802521,268.683441 501.669586,287.719482 
	C499.666046,321.384308 489.862183,353.228912 474.007507,383.466919 
z"/>
<path fill="#FE9F60" opacity="1.000000" stroke="none" 
	d="
M368.837555,49.389111 
	C402.272980,66.566444 430.523895,89.910583 452.562988,120.549301 
	C447.087372,122.291306 442.037872,123.620583 436.693970,124.709785 
	C434.287170,111.910492 428.763428,101.900574 415.718140,97.292130 
	C411.728943,99.883720 407.596100,101.960907 404.534790,105.087280 
	C397.207550,112.570244 395.182037,122.066925 395.381226,132.237946 
	C379.396057,128.321609 364.827759,130.642120 351.278625,138.839935 
	C351.824005,133.829926 352.725891,129.246948 352.844452,124.643768 
	C353.349426,105.045059 347.006195,87.606438 335.930664,71.637276 
	C342.905243,68.090508 349.927887,65.298691 356.122620,61.242424 
	C360.899841,58.114357 364.637604,53.398811 368.837555,49.389111 
z"/>
<path fill="#60D781" opacity="1.000000" stroke="none" 
	d="
M368.932129,49.082718 
	C364.637604,53.398811 360.899841,58.114357 356.122620,61.242424 
	C349.927887,65.298691 342.905243,68.090508 335.540894,71.659668 
	C329.922058,72.560081 325.011993,73.698044 320.078705,73.809723 
	C302.850098,74.199707 288.000854,68.004944 275.170349,56.684944 
	C275.524475,50.432301 275.878571,44.179653 276.343475,37.481949 
	C308.941986,37.034611 341.429657,37.032326 374.375244,37.026016 
	C372.897675,40.940105 370.962189,44.858219 368.932129,49.082718 
z"/>
<path fill="#39C47A" opacity="1.000000" stroke="none" 
	d="
M473.854980,153.408890 
	C481.238129,157.100952 487.601044,161.770401 489.459869,170.622787 
	C474.888855,171.022339 460.845795,171.048111 446.548767,170.845032 
	C444.087555,165.777664 441.880341,160.939163 439.998962,155.927795 
	C447.501251,150.497528 455.807220,150.788376 464.468567,150.960205 
	C467.856110,151.804123 470.855530,152.606506 473.854980,153.408890 
z"/>
<path fill="#62D782" opacity="1.000000" stroke="none" 
	d="
M446.802734,171.073883 
	C460.845795,171.048111 474.888855,171.022339 489.390808,170.997467 
	C488.612305,173.458359 487.374878,175.918335 485.986023,178.697906 
	C477.477325,187.384384 467.659058,192.093842 454.879456,190.874207 
	C451.729523,184.117920 449.266144,177.595901 446.802734,171.073883 
z"/>
<path fill="#2DB481" opacity="1.000000" stroke="none" 
	d="
M436.988403,124.949852 
	C442.037872,123.620583 447.087372,122.291306 452.567627,120.897415 
	C456.904510,121.616676 460.810638,122.400551 464.598297,123.696350 
	C455.272369,133.484818 446.064880,142.761353 436.567505,151.905304 
	C434.440460,150.229416 432.603302,148.686081 431.037781,146.900604 
	C435.512726,140.026657 436.955017,132.672531 436.988403,124.949852 
z"/>
<path fill="#60D882" opacity="1.000000" stroke="none" 
	d="
M436.857391,152.037903 
	C446.064880,142.761353 455.272369,133.484818 464.771057,124.031525 
	C466.047607,129.291382 467.032959,134.727982 467.631805,140.780670 
	C466.190369,144.570724 465.135437,147.744705 464.080475,150.918671 
	C455.807220,150.788376 447.501251,150.497528 439.758057,155.736130 
	C438.413330,154.490845 437.635376,153.264374 436.857391,152.037903 
z"/>
<path fill="#FAA062" opacity="1.000000" stroke="none" 
	d="
M464.468567,150.960205 
	C465.135437,147.744705 466.190369,144.570724 467.555664,141.235672 
	C469.880463,144.929474 471.894958,148.784363 473.882202,153.024063 
	C470.855530,152.606506 467.856110,151.804123 464.468567,150.960205 
z"/>
<path fill="#EA2A3D" opacity="1.000000" stroke="none" 
	d="
M256.226593,384.115509 
	C255.404572,384.210083 254.582520,384.387604 253.760529,384.387329 
	C207.228943,384.373505 160.697357,384.344879 113.535294,383.902008 
	C112.248505,382.525421 111.703468,381.460876 110.919235,380.619110 
	C98.176918,366.941772 88.732262,351.155121 81.520348,334.026794 
	C69.231972,304.841858 61.040989,274.932007 67.017921,242.836746 
	C72.909584,211.199387 93.129776,184.875549 126.374954,177.843964 
	C138.829590,179.864960 149.361862,185.432617 159.833282,191.980545 
	C163.362000,194.928253 166.658813,197.589920 170.116608,200.485718 
	C171.361893,200.529068 172.725998,200.689407 173.482147,200.086823 
	C176.776886,197.461319 179.894852,194.613953 183.296127,191.777222 
	C183.758377,191.507233 183.937347,191.260605 184.016907,190.975067 
	C183.981674,190.982758 183.992477,191.054077 184.291214,191.001556 
	C185.415390,190.404861 186.240829,189.860687 187.407471,189.198151 
	C189.048035,188.340057 190.344574,187.595352 191.647125,186.861313 
	C234.051163,162.964005 283.585358,179.538452 301.858978,223.755936 
	C307.474274,237.343582 309.499542,251.581863 309.181213,266.467590 
	C302.317963,272.980743 295.123444,278.743896 289.104553,285.547119 
	C271.830231,305.072357 261.295319,327.545929 262.141113,354.203522 
	C262.308441,359.476257 261.489532,363.887878 259.244751,368.724457 
	C257.107330,373.329712 257.145142,378.944550 256.226593,384.115509 
z"/>
<path fill="#FFD00D" opacity="1.000000" stroke="none" 
	d="
M434.768738,250.307617 
	C445.280426,253.736053 453.581329,259.701935 456.884155,270.765472 
	C459.370697,279.094543 458.385834,287.189056 454.098450,294.889130 
	C453.019165,296.827454 451.974915,299.231873 452.120667,301.338715 
	C454.339905,333.417389 441.533020,359.272552 419.395721,381.348541 
	C418.689850,382.052460 418.039764,382.812286 417.181335,383.830383 
	C416.009430,384.209198 415.019806,384.386475 414.030243,384.386261 
	C369.995941,384.376221 325.961670,384.350586 281.467682,383.771362 
	C280.721832,376.160950 282.704956,369.776764 286.522644,363.869110 
	C287.178497,362.854218 287.637390,361.386841 287.482635,360.222046 
	C285.136414,342.563049 288.874146,325.827789 297.017700,310.463684 
	C314.508789,277.464020 341.682312,256.041229 377.753906,246.015182 
	C380.588989,245.227158 383.304932,244.010498 386.320862,242.941940 
	C386.731140,242.868195 386.896790,242.845551 387.473022,242.894379 
	C397.148743,245.436157 406.405762,247.937546 415.686371,250.348404 
	C417.374573,250.786926 419.165405,251.095627 420.897583,251.048431 
	C425.524567,250.922318 430.145447,250.570023 434.768738,250.307617 
M394.076447,275.137482 
	C397.995056,282.119995 405.431213,284.345062 411.101532,280.231781 
	C415.993042,276.683441 417.261017,271.013184 414.350983,265.700378 
	C411.512512,260.518219 405.928162,258.464142 400.244659,260.511658 
	C395.186890,262.333740 392.370850,268.380829 394.076447,275.137482 
M365.926361,307.571991 
	C366.225403,315.035248 369.948822,318.950134 376.811981,319.017303 
	C382.913605,319.077026 387.740234,314.603546 387.999268,308.648529 
	C388.257294,302.717285 384.087463,297.450562 378.756256,296.974091 
	C371.017212,296.282440 367.008423,299.330688 365.926361,307.571991 
M354.077789,275.038788 
	C354.685883,275.823303 355.226379,276.673401 355.913330,277.381409 
	C359.576050,281.156250 364.920898,282.170410 369.055878,279.924530 
	C374.026398,277.224823 376.283386,271.629517 374.710144,265.907135 
	C373.476776,261.421051 369.641205,258.957764 363.927185,258.982086 
	C355.814331,259.016632 351.644287,265.293488 354.077789,275.038788 
z"/>
<path fill="#B80A2B" opacity="1.000000" stroke="none" 
	d="
M125.955467,177.826263 
	C93.129776,184.875549 72.909584,211.199387 67.017921,242.836746 
	C61.040989,274.932007 69.231972,304.841858 81.520348,334.026794 
	C88.732262,351.155121 98.176918,366.941772 110.919235,380.619110 
	C111.703468,381.460876 112.248505,382.525421 113.096069,383.790955 
	C103.221397,384.161957 93.155502,384.228363 82.645126,384.210999 
	C55.122707,354.528473 40.241680,319.210602 34.488117,279.970978 
	C31.286041,258.132599 33.884880,236.679230 44.260357,216.818405 
	C57.334911,191.790970 78.204460,178.248123 107.259857,176.004929 
	C114.077332,176.597885 120.016396,177.212067 125.955467,177.826263 
z"/>
<path fill="#FFAF10" opacity="1.000000" stroke="none" 
	d="
M386.076263,242.993027 
	C383.304932,244.010498 380.588989,245.227158 377.753906,246.015182 
	C341.682312,256.041229 314.508789,277.464020 297.017700,310.463684 
	C288.874146,325.827789 285.136414,342.563049 287.482635,360.222046 
	C287.637390,361.386841 287.178497,362.854218 286.522644,363.869110 
	C282.704956,369.776764 280.721832,376.160950 281.009216,383.667175 
	C273.043152,384.185394 265.075867,384.252319 256.667603,384.217377 
	C257.145142,378.944550 257.107330,373.329712 259.244751,368.724457 
	C261.489532,363.887878 262.308441,359.476257 262.141113,354.203522 
	C261.295319,327.545929 271.830231,305.072357 289.104553,285.547119 
	C295.123444,278.743896 302.317963,272.980743 309.496338,266.340881 
	C318.120453,261.416351 325.954987,256.297241 334.384399,252.497787 
	C350.747040,245.122559 367.916260,241.095673 386.076263,242.993027 
z"/>
<path fill="#9CBA19" opacity="1.000000" stroke="none" 
	d="
M187.066269,189.316498 
	C186.240829,189.860687 185.415390,190.404861 184.242966,190.576874 
	C184.228149,188.090317 184.371689,185.925217 184.924286,183.870102 
	C187.705200,173.527695 193.197220,164.820847 201.021408,157.532990 
	C202.784592,155.890656 205.238220,154.266998 202.715408,151.396286 
	C200.209824,148.545120 197.665298,145.728195 195.039734,142.566116 
	C190.414719,135.747864 189.803223,135.668610 184.335236,140.954041 
	C182.331619,142.890747 180.362015,144.862610 178.376907,146.818451 
	C172.936493,126.724815 173.385345,106.922653 182.587540,88.011452 
	C196.382355,59.662045 219.288559,43.268414 250.705887,38.007198 
	C251.410995,41.053188 251.694382,44.111034 251.636566,47.760109 
	C244.750824,53.184643 237.435669,57.259060 231.797150,62.984623 
	C209.212112,85.918343 201.710312,113.327744 209.742859,144.640106 
	C211.656540,152.099945 210.148315,157.803146 205.049316,163.816101 
	C198.348923,171.717499 192.997696,180.763000 187.066269,189.316498 
z"/>
<path fill="#38C47A" opacity="1.000000" stroke="none" 
	d="
M106.055061,131.387039 
	C130.017441,121.797989 156.455902,131.632263 170.978271,156.180328 
	C167.304153,166.571335 163.594650,176.305283 159.608643,185.861328 
	C142.269684,168.684631 125.197998,151.695068 108.170822,134.661026 
	C107.272675,133.762512 106.751648,132.487030 106.055061,131.387039 
z"/>
<path fill="#61D781" opacity="1.000000" stroke="none" 
	d="
M105.758446,131.544342 
	C106.751648,132.487030 107.272675,133.762512 108.170822,134.661026 
	C125.197998,151.695068 142.269684,168.684631 159.654785,186.261963 
	C159.852097,188.458496 159.726746,190.076492 159.601410,191.694504 
	C149.361862,185.432617 138.829590,179.864960 126.374954,177.843964 
	C120.016396,177.212067 114.077332,176.597885 107.696579,175.932953 
	C101.370766,163.635452 98.959984,150.988007 103.000221,137.653091 
	C103.619736,135.608383 104.631493,133.682495 105.758446,131.544342 
z"/>
<path fill="#8C491C" opacity="1.000000" stroke="none" 
	d="
M159.833282,191.980545 
	C159.726746,190.076492 159.852097,188.458496 159.931290,186.439850 
	C163.594650,176.305283 167.304153,166.571335 171.127045,156.507751 
	C173.484100,153.263931 175.727753,150.349777 178.174164,147.127045 
	C180.362015,144.862610 182.331619,142.890747 184.335236,140.954041 
	C189.803223,135.668610 190.414719,135.747864 194.738678,142.741669 
	C177.701920,158.523010 170.668411,178.024551 169.955643,200.251587 
	C166.658813,197.589920 163.362000,194.928253 159.833282,191.980545 
z"/>
<path fill="#A9D326" opacity="1.000000" stroke="none" 
	d="
M187.407471,189.198151 
	C192.997696,180.763000 198.348923,171.717499 205.049316,163.816101 
	C210.148315,157.803146 211.656540,152.099945 209.742859,144.640106 
	C201.710312,113.327744 209.212112,85.918343 231.797150,62.984623 
	C237.435669,57.259060 244.750824,53.184643 251.593857,48.204517 
	C252.221512,50.673763 252.618988,53.283375 252.866745,55.907124 
	C253.550751,63.150055 254.442612,64.002846 261.630096,64.000587 
	C262.784210,64.000221 263.938293,63.969109 265.540100,63.903786 
	C271.031677,64.616272 274.456482,63.080650 275.095428,57.086090 
	C288.000854,68.004944 302.850098,74.199707 320.078705,73.809723 
	C325.011993,73.698044 329.922058,72.560081 335.232544,71.870300 
	C347.006195,87.606438 353.349426,105.045059 352.844452,124.643768 
	C352.725891,129.246948 351.824005,133.829926 351.170990,139.208496 
	C350.485840,142.075882 349.850800,144.142334 349.350220,146.240845 
	C347.962097,152.059998 348.930176,157.216034 352.684814,162.163025 
	C360.389221,172.314117 367.698700,182.764954 375.235016,193.433136 
	C378.227997,201.577469 381.156708,209.381058 384.077087,217.577789 
	C385.066681,226.254929 386.064575,234.538910 387.062469,242.822906 
	C386.896790,242.845551 386.731140,242.868195 386.320862,242.941940 
	C367.916260,241.095673 350.747040,245.122559 334.384399,252.497787 
	C325.954987,256.297241 318.120453,261.416351 309.701965,266.065887 
	C309.499542,251.581863 307.474274,237.343582 301.858978,223.755936 
	C283.585358,179.538452 234.051163,162.964005 191.647125,186.861313 
	C190.344574,187.595352 189.048035,188.340057 187.407471,189.198151 
z"/>
<path fill="#FD3845" opacity="1.000000" stroke="none" 
	d="
M387.473022,242.894379 
	C386.064575,234.538910 385.066681,226.254929 384.456482,217.539841 
	C395.243439,214.827286 399.466431,203.521774 392.881073,195.592850 
	C388.703644,190.563141 382.728546,189.719543 375.170746,193.092392 
	C367.698700,182.764954 360.389221,172.314117 352.684814,162.163025 
	C348.930176,157.216034 347.962097,152.059998 349.350220,146.240845 
	C349.850800,144.142334 350.485840,142.075882 351.167145,139.626221 
	C364.827759,130.642120 379.396057,128.321609 395.655457,132.465912 
	C402.873596,135.191452 409.402222,137.661728 416.157990,140.391937 
	C421.178833,142.815491 425.972504,144.979111 430.766174,147.142731 
	C432.603302,148.686081 434.440460,150.229416 436.567505,151.905319 
	C437.635376,153.264374 438.413330,154.490845 439.432190,155.908997 
	C441.880341,160.939163 444.087555,165.777664 446.548767,170.845032 
	C449.266144,177.595901 451.729523,184.117920 454.398132,190.913971 
	C457.411774,205.711777 457.613525,220.009354 448.951599,232.831772 
	C444.904907,238.822144 439.806122,244.101776 434.976440,250.005585 
	C430.145447,250.570023 425.524567,250.922318 420.897583,251.048431 
	C419.165405,251.095627 417.374573,250.786926 415.686371,250.348404 
	C406.405762,247.937546 397.148743,245.436157 387.473022,242.894379 
M438.341309,229.079880 
	C444.825714,224.603882 446.879761,218.304459 443.944122,211.896957 
	C441.388489,206.318893 434.902161,203.077225 429.147003,204.501770 
	C421.474976,206.400787 417.159271,213.804749 419.316711,221.366486 
	C421.528503,229.118668 429.153748,232.479477 438.341309,229.079880 
M372.801361,167.789688 
	C373.575989,167.497696 374.383423,167.271301 375.120056,166.903229 
	C380.651398,164.139206 383.771271,158.110733 382.565735,152.577560 
	C381.135284,146.012054 376.093445,141.912308 369.455658,141.917175 
	C362.913391,141.921967 358.094177,145.687363 356.473969,152.060059 
	C354.144562,161.222275 361.080414,168.318481 372.801361,167.789688 
M422.510193,181.541901 
	C424.131439,180.418671 425.978607,179.516251 427.332184,178.131393 
	C431.644928,173.718933 432.225616,167.293961 429.022461,162.091537 
	C425.894867,157.011826 419.668823,154.730759 413.833679,156.526764 
	C408.172089,158.269363 404.779419,163.122391 404.862122,169.360138 
	C404.980621,178.300201 411.108978,182.816086 422.510193,181.541901 
z"/>
<path fill="#39C47A" opacity="1.000000" stroke="none" 
	d="
M431.037781,146.900604 
	C425.972504,144.979111 421.178833,142.815491 416.174103,139.915161 
	C415.995941,125.203888 416.028839,111.229332 416.061737,97.254768 
	C428.763428,101.900574 434.287170,111.910492 436.693970,124.709785 
	C436.955017,132.672531 435.512726,140.026657 431.037781,146.900604 
z"/>
<path fill="#62D782" opacity="1.000000" stroke="none" 
	d="
M415.718140,97.292130 
	C416.028839,111.229332 415.995941,125.203888 415.946930,139.655228 
	C409.402222,137.661728 402.873596,135.191452 396.070801,132.493225 
	C395.182037,122.066925 397.207550,112.570244 404.534790,105.087280 
	C407.596100,101.960907 411.728943,99.883720 415.718140,97.292130 
z"/>
<path fill="#A55D2B" opacity="1.000000" stroke="none" 
	d="
M170.116608,200.485718 
	C170.668411,178.024551 177.701920,158.523010 194.836792,143.071808 
	C197.665298,145.728195 200.209824,148.545120 202.715408,151.396286 
	C205.238220,154.266998 202.784592,155.890656 201.021408,157.532990 
	C193.197220,164.820847 187.705200,173.527695 184.924286,183.870102 
	C184.371689,185.925217 184.228149,188.090317 183.944229,190.629395 
	C183.992477,191.054077 183.981674,190.982758 183.840240,191.106201 
	C183.462662,191.406418 183.255417,191.612259 183.077026,191.847168 
	C179.894852,194.613953 176.776886,197.461319 173.482147,200.086823 
	C172.725998,200.689407 171.361893,200.529068 170.116608,200.485718 
z"/>
<path fill="#9CBA19" opacity="1.000000" stroke="none" 
	d="
M183.296127,191.777222 
	C183.255417,191.612259 183.462662,191.406418 183.875458,191.098511 
	C183.937347,191.260605 183.758377,191.507233 183.296127,191.777222 
z"/>
<path fill="#FFB010" opacity="1.000000" stroke="none" 
	d="
M393.920105,274.783142 
	C392.370850,268.380829 395.186890,262.333740 400.244659,260.511658 
	C405.928162,258.464142 411.512512,260.518219 414.350983,265.700378 
	C417.261017,271.013184 415.993042,276.683441 411.101532,280.231781 
	C405.431213,284.345062 397.995056,282.119995 393.920105,274.783142 
z"/>
<path fill="#FF9618" opacity="1.000000" stroke="none" 
	d="
M365.931366,307.147095 
	C367.008423,299.330688 371.017212,296.282440 378.756256,296.974091 
	C384.087463,297.450562 388.257294,302.717285 387.999268,308.648529 
	C387.740234,314.603546 382.913605,319.077026 376.811981,319.017303 
	C369.948822,318.950134 366.225403,315.035248 365.931366,307.147095 
z"/>
<path fill="#FFAF10" opacity="1.000000" stroke="none" 
	d="
M353.905487,274.682617 
	C351.644287,265.293488 355.814331,259.016632 363.927185,258.982086 
	C369.641205,258.957764 373.476776,261.421051 374.710144,265.907135 
	C376.283386,271.629517 374.026398,277.224823 369.055878,279.924530 
	C364.920898,282.170410 359.576050,281.156250 355.913330,277.381409 
	C355.226379,276.673401 354.685883,275.823303 353.905487,274.682617 
z"/>
<path fill="#B80B2B" opacity="1.000000" stroke="none" 
	d="
M375.235016,193.433136 
	C382.728546,189.719543 388.703644,190.563141 392.881073,195.592850 
	C399.466431,203.521774 395.243439,214.827286 384.464783,217.146698 
	C381.156708,209.381058 378.227997,201.577469 375.235016,193.433136 
z"/>
<path fill="#B90A2C" opacity="1.000000" stroke="none" 
	d="
M438.010315,229.269836 
	C429.153748,232.479477 421.528503,229.118668 419.316711,221.366486 
	C417.159271,213.804749 421.474976,206.400787 429.147003,204.501770 
	C434.902161,203.077225 441.388489,206.318893 443.944122,211.896957 
	C446.879761,218.304459 444.825714,224.603882 438.010315,229.269836 
z"/>
<path fill="#B80A2C" opacity="1.000000" stroke="none" 
	d="
M372.392517,167.858963 
	C361.080414,168.318481 354.144562,161.222275 356.473969,152.060059 
	C358.094177,145.687363 362.913391,141.921967 369.455658,141.917175 
	C376.093445,141.912308 381.135284,146.012054 382.565735,152.577560 
	C383.771271,158.110733 380.651398,164.139206 375.120056,166.903229 
	C374.383423,167.271301 373.575989,167.497696 372.392517,167.858963 
z"/>
<path fill="#B80A2B" opacity="1.000000" stroke="none" 
	d="
M422.117523,181.663940 
	C411.108978,182.816086 404.980621,178.300201 404.862122,169.360138 
	C404.779419,163.122391 408.172089,158.269363 413.833679,156.526764 
	C419.668823,154.730759 425.894867,157.011826 429.022461,162.091537 
	C432.225616,167.293961 431.644928,173.718933 427.332184,178.131393 
	C425.978607,179.516251 424.131439,180.418671 422.117523,181.663940 
z"/>
</svg>