<svg width="262" height="36" viewBox="0 0 262 36" fill="none" xmlns="http://www.w3.org/2000/svg">
<path d="M86.8323 4.05864C90.9047 10.7503 90.5434 12.9929 85.8987 18.8015C85.0701 19.8377 85.4233 22.4158 86.073 23.9175C87.5991 27.4444 89.6348 30.7509 91.6091 34.4157C86.4774 36.0009 83.6681 34.8554 82.0362 30.6359C81.1451 28.332 79.9064 26.0982 78.4547 24.1015C77.6832 23.0403 76.123 22.5525 74.9188 21.8059C74.2861 23.0226 73.2885 24.1866 73.1028 25.4681C72.7955 27.5894 73.4229 29.9021 72.8589 31.9101C72.4961 33.2019 70.7197 34.9094 69.5514 34.9292C68.4267 34.9482 66.3146 33.0699 66.2764 31.9682C65.9595 22.8196 65.964 13.6572 66.0502 4.50065C66.0603 3.42668 67.1761 1.42393 67.7396 1.43803C74.0673 1.59611 80.7714 -0.75777 86.8323 4.05864ZM80.0825 15.9664C83.1947 14.0779 83.5369 10.7309 81.5386 8.78392C79.7355 7.02714 76.2482 6.99888 73.3454 6.1627C72.0302 16.7971 72.646 17.6691 80.0825 15.9664Z" fill="#3C443F"/>
<path d="M18.0396 1C26.7856 1.54419 27.1212 1.80359 26.4642 7.58636C24.7032 7.36377 22.9472 7.08618 21.1806 6.92773C10.9138 6.00714 4.87905 14.1436 8.948 23.8685C9.92109 26.1942 12.1718 28.6903 14.4456 29.6288C20.2882 32.0407 22.5644 29.7145 21.2982 23.1528C19.7404 22.9078 18.1281 22.6542 16.0863 22.3331C16.0245 20.9647 15.9631 19.6044 15.8901 17.9888C20.1144 17.9888 23.877 17.9888 28.2247 17.9888C28.2247 22.5689 28.2914 27.0039 28.1642 31.4335C28.1408 32.2483 27.5259 33.3045 26.8532 33.8024C20.2327 38.7023 5.8075 34.8606 2.46879 27.3777C-3.47346 14.0596 3.36039 2.16791 18.0396 1Z" fill="#343C37"/>
<path d="M149.996 8.22828C150.05 6.28449 149.709 4.61304 150.281 3.35773C150.755 2.31696 152.319 1.15131 153.375 1.17518C154.391 1.19825 156.229 2.66578 156.239 3.51545C156.326 11.151 156.646 18.854 155.78 26.4092C155.026 32.9985 149.603 35.8364 141.414 35.2705C134.661 34.8037 131.029 31.5248 130.556 24.7583C130.127 18.6376 130.396 12.4699 130.029 6.34266C129.738 1.48542 131.595 -0.0533991 136.898 1.69971C136.898 8.53376 136.928 15.6258 136.886 22.7174C136.865 26.2318 138.092 28.9178 141.713 29.7831C146.32 30.8843 149.246 28.9578 149.658 24.1227C150.095 19.0031 149.909 13.8303 149.996 8.22828Z" fill="#343C37"/>
<path d="M201.031 17.921C201.032 22.7479 201.306 27.1037 200.873 31.3878C200.739 32.7027 198.668 33.8212 197.484 35.0297C196.341 33.7789 194.251 32.5587 194.209 31.2726C193.921 22.2926 193.941 13.2956 194.204 4.31403C194.237 3.18958 196.104 1.52362 197.412 1.16309C199.705 0.531315 201.126 1.75843 201.061 4.43842C200.956 8.7641 201.032 13.0942 201.031 17.921Z" fill="#37403C"/>
<path d="M244.743 32.1073C244.72 23.7084 244.72 15.7256 244.72 6.90168C242.448 6.90168 240.432 7.26356 238.647 6.77772C237.403 6.43915 236.476 4.93787 235.407 3.956C236.443 2.95386 237.446 1.12769 238.521 1.08411C245.173 0.814826 251.846 0.813605 258.499 1.07423C259.625 1.11835 260.685 2.86262 261.775 3.82142C260.596 4.84913 259.566 6.3437 258.198 6.78315C256.586 7.30085 254.68 6.90455 252.42 6.90455C252.42 15.3815 252.534 23.1801 252.319 30.9695C252.278 32.4439 251.236 34.7546 250.117 35.149C248.004 35.8933 245.326 35.8593 244.743 32.1073ZM246.865 21.4869C246.865 24.1527 246.682 26.8369 246.947 29.4761C247.069 30.7031 248.061 31.843 248.66 33.0224C249.387 31.8109 250.699 30.6199 250.743 29.3843C250.954 23.4111 251.061 17.4129 250.738 11.4489C250.483 6.727 252.019 4.51295 256.949 5.09638C257.822 5.19977 258.782 4.56196 259.703 4.26642C259.63 3.7981 259.557 3.32972 259.484 2.86133C252.122 2.96937 244.732 2.07123 237.397 4.06184C238.485 4.83344 239.621 5.26966 240.673 5.11957C245.761 4.39399 247.195 6.95533 246.906 11.5051C246.717 14.4923 246.863 17.5007 246.865 21.4869Z" fill="#1E2923"/>
<path d="M246.759 21.6815C246.761 18.1049 246.61 15.0241 246.805 11.965C247.102 7.30572 245.624 4.68275 240.378 5.42579C239.293 5.57949 238.121 5.13277 237 4.3426C244.562 2.30411 252.184 3.22385 259.774 3.11322C259.85 3.59287 259.925 4.07252 260 4.55211C259.051 4.85476 258.06 5.50792 257.16 5.40204C252.077 4.80457 250.493 7.07189 250.756 11.9074C251.089 18.0149 250.978 24.1574 250.761 30.2743C250.716 31.5397 249.363 32.7593 248.613 34C247.996 32.7922 246.973 31.6249 246.847 30.3684C246.574 27.6656 246.762 24.9169 246.759 21.6815Z" fill="#1E2923"/>
<rect x="237" y="2" width="23" height="3" fill="#1E2923"/>
</svg>
