<svg width="429" height="360" viewBox="0 0 429 360" fill="none" xmlns="http://www.w3.org/2000/svg">
<path d="M137.382 311.633C122.491 297.433 111.357 281.112 102.28 262.998C86.7734 232.052 82.9068 199.378 85.9941 165.543C88.13 142.136 95.5865 120.267 107.141 99.7988C108.261 97.8156 109.272 95.7711 110.406 93.6174C105.993 91.7829 102.779 91.6523 98.5929 95.0072C83.8858 106.794 67.0065 106.933 49.8136 101.762C34.5815 97.1806 23.422 87.2575 15.6793 73.5271C5.419 55.332 0.546691 35.6353 0.00647624 14.8247C-0.0448538 12.8471 0.214263 10.827 0.594947 8.87857C2.31843 0.0572805 10.2666 -2.83888 16.8994 3.15622C27.1486 12.4199 39.9849 14.0383 52.7749 16.5235C62.6419 18.4407 72.9593 20.432 81.7623 24.9505C101.928 35.3011 114.106 51.3046 110.839 75.8356C114.413 76.5229 117.971 77.2072 121.487 77.8833C190.408 -7.3082 345.671 -17.0179 420.594 95.9063C401.9 111.608 383.14 127.365 364.025 143.419C359.823 137.534 356.035 131.789 351.808 126.386C334.748 104.577 312.965 90.4789 285.34 85.8928C263.066 82.195 241.718 84.0292 221.539 95.0841C206.171 103.503 194.404 115.476 185.812 130.531C170.275 157.754 167.301 187.117 175.099 216.843C184.74 253.595 207.429 278.72 246.23 285.764C273.778 290.765 299.74 286.701 321.844 267.906C332.08 259.201 337.596 247.607 340.532 234.694C340.847 233.308 340.699 231.817 340.79 229.854C312.016 229.854 283.609 229.854 254.899 229.854C254.899 205.916 254.899 182.483 254.899 158.661C312.51 158.661 370.186 158.661 428.357 158.661C428.357 161.523 428.408 164.15 428.349 166.775C427.907 186.248 427.992 205.753 426.86 225.186C425.096 255.486 413.512 282.091 393.957 305.143C374.768 327.764 350.146 342.099 322.016 350.613C295.068 358.77 267.546 361.166 239.561 357.827C205.227 353.731 174.304 341.301 147.097 319.858C143.859 317.306 140.791 314.536 137.382 311.633ZM84.9351 68.6417C87.819 69.6819 90.703 70.7222 94.0657 71.9351C95.6076 62.7236 92.5025 55.8318 87.1374 49.7706C79.5596 41.2096 69.7625 36.5447 58.6932 34.4832C44.9366 31.9213 30.7778 31.1319 17.373 24.1052C20.1061 41.9317 24.2886 58.2539 35.0708 72.0321C45.7628 85.695 66.1786 91.6803 80.8827 85.5634C79.4728 84.8734 78.3601 84.2379 77.1818 83.7662C62.5535 77.9091 49.3682 69.6463 37.2852 59.6147C35.4528 58.0934 33.6385 56.0165 32.9012 53.8305C31.6875 50.2319 32.9237 46.8976 36.3011 44.752C40.0349 42.3799 43.6039 43.005 46.8727 45.7267C58.1879 55.1483 70.5125 62.9002 84.9351 68.6417Z" fill="#1D2B24"/>
</svg>