<svg width="429" height="475" viewBox="0 0 429 475" fill="none" xmlns="http://www.w3.org/2000/svg">
<path d="M137.702 312.271C122.812 298.071 111.678 281.75 102.601 263.636C87.094 232.69 83.2275 200.016 86.3148 166.181C88.4506 142.774 95.9072 120.905 107.462 100.437C108.581 98.4538 109.592 96.4093 110.726 94.2556C106.314 92.4211 103.1 92.2905 98.9136 95.6454C84.2065 107.432 67.3272 107.571 50.1343 102.4C34.9021 97.8187 23.7427 87.8957 16 74.1652C5.73968 55.9702 0.86737 36.2735 0.327155 15.4629C0.275825 13.4853 0.534941 11.4652 0.915625 9.51675C2.63911 0.695464 10.5872 -2.20069 17.2201 3.7944C27.4693 13.0581 40.3056 14.6765 53.0956 17.1617C62.9626 19.0789 73.2799 21.0702 82.083 25.5887C102.249 35.9393 114.427 51.9427 111.16 76.4738C114.733 77.1611 118.292 77.8454 121.807 78.5215C190.729 -6.67002 345.991 -16.3797 420.914 96.5445C402.22 112.246 383.46 128.003 364.346 144.057C360.144 138.172 356.355 132.427 352.129 127.024C335.069 105.216 313.285 91.1171 285.661 86.531C263.386 82.8331 242.039 84.6674 221.859 95.7222C206.492 104.141 194.724 116.114 186.133 131.169C170.596 158.392 167.622 187.755 175.42 217.481C185.06 254.233 207.749 279.358 246.551 286.402C274.098 291.403 300.061 287.339 322.165 268.544C332.401 259.84 337.916 248.245 340.853 235.332C341.168 233.946 341.02 232.456 341.111 230.493C312.336 230.493 283.93 230.493 255.22 230.493C255.22 206.554 255.22 183.121 255.22 159.299C312.831 159.299 370.507 159.299 428.678 159.299C428.678 162.161 428.729 164.788 428.669 167.414C428.228 186.886 428.312 206.391 427.181 225.824C425.417 256.124 413.833 282.729 394.278 305.781C375.089 328.402 350.467 342.737 322.337 351.251C295.389 359.408 267.867 361.804 239.882 358.465C205.548 354.369 174.624 341.939 147.418 320.496C144.179 317.944 141.112 315.174 137.702 312.271ZM85.2557 69.2799C88.1397 70.3201 91.0237 71.3604 94.3864 72.5733C95.9283 63.3618 92.8232 56.47 87.4581 50.4088C79.8802 41.8478 70.0832 37.1829 59.0139 35.1214C45.2573 32.5594 31.0985 31.7701 17.6937 24.7434C20.4268 42.5698 24.6093 58.892 35.3915 72.6703C46.0835 86.3332 66.4993 92.3184 81.2033 86.2016C79.7934 85.5116 78.6807 84.8761 77.5025 84.4043C62.8742 78.5473 49.6889 70.2845 37.6059 60.2529C35.7735 58.7316 33.9592 56.6547 33.2219 54.4687C32.0082 50.87 33.2444 47.5358 36.6218 45.3902C40.3556 43.0181 43.9246 43.6432 47.1934 46.3649C58.5086 55.7865 70.8331 63.5384 85.2557 69.2799Z" fill="#222B24"/>
<path d="M227.832 443.059C231.905 449.75 231.543 451.993 226.899 457.801C226.07 458.838 226.423 461.416 227.073 462.918C228.599 466.444 230.635 469.751 232.609 473.416C227.477 475.001 224.668 473.855 223.036 469.636C222.145 467.332 220.906 465.098 219.455 463.102C218.683 462.04 217.123 461.553 215.919 460.806C215.286 462.023 214.288 463.187 214.103 464.468C213.796 466.589 214.423 468.902 213.859 470.91C213.496 472.202 211.72 473.909 210.551 473.929C209.427 473.948 207.315 472.07 207.276 470.968C206.96 461.82 206.964 452.657 207.05 443.501C207.06 442.427 208.176 440.424 208.74 440.438C215.067 440.596 221.771 438.242 227.832 443.059ZM221.083 454.966C224.195 453.078 224.537 449.731 222.539 447.784C220.735 446.027 217.248 445.999 214.345 445.163C213.03 455.797 213.646 456.669 221.083 454.966Z" fill="#3C443F"/>
<path d="M159.04 440C167.786 440.544 168.121 440.804 167.464 446.586C165.703 446.364 163.947 446.086 162.181 445.928C151.914 445.007 145.879 453.144 149.948 462.868C150.921 465.194 153.172 467.69 155.446 468.629C161.288 471.041 163.564 468.714 162.298 462.153C160.74 461.908 159.128 461.654 157.086 461.333C157.025 459.965 156.963 458.604 156.89 456.989C161.114 456.989 164.877 456.989 169.225 456.989C169.225 461.569 169.291 466.004 169.164 470.433C169.141 471.248 168.526 472.305 167.853 472.802C161.233 477.702 146.807 473.861 143.469 466.378C137.527 453.06 144.36 441.168 159.04 440Z" fill="#343C37"/>
<path d="M290.996 447.228C291.05 445.284 290.709 443.613 291.281 442.358C291.755 441.317 293.319 440.151 294.375 440.175C295.391 440.198 297.229 441.666 297.239 442.515C297.326 450.151 297.646 457.854 296.78 465.409C296.026 471.999 290.603 474.836 282.414 474.27C275.661 473.804 272.029 470.525 271.556 463.758C271.127 457.638 271.396 451.47 271.029 445.343C270.738 440.485 272.595 438.947 277.898 440.7C277.898 447.534 277.928 454.626 277.886 461.717C277.865 465.232 279.092 467.918 282.713 468.783C287.32 469.884 290.246 467.958 290.658 463.123C291.095 458.003 290.909 452.83 290.996 447.228Z" fill="#343C37"/>
<path d="M342.031 456.921C342.032 461.748 342.306 466.104 341.873 470.388C341.739 471.703 339.668 472.821 338.484 474.03C337.341 472.779 335.251 471.559 335.209 470.273C334.921 461.293 334.941 452.296 335.204 443.314C335.237 442.19 337.104 440.524 338.412 440.163C340.705 439.531 342.126 440.758 342.061 443.438C341.956 447.764 342.032 452.094 342.031 456.921Z" fill="#37403C"/>
<path d="M385.743 471.107C385.72 462.708 385.72 454.726 385.72 445.902C383.448 445.902 381.432 446.264 379.647 445.778C378.403 445.439 377.476 443.938 376.407 442.956C377.443 441.954 378.446 440.128 379.521 440.084C386.173 439.815 392.846 439.814 399.499 440.074C400.625 440.118 401.685 441.863 402.775 442.821C401.596 443.849 400.566 445.344 399.198 445.783C397.586 446.301 395.68 445.905 393.42 445.905C393.42 454.382 393.534 462.18 393.319 469.969C393.278 471.444 392.236 473.755 391.117 474.149C389.004 474.893 386.326 474.859 385.743 471.107ZM387.865 460.487C387.865 463.153 387.682 465.837 387.947 468.476C388.069 469.703 389.061 470.843 389.66 472.022C390.387 470.811 391.699 469.62 391.743 468.384C391.954 462.411 392.061 456.413 391.738 450.449C391.483 445.727 393.019 443.513 397.949 444.096C398.822 444.2 399.782 443.562 400.703 443.266C400.63 442.798 400.557 442.33 400.484 441.861C393.122 441.969 385.732 441.071 378.397 443.062C379.485 443.833 380.621 444.27 381.673 444.12C386.761 443.394 388.195 445.955 387.906 450.505C387.717 453.492 387.863 456.501 387.865 460.487Z" fill="#1E2923"/>
<path d="M387.759 460.681C387.761 457.105 387.61 454.024 387.805 450.965C388.102 446.306 386.624 443.683 381.378 444.426C380.293 444.579 379.121 444.133 378 443.343C385.562 441.304 393.184 442.224 400.774 442.113C400.85 442.593 400.925 443.073 401 443.552C400.051 443.855 399.06 444.508 398.16 444.402C393.077 443.805 391.493 446.072 391.756 450.907C392.089 457.015 391.978 463.157 391.761 469.274C391.716 470.54 390.363 471.759 389.613 473C388.996 471.792 387.973 470.625 387.847 469.368C387.574 466.666 387.762 463.917 387.759 460.681Z" fill="#1E2923"/>
<rect x="378" y="441" width="23" height="3" fill="#1E2923"/>
</svg>